{
DisplayStrings = (
"\U00B8\U00C7/uni015E/uni0162/uni0163 \U00E7/uni015F \012\U00B8/ogonek/Aogonek/Iogonek/Eogonek/Uogonek/aogonek/iogonek/eogonek/uogonek \012 /aogonek j /aogonek y\012/aogonek c /aogonek g /aogonek p /aogonek t /aogonek z\012/eogonek b /eogonek d /eogonek g /eogonek k /eogonek p /eogonek s /eogonek t\012c/aogonek  i/aogonek  j/aogonek  k/aogonek  n/aogonek  S/aogonek \012i/eogonek  j/eogonek  /lslash/eogonek  n/eogonek",
"nn.nnnr.rnnh.hnnm.mnnu.unni.innj.jnnf.fnn/lslash ./lslash nnl.lnnt.tnnn.nnno.onna.an.ne.ennc.cnns.snnn.nnnp.pnnb.bnno.onnq.qnnd.dnnu.unng.gnni.innj.jnnf.fnnl.lnnt.tnnc.cnne.ennu.unna.annd.dnnn.nnnx.xnnk.knnx.xnnz.znnt.tnnw.wnnv.vnny.ynna.ann\U00E6.\U00E6nne.enno.on.n/oe ./oe nne.ennz.znn/lslash ./lslash nnx.xnn\U00F8.\U00F8nn\U00FE.\U00FEnnb.bnn\U00F0.\U00F0nnd.dnn\U00DF.\U00DFnnf.fnns.sn",
"HH.HHHL.LHHE.EHHF.FHHT.THHZ.ZHHH.HHHN.NHHM.MHHI.IHHZ.ZHHA.AHHV.VHH.v.v.HH.Y.Y.HY.HHy.yHHW.WHHw.wHHM.MHHH.HHHN.NHHI.IHHZ.ZHHK.KHHk.kHHX.XHHx.xHHH.HHHN.NHHM.MHHA.AHHV.VHHW.WHHY.YHHZ.ZHHK.KHHH.HHHo.oHHO.OHH.HHQ.QHHC.CHHc.cHHG.GHHZ.ZHHH.HHHH.HHHD.DHHK.KHHR.RHHP.PHHO.OHHB.BHHH.HHHE.EHHD.DHHH.HHHU.UHHO.OHHS.SHHs.sHHO.OHHJ.JHHS.SHHC.CHHA.AHH\U00C6.\U00C6HHE.EHHO.OHH/OE ./OE HHE.EHHX.XHH/Lslash ./Lslash HH\U00D0./Dcroat HH/lslash ./lslash HHZ.ZHH\U00D8.\U00D8HH\U00DE.\U00DEHHD.DH\012",
"nu.nu,nuHHOO.OO,OOnn.nn,nnoo.oo,oo\012i,i;i/quoteleft/quoteright/quotedblleft/quotedblright/quotesinglbase/quotedblbase \012\012H/quoteleft HH/quoteright HO/quoteleft OO/quoteright O\012xox/quoteleft xox/quoteright xox\012nn/quoteleft nn/quoteright nn\012oo/quoteleft oo/quoteright oo\012./quoteleft ./quoteright . ,/quoteleft ,/quoteright , :;\012./quotedblleft ./quotedblright . ,/quotedblleft ,/quotedblright , :;",
"nnannooaooxnxaxox\012nnennooeooxnxexox\012nnsnnoosooxnxexox\012nngnnoogooxnxgxox\012HHSHHOOSOOXHXSXOX\012HHGHHOOGOOXHXGXOX\0120411H4H182434445464748494\012000102030405060708090",

glyphs = (
{
glyphname = A;
lastChange = "2014-11-03 12:32:19 +0000";
layers = (
{
anchors = (
{
name = ogonek;
position = "{639, 0}";
},
{
name = top;
position = "{335, 660}";
}
);
layerId = "4A17B37A-CBFD-40E5-9E02-2080A0E1F76C";
name = Regular;
paths = (
{
closed = 1;
nodes = (
"288 660 LINE",
"31 0 LINE",
"115 0 LINE",
"304 495 LINE",
"333 584 LINE",
"335 584 LINE",
"366 492 LINE",
"554 0 LINE",
"639 0 LINE",
"383 660 LINE"
);
},
{
closed = 1;
nodes = (
"157 258 LINE",
"157 183 LINE",
"510 183 LINE",
"510 258 LINE"
);
}
);
width = 670;
},
{
anchors = (
{
name = ogonek;
position = "{700, 0}";
},
{
name = top;
position = "{344, 660}";
}
);
layerId = "99EB5860-B45A-4B60-BB0B-F826C8F71D42";
name = Bold;
paths = (
{
closed = 1;
nodes = (
"204 660 LINE",
"-10 0 LINE",
"222 0 LINE",
"315 379 LINE",
"340 491 LINE",
"345 491 LINE",
"371 379 LINE",
"461 0 LINE",
"699 0 LINE",
"484 660 LINE"
);
},
{
closed = 1;
nodes = (
"157 271 LINE",
"157 126 LINE",
"534 126 LINE",
"534 271 LINE"
);
}
);
width = 689;
},
{
anchors = (
{
name = ogonek;
position = "{560, 0}";
},
{
name = top;
position = "{279, 660}";
}
);
layerId = "1C7CD022-87C7-4E11-B656-E47B18819458";
name = Light;
paths = (
{
closed = 1;
nodes = (
"270 660 LINE",
"-2 0 LINE",
"15 0 LINE",
"262 597 LINE",
"279 642 LINE",
"279 642 LINE",
"296 596 LINE",
"543 0 LINE",
"560 0 LINE",
"288 660 LINE"
);
},
{
closed = 1;
nodes = (
"104 248 LINE",
"104 234 LINE",
"453 234 LINE",
"453 248 LINE"
);
}
);
width = 558;
}
);
leftKerningGroup = A;
rightKerningGroup = A;
unicode = 0041;
},
{
glyphname = Aogonek;
lastChange = "2014-11-03 12:32:21 +0000";
layers = (
{
components = (
{
name = A;
transform = "{1, 0, 0, 1, 0, 0}";
}
);
layerId = "4A17B37A-CBFD-40E5-9E02-2080A0E1F76C";
name = Regular;
paths = (
{
closed = 1;
nodes = (
"593 31 LINE",
"494 0 OFFCURVE",
"450 -45 OFFCURVE",
"450 -111 CURVE SMOOTH",
"450 -177 OFFCURVE",
"497 -215 OFFCURVE",
"569 -215 CURVE SMOOTH",
"598 -215 OFFCURVE",
"632 -209 OFFCURVE",
"651 -196 CURVE",
"635 -145 LINE",
"619 -156 OFFCURVE",
"596 -158 OFFCURVE",
"579 -158 CURVE SMOOTH",
"540 -158 OFFCURVE",
"515 -139 OFFCURVE",
"515 -106 CURVE SMOOTH",
"515 -68 OFFCURVE",
"538 -33 OFFCURVE",
"639 0 CURVE"
);
}
);
width = 670;
},
{
components = (
{
name = A;
transform = "{1, 0, 0, 1, 0, 0}";
}
);
layerId = "99EB5860-B45A-4B60-BB0B-F826C8F71D42";
name = Bold;
paths = (
{
closed = 1;
nodes = (
"621 32 LINE",
"519 26 OFFCURVE",
"446 -17 OFFCURVE",
"446 -96 CURVE SMOOTH",
"446 -180 OFFCURVE",
"515 -215 OFFCURVE",
"598 -215 CURVE SMOOTH",
"648 -215 OFFCURVE",
"684 -209 OFFCURVE",
"716 -189 CURVE",
"689 -86 LINE",
"679 -92 OFFCURVE",
"664 -94 OFFCURVE",
"649 -94 CURVE SMOOTH",
"618 -94 OFFCURVE",
"600 -80 OFFCURVE",
"600 -56 CURVE SMOOTH",
"600 -25 OFFCURVE",
"628 -5 OFFCURVE",
"713 0 CURVE"
);
}
);
width = 709;
},
{
components = (
{
name = A;
transform = "{1, 0, 0, 1, 0, 0}";
}
);
layerId = "1C7CD022-87C7-4E11-B656-E47B18819458";
name = Light;
paths = (
{
closed = 1;
nodes = (
"545 7 LINE",
"446 -32 OFFCURVE",
"413 -72 OFFCURVE",
"413 -124 CURVE SMOOTH",
"413 -176 OFFCURVE",
"453 -202 OFFCURVE",
"501 -202 CURVE SMOOTH",
"537 -202 OFFCURVE",
"557 -192 OFFCURVE",
"573 -181 CURVE",
"567 -168 LINE",
"553 -179 OFFCURVE",
"535 -188 OFFCURVE",
"501 -188 CURVE SMOOTH",
"461 -188 OFFCURVE",
"428 -167 OFFCURVE",
"428 -124 CURVE SMOOTH",
"428 -75 OFFCURVE",
"461 -38 OFFCURVE",
"560 0 CURVE"
);
}
);
width = 558;
}
);
leftKerningGroup = A;
leftMetricsKey = A;
rightKerningGroup = A;
unicode = 0104;
},
{
glyphname = Aring;
lastChange = "2014-11-03 12:32:29 +0000";
layers = (
{
anchors = (
{
name = ogonek;
position = "{704, 0}";
},
{
name = top;
position = "{346, 660}";
}
);
layerId = "99EB5860-B45A-4B60-BB0B-F826C8F71D42";
leftMetricsKey = "=A";
rightMetricsKey = "=A";
name = Bold;
paths = (
{
closed = 1;
nodes = (
"212 660 LINE",
"-10 0 LINE",
"229 0 LINE",
"317 374 LINE",
"342 487 LINE",
"347 487 LINE",
"373 374 LINE",
"459 0 LINE",
"704 0 LINE",
"481 660 LINE"
);
},
{
closed = 1;
nodes = (
"158 272 LINE",
"158 123 LINE",
"536 123 LINE",
"536 272 LINE"
);
},
{
closed = 1;
nodes = (
"241 867 OFFCURVE",
"181 812 OFFCURVE",
"181 730 CURVE SMOOTH",
"181 647 OFFCURVE",
"241 606 OFFCURVE",
"347 606 CURVE SMOOTH",
"453 606 OFFCURVE",
"513 647 OFFCURVE",
"513 730 CURVE SMOOTH",
"513 812 OFFCURVE",
"453 867 OFFCURVE",
"347 867 CURVE SMOOTH"
);
},
{
closed = 1;
nodes = (
"379 768 OFFCURVE",
"397 751 OFFCURVE",
"397 721 CURVE SMOOTH",
"397 691 OFFCURVE",
"379 674 OFFCURVE",
"347 674 CURVE SMOOTH",
"315 674 OFFCURVE",
"297 691 OFFCURVE",
"297 721 CURVE SMOOTH",
"297 751 OFFCURVE",
"315 768 OFFCURVE",
"347 768 CURVE SMOOTH"
);
}
);
width = 694;
},
{
anchors = (
{
name = ogonek;
position = "{639, 0}";
},
{
name = top;
position = "{335, 660}";
}
);
layerId = "4A17B37A-CBFD-40E5-9E02-2080A0E1F76C";
name = Regular;
paths = (
{
closed = 1;
nodes = (
"288 660 LINE",
"31 0 LINE",
"115 0 LINE",
"304 495 LINE",
"333 584 LINE",
"335 584 LINE",
"366 492 LINE",
"554 0 LINE",
"639 0 LINE",
"383 660 LINE"
);
},
{
closed = 1;
nodes = (
"157 258 LINE",
"157 183 LINE",
"510 183 LINE",
"510 258 LINE"
);
},
{
closed = 1;
nodes = (
"257 852 OFFCURVE",
"206 804 OFFCURVE",
"206 734 CURVE SMOOTH",
"206 663 OFFCURVE",
"257 615 OFFCURVE",
"332 615 CURVE SMOOTH",
"407 615 OFFCURVE",
"457 663 OFFCURVE",
"457 734 CURVE SMOOTH",
"457 804 OFFCURVE",
"407 852 OFFCURVE",
"332 852 CURVE SMOOTH"
);
},
{
closed = 1;
nodes = (
"373 803 OFFCURVE",
"403 774 OFFCURVE",
"403 734 CURVE SMOOTH",
"403 694 OFFCURVE",
"373 665 OFFCURVE",
"332 665 CURVE SMOOTH",
"291 665 OFFCURVE",
"261 694 OFFCURVE",
"261 734 CURVE SMOOTH",
"261 774 OFFCURVE",
"291 803 OFFCURVE",
"332 803 CURVE SMOOTH"
);
}
);
width = 670;
},
{
anchors = (
{
name = ogonek;
position = "{560, 0}";
},
{
name = top;
position = "{279, 660}";
}
);
layerId = "1C7CD022-87C7-4E11-B656-E47B18819458";
name = Light;
paths = (
{
closed = 1;
nodes = (
"270 660 LINE",
"-2 0 LINE",
"15 0 LINE",
"262 597 LINE",
"279 642 LINE",
"279 642 LINE",
"296 596 LINE",
"543 0 LINE",
"560 0 LINE",
"288 660 LINE"
);
},
{
closed = 1;
nodes = (
"104 248 LINE",
"104 234 LINE",
"453 234 LINE",
"453 248 LINE"
);
},
{
closed = 1;
nodes = (
"236 786 OFFCURVE",
"207 758 OFFCURVE",
"207 716 CURVE SMOOTH",
"207 674 OFFCURVE",
"236 646 OFFCURVE",
"279 646 CURVE SMOOTH",
"322 646 OFFCURVE",
"351 674 OFFCURVE",
"351 716 CURVE SMOOTH",
"351 758 OFFCURVE",
"322 786 OFFCURVE",
"279 786 CURVE SMOOTH"
);
},
{
closed = 1;
nodes = (
"313 772 OFFCURVE",
"335 750 OFFCURVE",
"335 716 CURVE SMOOTH",
"335 682 OFFCURVE",
"313 660 OFFCURVE",
"279 660 CURVE SMOOTH",
"245 660 OFFCURVE",
"223 682 OFFCURVE",
"223 716 CURVE SMOOTH",
"223 750 OFFCURVE",
"245 772 OFFCURVE",
"279 772 CURVE SMOOTH"
);
}
);
width = 558;
}
);
leftKerningGroup = A;
leftMetricsKey = A;
rightKerningGroup = A;
rightMetricsKey = A;
unicode = 00C5;
},
{
glyphname = AE;
lastChange = "2014-11-03 12:32:25 +0000";
layers = (
{
layerId = "4A17B37A-CBFD-40E5-9E02-2080A0E1F76C";
rightMetricsKey = "=E";
name = Regular;
paths = (
{
closed = 1;
nodes = (
"383 660 LINE",
"-3 0 LINE",
"83 0 LINE",
"465 660 LINE"
);
},
{
closed = 1;
nodes = (
"207 288 LINE",
"167 213 LINE",
"482 213 LINE",
"482 288 LINE"
);
},
{
closed = 1;
nodes = (
"484 75 LINE",
"484 0 LINE",
"893 0 LINE",
"893 75 LINE"
);
},
{
closed = 1;
nodes = (
"442 660 LINE",
"442 0 LINE",
"522 0 LINE",
"522 660 LINE"
);
},
{
closed = 1;
nodes = (
"484 372 LINE",
"484 297 LINE",
"793 297 LINE",
"793 372 LINE"
);
},
{
closed = 1;
nodes = (
"420 660 LINE",
"380 585 LINE",
"479 585 LINE",
"495 585 LINE",
"878 585 LINE",
"878 660 LINE"
);
}
);
width = 952;
},
{
layerId = "99EB5860-B45A-4B60-BB0B-F826C8F71D42";
name = Bold;
paths = (
{
closed = 1;
nodes = (
"213 660 LINE",
"-1 0 LINE",
"229 0 LINE",
"392 660 LINE"
);
},
{
closed = 1;
nodes = (
"162 321 LINE",
"112 185 LINE",
"510 185 LINE",
"510 321 LINE"
);
},
{
closed = 1;
nodes = (
"498 161 LINE",
"498 0 LINE",
"896 0 LINE",
"898 161 LINE"
);
},
{
closed = 1;
nodes = (
"405 660 LINE",
"405 0 LINE",
"619 0 LINE",
"619 660 LINE"
);
},
{
closed = 1;
nodes = (
"498 403 LINE",
"498 254 LINE",
"824 254 LINE",
"823 403 LINE"
);
},
{
closed = 1;
nodes = (
"277 660 LINE",
"237 507 LINE",
"486 507 LINE",
"535 499 LINE",
"886 499 LINE",
"885 660 LINE"
);
}
);
width = 914;
},
{
layerId = "1C7CD022-87C7-4E11-B656-E47B18819458";
name = Light;
paths = (
{
closed = 1;
nodes = (
"405 660 LINE",
"-15 0 LINE",
"8 0 LINE",
"422 660 LINE"
);
},
{
closed = 1;
nodes = (
"166 268 LINE",
"156 254 LINE",
"436 254 LINE",
"436 268 LINE"
);
},
{
closed = 1;
nodes = (
"440 14 LINE",
"440 0 LINE",
"848 0 LINE",
"848 14 LINE"
);
},
{
closed = 1;
nodes = (
"431 660 LINE",
"431 0 LINE",
"447 0 LINE",
"447 660 LINE"
);
},
{
closed = 1;
nodes = (
"440 342 LINE",
"440 328 LINE",
"755 328 LINE",
"755 342 LINE"
);
},
{
closed = 1;
nodes = (
"417 660 LINE",
"406 646 LINE",
"437 646 LINE",
"440 646 LINE",
"832 646 LINE",
"832 660 LINE"
);
}
);
width = 861;
}
);
leftKerningGroup = AE;
rightKerningGroup = E;
rightMetricsKey = E;
unicode = 00C6;
},
{
glyphname = B;
lastChange = "2014-11-03 12:32:24 +0000";
layers = (
{
layerId = "4A17B37A-CBFD-40E5-9E02-2080A0E1F76C";
leftMetricsKey = "=I";
name = Regular;
paths = (
{
closed = 1;
nodes = (
"587 285 OFFCURVE",
"498 350 OFFCURVE",
"362 350 CURVE SMOOTH",
"150 350 LINE",
"150 295 LINE",
"363 295 LINE SMOOTH",
"457 295 OFFCURVE",
"503 255 OFFCURVE",
"503 185 CURVE SMOOTH",
"503 115 OFFCURVE",
"457 75 OFFCURVE",
"363 75 CURVE SMOOTH",
"150 75 LINE",
"150 0 LINE",
"344 0 LINE SMOOTH",
"500 0 OFFCURVE",
"587 73 OFFCURVE",
"587 185 CURVE SMOOTH"
);
},
{
closed = 1;
nodes = (
"110 660 LINE",
"110 0 LINE",
"190 0 LINE",
"190 660 LINE"
);
},
{
closed = 1;
nodes = (
"570 590 OFFCURVE",
"501 660 OFFCURVE",
"345 660 CURVE SMOOTH",
"150 660 LINE",
"150 585 LINE",
"346 585 LINE SMOOTH",
"440 585 OFFCURVE",
"486 550 OFFCURVE",
"486 478 CURVE SMOOTH",
"486 405 OFFCURVE",
"440 370 OFFCURVE",
"346 370 CURVE SMOOTH",
"150 370 LINE",
"150 315 LINE",
"345 315 LINE SMOOTH",
"481 315 OFFCURVE",
"570 377 OFFCURVE",
"570 478 CURVE SMOOTH"
);
}
);
width = 647;
},
{
layerId = "99EB5860-B45A-4B60-BB0B-F826C8F71D42";
name = Bold;
paths = (
{
closed = 1;
nodes = (
"692 280 OFFCURVE",
"615 335 OFFCURVE",
"455 335 CURVE SMOOTH",
"243 335 LINE",
"243 252 LINE",
"392 252 LINE SMOOTH",
"434 252 OFFCURVE",
"454 236 OFFCURVE",
"454 205 CURVE SMOOTH",
"454 172 OFFCURVE",
"434 156 OFFCURVE",
"392 156 CURVE SMOOTH",
"243 156 LINE",
"243 0 LINE",
"454 0 LINE SMOOTH",
"615 0 OFFCURVE",
"692 58 OFFCURVE",
"692 173 CURVE SMOOTH"
);
},
{
closed = 1;
nodes = (
"50 660 LINE",
"50 0 LINE",
"273 0 LINE",
"273 660 LINE"
);
},
{
closed = 1;
nodes = (
"675 601 OFFCURVE",
"595 658 OFFCURVE",
"428 659 CURVE SMOOTH",
"243 660 LINE",
"243 504 LINE",
"375 504 LINE SMOOTH",
"417 504 OFFCURVE",
"437 488 OFFCURVE",
"437 456 CURVE SMOOTH",
"437 424 OFFCURVE",
"417 408 OFFCURVE",
"375 408 CURVE SMOOTH",
"243 408 LINE",
"243 319 LINE",
"428 319 LINE SMOOTH",
"594 319 OFFCURVE",
"675 374 OFFCURVE",
"675 484 CURVE SMOOTH"
);
}
);
width = 704;
},
{
layerId = "1C7CD022-87C7-4E11-B656-E47B18819458";
name = Light;
paths = (
{
closed = 1;
nodes = (
"553 280 OFFCURVE",
"477 340 OFFCURVE",
"332 340 CURVE SMOOTH",
"109 340 LINE",
"109 326 LINE",
"332 326 LINE SMOOTH",
"467 326 OFFCURVE",
"537 274 OFFCURVE",
"537 170 CURVE SMOOTH",
"537 67 OFFCURVE",
"467 14 OFFCURVE",
"332 14 CURVE SMOOTH",
"109 14 LINE",
"109 0 LINE",
"332 0 LINE SMOOTH",
"477 0 OFFCURVE",
"553 58 OFFCURVE",
"553 169 CURVE SMOOTH"
);
},
{
closed = 1;
nodes = (
"100 660 LINE",
"100 0 LINE",
"116 0 LINE",
"116 660 LINE"
);
},
{
closed = 1;
nodes = (
"534 603 OFFCURVE",
"465 660 OFFCURVE",
"332 660 CURVE SMOOTH",
"109 660 LINE",
"109 646 LINE",
"332 646 LINE SMOOTH",
"454 646 OFFCURVE",
"518 593 OFFCURVE",
"518 492 CURVE SMOOTH",
"518 391 OFFCURVE",
"454 340 OFFCURVE",
"332 340 CURVE SMOOTH",
"109 340 LINE",
"109 326 LINE",
"332 326 LINE SMOOTH",
"465 326 OFFCURVE",
"534 384 OFFCURVE",
"534 493 CURVE SMOOTH"
);
}
);
width = 601;
}
);
leftKerningGroup = I;
leftMetricsKey = I;
rightKerningGroup = B;
unicode = 0042;
},
{
glyphname = C;
lastChange = "2014-11-03 12:32:28 +0000";
layers = (
{
anchors = (
{
name = bottom;
position = "{375, 0}";
},
{
name = top;
position = "{374, 660}";
}
);
layerId = "4A17B37A-CBFD-40E5-9E02-2080A0E1F76C";
leftMetricsKey = "=O";
name = Regular;
paths = (
{
closed = 1;
nodes = (
"562 199 LINE",
"533 110 OFFCURVE",
"464 65 OFFCURVE",
"376 65 CURVE SMOOTH",
"239 65 OFFCURVE",
"154 164 OFFCURVE",
"154 330 CURVE SMOOTH",
"154 497 OFFCURVE",
"245 595 OFFCURVE",
"380 595 CURVE SMOOTH",
"468 595 OFFCURVE",
"522 555 OFFCURVE",
"551 479 CURVE",
"630 516 LINE",
"588 616 OFFCURVE",
"502 670 OFFCURVE",
"374 670 CURVE SMOOTH",
"190 670 OFFCURVE",
"70 539 OFFCURVE",
"70 330 CURVE SMOOTH",
"70 121 OFFCURVE",
"188 -10 OFFCURVE",
"376 -10 CURVE SMOOTH",
"500 -10 OFFCURVE",
"600 56 OFFCURVE",
"642 169 CURVE"
);
}
);
width = 674;
},
{
anchors = (
{
name = bottom;
position = "{364, 0}";
},
{
name = top;
position = "{356, 660}";
}
);
layerId = "99EB5860-B45A-4B60-BB0B-F826C8F71D42";
name = Bold;
paths = (
{
closed = 1;
nodes = (
"464 255 LINE",
"456 192 OFFCURVE",
"433 165 OFFCURVE",
"369 165 CURVE SMOOTH",
"299 165 OFFCURVE",
"267 217 OFFCURVE",
"267 330 CURVE SMOOTH",
"267 444 OFFCURVE",
"302 495 OFFCURVE",
"371 495 CURVE SMOOTH",
"426 495 OFFCURVE",
"454 478 OFFCURVE",
"465 383 CURVE",
"665 470 LINE",
"637 611 OFFCURVE",
"510 670 OFFCURVE",
"365 670 CURVE SMOOTH",
"156 670 OFFCURVE",
"29 546 OFFCURVE",
"29 330 CURVE SMOOTH",
"29 114 OFFCURVE",
"156 -10 OFFCURVE",
"365 -10 CURVE SMOOTH",
"516 -10 OFFCURVE",
"633 47 OFFCURVE",
"670 202 CURVE"
);
}
);
width = 677;
},
{
anchors = (
{
name = bottom;
position = "{357, 0}";
},
{
name = top;
position = "{340, 660}";
}
);
layerId = "1C7CD022-87C7-4E11-B656-E47B18819458";
name = Light;
paths = (
{
closed = 1;
nodes = (
"596 171 LINE",
"565 65 OFFCURVE",
"476 4 OFFCURVE",
"350 4 CURVE SMOOTH",
"185 4 OFFCURVE",
"73 130 OFFCURVE",
"73 330 CURVE SMOOTH",
"73 530 OFFCURVE",
"184 656 OFFCURVE",
"350 656 CURVE SMOOTH",
"479 656 OFFCURVE",
"558 601 OFFCURVE",
"591 489 CURVE",
"606 496 LINE",
"573 612 OFFCURVE",
"489 670 OFFCURVE",
"350 670 CURVE SMOOTH",
"174 670 OFFCURVE",
"57 539 OFFCURVE",
"57 330 CURVE SMOOTH",
"57 121 OFFCURVE",
"175 -10 OFFCURVE",
"350 -10 CURVE SMOOTH",
"483 -10 OFFCURVE",
"578 54 OFFCURVE",
"611 165 CURVE"
);
}
);
width = 647;
}
);
leftKerningGroup = O;
leftMetricsKey = O;
rightKerningGroup = C;
unicode = 0043;
},
{
glyphname = D;
lastChange = "2014-11-03 12:32:24 +0000";
layers = (
{
anchors = (
{
name = center;
position = "{368, 330}";
},
{
name = top;
position = "{327, 660}";
}
);
layerId = "4A17B37A-CBFD-40E5-9E02-2080A0E1F76C";
leftMetricsKey = "=I";
rightMetricsKey = "=O";
name = Regular;
paths = (
{
closed = 1;
nodes = (
"150 660 LINE",
"150 585 LINE",
"331 585 LINE SMOOTH",
"482 585 OFFCURVE",
"571 490 OFFCURVE",
"571 330 CURVE SMOOTH",
"571 170 OFFCURVE",
"482 75 OFFCURVE",
"331 75 CURVE SMOOTH",
"150 75 LINE",
"150 0 LINE",
"323 0 LINE SMOOTH",
"530 0 OFFCURVE",
"655 118 OFFCURVE",
"655 330 CURVE SMOOTH",
"655 542 OFFCURVE",
"530 660 OFFCURVE",
"323 660 CURVE SMOOTH"
);
},
{
closed = 1;
nodes = (
"110 660 LINE",
"110 0 LINE",
"190 0 LINE",
"190 660 LINE"
);
}
);
width = 725;
},
{
anchors = (
{
name = center;
position = "{15, 14}";
},
{
name = top;
position = "{331, 660}";
}
);
layerId = "99EB5860-B45A-4B60-BB0B-F826C8F71D42";
name = Bold;
paths = (
{
closed = 1;
nodes = (
"218 660 LINE",
"218 494 LINE",
"341 494 LINE SMOOTH",
"427 494 OFFCURVE",
"449 443 OFFCURVE",
"449 330 CURVE SMOOTH",
"449 217 OFFCURVE",
"427 166 OFFCURVE",
"341 166 CURVE SMOOTH",
"218 166 LINE",
"218 0 LINE",
"374 0 LINE SMOOTH",
"581 0 OFFCURVE",
"687 120 OFFCURVE",
"687 330 CURVE SMOOTH",
"687 540 OFFCURVE",
"581 660 OFFCURVE",
"374 660 CURVE SMOOTH"
);
},
{
closed = 1;
nodes = (
"50 660 LINE",
"50 0 LINE",
"283 0 LINE",
"283 660 LINE"
);
}
);
width = 716;
},
{
anchors = (
{
name = center;
position = "{356, 330}";
},
{
name = top;
position = "{310, 660}";
}
);
layerId = "1C7CD022-87C7-4E11-B656-E47B18819458";
name = Light;
paths = (
{
closed = 1;
nodes = (
"109 660 LINE",
"109 646 LINE",
"303 646 LINE SMOOTH",
"506 646 OFFCURVE",
"612 541 OFFCURVE",
"612 340 CURVE SMOOTH",
"612 126 OFFCURVE",
"506 14 OFFCURVE",
"303 14 CURVE SMOOTH",
"108 14 LINE",
"108 0 LINE",
"303 0 LINE SMOOTH",
"517 0 OFFCURVE",
"628 117 OFFCURVE",
"628 340 CURVE SMOOTH",
"628 550 OFFCURVE",
"517 660 OFFCURVE",
"303 660 CURVE SMOOTH"
);
},
{
closed = 1;
nodes = (
"100 660 LINE",
"100 0 LINE",
"116 0 LINE",
"116 660 LINE"
);
}
);
width = 685;
}
);
leftKerningGroup = I;
leftMetricsKey = I;
rightKerningGroup = O;
rightMetricsKey = O;
unicode = 0044;
},
{
color = 11;
glyphname = Dcroat;
lastChange = "2014-11-03 12:32:26 +0000";
layers = (
{
components = (
{
name = D;
transform = "{1, 0, 0, 1, 0, 0}";
}
);
layerId = "4A17B37A-CBFD-40E5-9E02-2080A0E1F76C";
name = Regular;
paths = (
{
closed = 1;
nodes = (
"10 363 LINE",
"10 303 LINE",
"385 303 LINE",
"385 363 LINE"
);
}
);
width = 725;
},
{
associatedMasterId = "99EB5860-B45A-4B60-BB0B-F826C8F71D42";
background = {
components = (
{
name = D;
transform = "{1, 0, 0, 1, 0, 0}";
}
);
paths = (
{
closed = 1;
nodes = (
"10 383 LINE",
"10 323 LINE",
"385 323 LINE",
"385 383 LINE"
);
}
);
};
components = (
{
name = D;
transform = "{1, 0, 0, 1, 30, 0}";
}
);
layerId = "C1DD4913-182C-4664-AAE7-7B3AAF95996E";
name = "Bold [201]";
paths = (
{
closed = 1;
nodes = (
"6 375 LINE",
"6 279 LINE",
"399 279 LINE",
"399 375 LINE"
);
}
);
width = 746;
},
{
components = (
{
name = D;
transform = "{1, 0, 0, 1, 28, 0}";
}
);
layerId = "99EB5860-B45A-4B60-BB0B-F826C8F71D42";
name = Bold;
paths = (
{
closed = 1;
nodes = (
"4 403 LINE",
"4 253 LINE",
"397 253 LINE",
"397 403 LINE"
);
}
);
width = 744;
},
{
components = (
{
name = D;
transform = "{1, 0, 0, 1, 0, 0}";
}
);
layerId = "1C7CD022-87C7-4E11-B656-E47B18819458";
name = Light;
paths = (
{
closed = 1;
nodes = (
"-2 341 LINE",
"-2 327 LINE",
"323 327 LINE",
"323 341 LINE"
);
}
);
width = 685;
}
);
leftKerningGroup = Eth;
rightKerningGroup = O;
rightMetricsKey = O;
unicode = 0110;
},
{
glyphname = E;
lastChange = "2014-11-03 12:32:20 +0000";
layers = (
{
anchors = (
{
name = bottom;
position = "{341, 0}";
},
{
name = ogonek;
position = "{588, 0}";
},
{
name = top;
position = "{341, 660}";
}
);
layerId = "4A17B37A-CBFD-40E5-9E02-2080A0E1F76C";
leftMetricsKey = "=I";
name = Regular;
paths = (
{
closed = 1;
nodes = (
"110 660 LINE",
"110 0 LINE",
"190 0 LINE",
"190 660 LINE"
);
},
{
closed = 1;
nodes = (
"152 75 LINE",
"152 0 LINE",
"588 0 LINE",
"588 75 LINE"
);
},
{
closed = 1;
nodes = (
"152 372 LINE",
"152 297 LINE",
"488 297 LINE",
"488 372 LINE"
);
},
{
closed = 1;
nodes = (
"152 660 LINE",
"152 585 LINE",
"573 585 LINE",
"573 660 LINE"
);
}
);
width = 647;
},
{
anchors = (
{
name = bottom;
position = "{329, 0}";
},
{
name = ogonek;
position = "{611, 0}";
},
{
name = top;
position = "{313, 660}";
}
);
layerId = "99EB5860-B45A-4B60-BB0B-F826C8F71D42";
leftMetricsKey = "=I";
name = Bold;
paths = (
{
closed = 1;
nodes = (
"50 660 LINE",
"50 0 LINE",
"283 0 LINE",
"283 660 LINE"
);
},
{
closed = 1;
nodes = (
"162 171 LINE",
"162 0 LINE",
"610 0 LINE",
"610 171 LINE"
);
},
{
closed = 1;
nodes = (
"162 407 LINE",
"162 249 LINE",
"537 249 LINE",
"537 407 LINE"
);
},
{
closed = 1;
nodes = (
"162 660 LINE",
"162 489 LINE",
"598 489 LINE",
"598 660 LINE"
);
}
);
width = 626;
},
{
anchors = (
{
name = bottom;
position = "{318, 0}";
},
{
name = ogonek;
position = "{554, 0}";
},
{
name = top;
position = "{318, 660}";
}
);
layerId = "1C7CD022-87C7-4E11-B656-E47B18819458";
name = Light;
paths = (
{
closed = 1;
nodes = (
"100 660 LINE",
"100 0 LINE",
"116 0 LINE",
"116 660 LINE"
);
},
{
closed = 1;
nodes = (
"106 14 LINE",
"106 0 LINE",
"554 0 LINE",
"554 14 LINE"
);
},
{
closed = 1;
nodes = (
"106 344 LINE",
"106 330 LINE",
"454 330 LINE",
"454 344 LINE"
);
},
{
closed = 1;
nodes = (
"106 660 LINE",
"106 646 LINE",
"537 646 LINE",
"537 660 LINE"
);
}
);
width = 567;
}
);
leftKerningGroup = I;
leftMetricsKey = I;
rightKerningGroup = E;
unicode = 0045;
},
{
glyphname = Eogonek;
lastChange = "2014-11-03 12:32:32 +0000";
layers = (
{
components = (
{
name = E;
transform = "{1, 0, 0, 1, 0, 0}";
}
);
layerId = "4A17B37A-CBFD-40E5-9E02-2080A0E1F76C";
leftMetricsKey = "=I";
name = Regular;
paths = (
{
closed = 1;
nodes = (
"554 22 LINE",
"453 -3 OFFCURVE",
"399 -41 OFFCURVE",
"399 -117 CURVE SMOOTH",
"399 -177 OFFCURVE",
"446 -215 OFFCURVE",
"518 -215 CURVE SMOOTH",
"547 -215 OFFCURVE",
"581 -209 OFFCURVE",
"600 -196 CURVE",
"584 -145 LINE",
"568 -156 OFFCURVE",
"545 -158 OFFCURVE",
"528 -158 CURVE SMOOTH",
"489 -158 OFFCURVE",
"464 -139 OFFCURVE",
"464 -106 CURVE SMOOTH",
"464 -68 OFFCURVE",
"487 -34 OFFCURVE",
"588 0 CURVE"
);
}
);
width = 647;
},
{
components = (
{
name = E;
transform = "{1, 0, 0, 1, 0, 0}";
}
);
layerId = "99EB5860-B45A-4B60-BB0B-F826C8F71D42";
leftMetricsKey = "=I";
name = Bold;
paths = (
{
closed = 1;
nodes = (
"561 32 LINE",
"435 26 OFFCURVE",
"346 -17 OFFCURVE",
"346 -96 CURVE SMOOTH",
"346 -180 OFFCURVE",
"415 -215 OFFCURVE",
"498 -215 CURVE SMOOTH",
"548 -215 OFFCURVE",
"584 -209 OFFCURVE",
"616 -189 CURVE",
"589 -86 LINE",
"579 -92 OFFCURVE",
"564 -94 OFFCURVE",
"549 -94 CURVE SMOOTH",
"518 -94 OFFCURVE",
"500 -80 OFFCURVE",
"500 -56 CURVE SMOOTH",
"500 -25 OFFCURVE",
"528 -5 OFFCURVE",
"613 0 CURVE"
);
}
);
width = 635;
},
{
components = (
{
name = E;
transform = "{1, 0, 0, 1, 0, 0}";
}
);
layerId = "1C7CD022-87C7-4E11-B656-E47B18819458";
name = Light;
paths = (
{
closed = 1;
nodes = (
"545 8 LINE",
"438 -30 OFFCURVE",
"407 -72 OFFCURVE",
"407 -124 CURVE SMOOTH",
"407 -176 OFFCURVE",
"447 -202 OFFCURVE",
"495 -202 CURVE SMOOTH",
"532 -202 OFFCURVE",
"551 -192 OFFCURVE",
"567 -181 CURVE",
"561 -168 LINE",
"547 -179 OFFCURVE",
"529 -188 OFFCURVE",
"495 -188 CURVE SMOOTH",
"455 -188 OFFCURVE",
"422 -167 OFFCURVE",
"422 -124 CURVE SMOOTH",
"422 -75 OFFCURVE",
"455 -38 OFFCURVE",
"554 0 CURVE"
);
}
);
width = 567;
}
);
leftKerningGroup = I;
leftMetricsKey = E;
rightKerningGroup = E;
unicode = 0118;
},
{
glyphname = F;
lastChange = "2014-11-03 12:32:28 +0000";
layers = (
{
layerId = "4A17B37A-CBFD-40E5-9E02-2080A0E1F76C";
leftMetricsKey = "=I";
name = Regular;
paths = (
{
closed = 1;
nodes = (
"110 660 LINE",
"110 0 LINE",
"190 0 LINE",
"190 660 LINE"
);
},
{
closed = 1;
nodes = (
"152 372 LINE",
"152 297 LINE",
"488 297 LINE",
"488 372 LINE"
);
},
{
closed = 1;
nodes = (
"152 660 LINE",
"152 585 LINE",
"572 585 LINE",
"572 660 LINE"
);
}
);
width = 617;
},
{
layerId = "99EB5860-B45A-4B60-BB0B-F826C8F71D42";
leftMetricsKey = "=I";
name = Bold;
paths = (
{
closed = 1;
nodes = (
"50 660 LINE",
"50 0 LINE",
"283 0 LINE",
"283 660 LINE"
);
},
{
closed = 1;
nodes = (
"162 397 LINE",
"162 226 LINE",
"537 226 LINE",
"536 397 LINE"
);
},
{
closed = 1;
nodes = (
"162 660 LINE",
"162 489 LINE",
"598 489 LINE",
"597 660 LINE"
);
}
);
width = 614;
},
{
layerId = "1C7CD022-87C7-4E11-B656-E47B18819458";
name = Light;
paths = (
{
closed = 1;
nodes = (
"100 660 LINE",
"100 0 LINE",
"116 0 LINE",
"116 660 LINE"
);
},
{
closed = 1;
nodes = (
"106 344 LINE",
"106 330 LINE",
"454 330 LINE",
"454 344 LINE"
);
},
{
closed = 1;
nodes = (
"106 660 LINE",
"106 646 LINE",
"536 646 LINE",
"536 660 LINE"
);
}
);
width = 553;
}
);
leftKerningGroup = I;
leftMetricsKey = E;
rightKerningGroup = F;
unicode = 0046;
},
{
glyphname = G;
lastChange = "2014-11-03 12:32:19 +0000";
layers = (
{
anchors = (
{
name = bottom;
position = "{407, 0}";
},
{
name = top;
position = "{375, 660}";
}
);
layerId = "4A17B37A-CBFD-40E5-9E02-2080A0E1F76C";
leftMetricsKey = "=O";
name = Regular;
paths = (
{
closed = 1;
nodes = (
"193 670 OFFCURVE",
"70 539 OFFCURVE",
"70 330 CURVE SMOOTH",
"70 121 OFFCURVE",
"188 -10 OFFCURVE",
"376 -10 CURVE SMOOTH",
"537 -10 OFFCURVE",
"620 85 OFFCURVE",
"620 224 CURVE",
"576 235 LINE",
"576 121 OFFCURVE",
"489 65 OFFCURVE",
"379 65 CURVE SMOOTH",
"232 65 OFFCURVE",
"154 164 OFFCURVE",
"154 330 CURVE SMOOTH",
"154 496 OFFCURVE",
"244 595 OFFCURVE",
"378 595 CURVE SMOOTH",
"470 595 OFFCURVE",
"540 555 OFFCURVE",
"569 479 CURVE",
"642 519 LINE",
"591 621 OFFCURVE",
"509 670 OFFCURVE",
"378 670 CURVE SMOOTH"
);
},
{
closed = 1;
nodes = (
"647 143 LINE",
"647 164 LINE",
"647 333 LINE",
"576 333 LINE",
"576 166 LINE",
"584 143 LINE",
"589 0 LINE",
"647 0 LINE"
);
},
{
closed = 1;
nodes = (
"364 258 LINE",
"647 258 LINE",
"647 333 LINE",
"364 333 LINE"
);
}
);
width = 711;
},
{
anchors = (
{
name = bottom;
position = "{379, 0}";
},
{
name = top;
position = "{364, 660}";
}
);
layerId = "99EB5860-B45A-4B60-BB0B-F826C8F71D42";
name = Bold;
paths = (
{
closed = 1;
nodes = (
"156 670 OFFCURVE",
"29 544 OFFCURVE",
"29 328 CURVE SMOOTH",
"29 103 OFFCURVE",
"165 -10 OFFCURVE",
"336 -10 CURVE SMOOTH",
"486 -10 OFFCURVE",
"549 79 OFFCURVE",
"549 228 CURVE",
"482 228 LINE",
"482 181 OFFCURVE",
"444 159 OFFCURVE",
"387 159 CURVE SMOOTH",
"306 159 OFFCURVE",
"267 205 OFFCURVE",
"267 330 CURVE SMOOTH",
"267 445 OFFCURVE",
"304 495 OFFCURVE",
"381 495 CURVE SMOOTH",
"425 495 OFFCURVE",
"457 470 OFFCURVE",
"466 411 CURVE",
"679 489 LINE",
"625 619 OFFCURVE",
"534 670 OFFCURVE",
"371 670 CURVE SMOOTH"
);
},
{
closed = 1;
nodes = (
"677 143 LINE",
"677 166 LINE",
"677 372 LINE",
"482 372 LINE",
"482 166 LINE",
"507 143 LINE",
"523 0 LINE",
"677 0 LINE"
);
},
{
closed = 1;
nodes = (
"371 229 LINE",
"677 229 LINE",
"677 372 LINE",
"371 372 LINE"
);
}
);
width = 722;
},
{
anchors = (
{
name = bottom;
position = "{392, 0}";
},
{
name = top;
position = "{344, 660}";
}
);
layerId = "1C7CD022-87C7-4E11-B656-E47B18819458";
name = Light;
paths = (
{
closed = 1;
nodes = (
"174 670 OFFCURVE",
"57 539 OFFCURVE",
"57 330 CURVE SMOOTH",
"57 121 OFFCURVE",
"171 -10 OFFCURVE",
"346 -10 CURVE SMOOTH",
"512 -10 OFFCURVE",
"603 85 OFFCURVE",
"603 228 CURVE",
"595 244 LINE",
"595 157 OFFCURVE",
"546 4 OFFCURVE",
"346 4 CURVE SMOOTH",
"181 4 OFFCURVE",
"73 130 OFFCURVE",
"73 330 CURVE SMOOTH",
"73 530 OFFCURVE",
"184 656 OFFCURVE",
"350 656 CURVE SMOOTH",
"480 656 OFFCURVE",
"559 601 OFFCURVE",
"592 489 CURVE",
"606 496 LINE",
"573 612 OFFCURVE",
"489 670 OFFCURVE",
"350 670 CURVE SMOOTH"
);
},
{
closed = 1;
nodes = (
"611 208 LINE",
"611 213 LINE",
"611 304 LINE",
"595 304 LINE",
"595 213 LINE",
"595 208 LINE",
"595 0 LINE",
"611 0 LINE"
);
},
{
closed = 1;
nodes = (
"354 297 LINE",
"611 297 LINE",
"611 311 LINE",
"354 311 LINE"
);
}
);
width = 664;
},
{
associatedMasterId = "4A17B37A-CBFD-40E5-9E02-2080A0E1F76C";
background = {
paths = (
{
closed = 1;
nodes = (
"179 670 OFFCURVE",
"54 541 OFFCURVE",
"54 329 CURVE SMOOTH",
"54 114 OFFCURVE",
"179 -10 OFFCURVE",
"360 -10 CURVE SMOOTH",
"517 -10 OFFCURVE",
"593 83 OFFCURVE",
"593 226 CURVE",
"540 232 LINE",
"540 144 OFFCURVE",
"471 101 OFFCURVE",
"382 101 CURVE SMOOTH",
"260 101 OFFCURVE",
"197 180 OFFCURVE",
"197 330 CURVE SMOOTH",
"197 477 OFFCURVE",
"266 557 OFFCURVE",
"379 557 CURVE SMOOTH",
"452 557 OFFCURVE",
"508 523 OFFCURVE",
"529 453 CURVE",
"656 508 LINE",
"604 620 OFFCURVE",
"518 670 OFFCURVE",
"375 670 CURVE SMOOTH"
);
},
{
closed = 1;
nodes = (
"658 143 LINE",
"658 165 LINE",
"658 348 LINE",
"540 348 LINE",
"540 166 LINE",
"554 143 LINE",
"564 0 LINE",
"658 0 LINE"
);
},
{
closed = 1;
nodes = (
"367 247 LINE",
"659 247 LINE",
"659 348 LINE",
"367 348 LINE"
);
}
);
};
layerId = "B511938B-E5A4-40C3-ACD2-DC5D9FF176EF";
leftMetricsKey = "=O";
name = "Regular {137, 5}";
paths = (
{
closed = 1;
nodes = (
"179 670 OFFCURVE",
"54 541 OFFCURVE",
"54 329 CURVE SMOOTH",
"54 114 OFFCURVE",
"179 -10 OFFCURVE",
"360 -10 CURVE SMOOTH",
"517 -10 OFFCURVE",
"593 83 OFFCURVE",
"593 226 CURVE",
"540 232 LINE",
"540 144 OFFCURVE",
"471 101 OFFCURVE",
"382 101 CURVE SMOOTH",
"260 101 OFFCURVE",
"197 180 OFFCURVE",
"197 330 CURVE SMOOTH",
"197 477 OFFCURVE",
"266 557 OFFCURVE",
"379 557 CURVE SMOOTH",
"452 557 OFFCURVE",
"508 523 OFFCURVE",
"529 453 CURVE",
"656 508 LINE",
"604 620 OFFCURVE",
"518 670 OFFCURVE",
"375 670 CURVE SMOOTH"
);
},
{
closed = 1;
nodes = (
"658.5 143 LINE",
"658.5 165 LINE",
"659 349 LINE",
"540 349 LINE",
"540 166 LINE",
"552 143 LINE",
"558 0 LINE",
"658.5 0 LINE"
);
},
{
closed = 1;
nodes = (
"347 247 LINE",
"659 247 LINE",
"659 349 LINE",
"347 349 LINE"
);
}
);
width = 709;
}
);
leftKerningGroup = O;
leftMetricsKey = O;
rightKerningGroup = G;
unicode = 0047;
},
{
glyphname = H;
lastChange = "2014-11-03 12:32:29 +0000";
layers = (
{
layerId = "4A17B37A-CBFD-40E5-9E02-2080A0E1F76C";
leftMetricsKey = "=I";
rightMetricsKey = "=I";
name = Regular;
paths = (
{
closed = 1;
nodes = (
"548 660 LINE",
"548 0 LINE",
"628 0 LINE",
"628 660 LINE"
);
},
{
closed = 1;
nodes = (
"110 660 LINE",
"110 0 LINE",
"190 0 LINE",
"190 660 LINE"
);
},
{
closed = 1;
nodes = (
"152 372 LINE",
"152 297 LINE",
"585 297 LINE",
"585 372 LINE"
);
}
);
width = 738;
},
{
layerId = "99EB5860-B45A-4B60-BB0B-F826C8F71D42";
name = Bold;
paths = (
{
closed = 1;
nodes = (
"464 660 LINE",
"464 0 LINE",
"697 0 LINE",
"697 660 LINE"
);
},
{
closed = 1;
nodes = (
"50 660 LINE",
"50 0 LINE",
"283 0 LINE",
"283 660 LINE"
);
},
{
closed = 1;
nodes = (
"162 417 LINE",
"162 246 LINE",
"593 246 LINE",
"593 417 LINE"
);
}
);
width = 747;
},
{
layerId = "1C7CD022-87C7-4E11-B656-E47B18819458";
name = Light;
paths = (
{
closed = 1;
nodes = (
"582 660 LINE",
"582 0 LINE",
"598 0 LINE",
"598 660 LINE"
);
},
{
closed = 1;
nodes = (
"100 660 LINE",
"100 0 LINE",
"116 0 LINE",
"116 660 LINE"
);
},
{
closed = 1;
nodes = (
"108 344 LINE",
"108 330 LINE",
"591 330 LINE",
"591 344 LINE"
);
}
);
width = 698;
}
);
leftKerningGroup = I;
leftMetricsKey = I;
rightKerningGroup = I;
rightMetricsKey = I;
unicode = 0048;
},
{
glyphname = I;
lastChange = "2014-11-03 12:32:20 +0000";
layers = (
{
anchors = (
{
name = ogonek;
position = "{190, 0}";
},
{
name = top;
position = "{150, 660}";
}
);
layerId = "4A17B37A-CBFD-40E5-9E02-2080A0E1F76C";
name = Regular;
paths = (
{
closed = 1;
nodes = (
"110 660 LINE",
"110 0 LINE",
"190 0 LINE",
"190 660 LINE"
);
}
);
width = 300;
},
{
anchors = (
{
name = ogonek;
position = "{283, 0}";
},
{
name = top;
position = "{166, 660}";
}
);
layerId = "99EB5860-B45A-4B60-BB0B-F826C8F71D42";
name = Bold;
paths = (
{
closed = 1;
nodes = (
"50 660 LINE",
"50 0 LINE",
"283 0 LINE",
"283 660 LINE"
);
}
);
width = 333;
},
{
anchors = (
{
name = ogonek;
position = "{116, 0}";
},
{
name = top;
position = "{108, 660}";
}
);
layerId = "1C7CD022-87C7-4E11-B656-E47B18819458";
name = Light;
paths = (
{
closed = 1;
nodes = (
"100 660 LINE",
"100 0 LINE",
"116 0 LINE",
"116 660 LINE"
);
}
);
width = 216;
}
);
leftKerningGroup = I;
rightKerningGroup = I;
unicode = 0049;
},
{
glyphname = Idieresis;
lastChange = "2014-11-03 12:32:22 +0000";
layers = (
{
components = (
{
name = I;
transform = "{1, 0, 0, 1, 0, 0}";
}
);
layerId = "4A17B37A-CBFD-40E5-9E02-2080A0E1F76C";
name = Regular;
paths = (
{
closed = 1;
nodes = (
"30 866 OFFCURVE",
"7 843 OFFCURVE",
"7 809 CURVE SMOOTH",
"7 775 OFFCURVE",
"30 752 OFFCURVE",
"64 752 CURVE SMOOTH",
"98 752 OFFCURVE",
"121 775 OFFCURVE",
"121 809 CURVE SMOOTH",
"121 843 OFFCURVE",
"98 866 OFFCURVE",
"64 866 CURVE SMOOTH"
);
},
{
closed = 1;
nodes = (
"202 866 OFFCURVE",
"179 843 OFFCURVE",
"179 809 CURVE SMOOTH",
"179 775 OFFCURVE",
"202 752 OFFCURVE",
"236 752 CURVE SMOOTH",
"270 752 OFFCURVE",
"293 775 OFFCURVE",
"293 809 CURVE SMOOTH",
"293 843 OFFCURVE",
"270 866 OFFCURVE",
"236 866 CURVE SMOOTH"
);
}
);
width = 300;
},
{
components = (
{
name = I;
transform = "{1, 0, 0, 1, 0, 0}";
}
);
layerId = "99EB5860-B45A-4B60-BB0B-F826C8F71D42";
name = Bold;
paths = (
{
closed = 1;
nodes = (
"6 883 OFFCURVE",
"-26 849 OFFCURVE",
"-26 789 CURVE SMOOTH",
"-26 729 OFFCURVE",
"6 695 OFFCURVE",
"62 695 CURVE SMOOTH",
"120 695 OFFCURVE",
"154 729 OFFCURVE",
"154 789 CURVE SMOOTH",
"154 849 OFFCURVE",
"120 883 OFFCURVE",
"62 883 CURVE SMOOTH"
);
},
{
closed = 1;
nodes = (
"212 883 OFFCURVE",
"180 849 OFFCURVE",
"180 789 CURVE SMOOTH",
"180 729 OFFCURVE",
"212 695 OFFCURVE",
"268 695 CURVE SMOOTH",
"326 695 OFFCURVE",
"360 729 OFFCURVE",
"360 789 CURVE SMOOTH",
"360 849 OFFCURVE",
"326 883 OFFCURVE",
"268 883 CURVE SMOOTH"
);
}
);
width = 333;
},
{
components = (
{
name = I;
transform = "{1, 0, 0, 1, 10, 0}";
}
);
layerId = "1C7CD022-87C7-4E11-B656-E47B18819458";
name = Light;
paths = (
{
closed = 1;
nodes = (
"45 812 OFFCURVE",
"34 801 OFFCURVE",
"34 787 CURVE SMOOTH",
"34 773 OFFCURVE",
"45 762 OFFCURVE",
"59 762 CURVE SMOOTH",
"73 762 OFFCURVE",
"84 773 OFFCURVE",
"84 787 CURVE SMOOTH",
"84 801 OFFCURVE",
"73 812 OFFCURVE",
"59 812 CURVE SMOOTH"
);
},
{
closed = 1;
nodes = (
"163 812 OFFCURVE",
"152 801 OFFCURVE",
"152 787 CURVE SMOOTH",
"152 773 OFFCURVE",
"163 762 OFFCURVE",
"177 762 CURVE SMOOTH",
"191 762 OFFCURVE",
"202 773 OFFCURVE",
"202 787 CURVE SMOOTH",
"202 801 OFFCURVE",
"191 812 OFFCURVE",
"177 812 CURVE SMOOTH"
);
}
);
width = 236;
}
);
leftKerningGroup = I;
rightKerningGroup = I;
unicode = 00CF;
},
{
glyphname = Iogonek;
lastChange = "2014-11-03 12:32:26 +0000";
layers = (
{
components = (
{
name = I;
transform = "{1, 0, 0, 1, 0, 0}";
}
);
layerId = "4A17B37A-CBFD-40E5-9E02-2080A0E1F76C";
name = Regular;
paths = (
{
closed = 1;
nodes = (
"144 21 LINE",
"58 -8 OFFCURVE",
"19 -60 OFFCURVE",
"19 -117 CURVE SMOOTH",
"19 -177 OFFCURVE",
"64 -215 OFFCURVE",
"135 -215 CURVE SMOOTH",
"172 -215 OFFCURVE",
"198 -208 OFFCURVE",
"220 -193 CURVE",
"201 -142 LINE",
"185 -153 OFFCURVE",
"167 -157 OFFCURVE",
"142 -157 CURVE SMOOTH",
"103 -157 OFFCURVE",
"83 -138 OFFCURVE",
"83 -103 CURVE SMOOTH",
"83 -74 OFFCURVE",
"103 -40 OFFCURVE",
"190 0 CURVE"
);
}
);
width = 300;
},
{
components = (
{
name = I;
transform = "{1, 0, 0, 1, 0, 0}";
}
);
layerId = "99EB5860-B45A-4B60-BB0B-F826C8F71D42";
name = Bold;
paths = (
{
closed = 1;
nodes = (
"196 32 LINE",
"94 26 OFFCURVE",
"21 -17 OFFCURVE",
"21 -96 CURVE SMOOTH",
"21 -180 OFFCURVE",
"90 -215 OFFCURVE",
"173 -215 CURVE SMOOTH",
"223 -215 OFFCURVE",
"259 -209 OFFCURVE",
"291 -189 CURVE",
"264 -86 LINE",
"254 -92 OFFCURVE",
"239 -94 OFFCURVE",
"224 -94 CURVE SMOOTH",
"193 -94 OFFCURVE",
"175 -80 OFFCURVE",
"175 -56 CURVE SMOOTH",
"175 -25 OFFCURVE",
"203 -5 OFFCURVE",
"288 0 CURVE"
);
}
);
width = 333;
},
{
components = (
{
name = I;
transform = "{1, 0, 0, 1, 0, 0}";
}
);
layerId = "1C7CD022-87C7-4E11-B656-E47B18819458";
name = Light;
paths = (
{
closed = 1;
nodes = (
"104 7 LINE",
"30 -43 OFFCURVE",
"3 -74 OFFCURVE",
"3 -120 CURVE SMOOTH",
"3 -172 OFFCURVE",
"44 -202 OFFCURVE",
"88 -202 CURVE SMOOTH",
"115 -202 OFFCURVE",
"131 -195 OFFCURVE",
"152 -180 CURVE",
"146 -167 LINE",
"128 -182 OFFCURVE",
"114 -188 OFFCURVE",
"88 -188 CURVE SMOOTH",
"52 -188 OFFCURVE",
"18 -163 OFFCURVE",
"18 -120 CURVE SMOOTH",
"18 -77 OFFCURVE",
"44 -50 OFFCURVE",
"116 0 CURVE"
);
}
);
width = 226;
}
);
leftKerningGroup = I;
rightKerningGroup = I;
unicode = 012E;
},
{
glyphname = J;
lastChange = "2014-11-03 12:32:30 +0000";
layers = (
{
layerId = "4A17B37A-CBFD-40E5-9E02-2080A0E1F76C";
rightMetricsKey = "=U";
name = Regular;
paths = (
{
closed = 1;
nodes = (
"387 660 LINE",
"387 246 LINE SMOOTH",
"387 128 OFFCURVE",
"353 65 OFFCURVE",
"240 65 CURVE SMOOTH",
"140 65 OFFCURVE",
"108 120 OFFCURVE",
"123 233 CURVE",
"49 218 LINE",
"23 79 OFFCURVE",
"95 -10 OFFCURVE",
"243 -10 CURVE SMOOTH",
"383 -10 OFFCURVE",
"466 78 OFFCURVE",
"466 226 CURVE SMOOTH",
"467 660 LINE"
);
}
);
width = 577;
},
{
layerId = "99EB5860-B45A-4B60-BB0B-F826C8F71D42";
rightMetricsKey = "=I";
name = Bold;
paths = (
{
closed = 1;
nodes = (
"389 660 LINE",
"389 289 LINE SMOOTH",
"389 201 OFFCURVE",
"368 165 OFFCURVE",
"323 165 CURVE SMOOTH",
"268 165 OFFCURVE",
"245 204 OFFCURVE",
"262 329 CURVE",
"29 290 LINE",
"-2 118 OFFCURVE",
"78 -10 OFFCURVE",
"308 -10 CURVE SMOOTH",
"509 -10 OFFCURVE",
"618 89 OFFCURVE",
"619 255 CURVE SMOOTH",
"622 660 LINE"
);
}
);
width = 672;
},
{
layerId = "1C7CD022-87C7-4E11-B656-E47B18819458";
name = Light;
paths = (
{
closed = 1;
nodes = (
"408 660 LINE",
"408 209 LINE SMOOTH",
"408 84 OFFCURVE",
"348 4 OFFCURVE",
"230 4 CURVE SMOOTH",
"110 4 OFFCURVE",
"48 76 OFFCURVE",
"66 208 CURVE",
"50 200 LINE",
"32 74 OFFCURVE",
"98 -10 OFFCURVE",
"230 -10 CURVE SMOOTH",
"358 -10 OFFCURVE",
"424 75 OFFCURVE",
"424 209 CURVE SMOOTH",
"424 660 LINE"
);
}
);
width = 524;
}
);
leftKerningGroup = J;
rightKerningGroup = U;
rightMetricsKey = U;
unicode = 004A;
},
{
glyphname = K;
lastChange = "2014-11-03 12:32:22 +0000";
layers = (
{
anchors = (
{
name = bottom;
position = "{375, 0}";
},
{
name = top;
position = "{355, 660}";
}
);
layerId = "4A17B37A-CBFD-40E5-9E02-2080A0E1F76C";
leftMetricsKey = "=I";
name = Regular;
paths = (
{
closed = 1;
nodes = (
"522 660 LINE",
"150 279 LINE",
"150 171 LINE",
"327 352 LINE",
"339 365 LINE",
"627 660 LINE"
);
},
{
closed = 1;
nodes = (
"110 660 LINE",
"110 0 LINE",
"190 0 LINE",
"190 660 LINE"
);
},
{
closed = 1;
nodes = (
"281 371 LINE",
"534 0 LINE",
"630 0 LINE",
"347 416 LINE"
);
}
);
width = 669;
},
{
anchors = (
{
name = bottom;
position = "{356, 0}";
},
{
name = top;
position = "{359, 660}";
}
);
layerId = "99EB5860-B45A-4B60-BB0B-F826C8F71D42";
name = Bold;
paths = (
{
closed = 1;
nodes = (
"455 660 LINE",
"170 253 LINE",
"224 92 LINE",
"369 290 LINE",
"379 239 LINE",
"703 660 LINE"
);
},
{
closed = 1;
nodes = (
"50 660 LINE",
"50 0 LINE",
"283 0 LINE",
"283 660 LINE"
);
},
{
closed = 1;
nodes = (
"296 330 LINE",
"460 0 LINE",
"721 0 LINE",
"467 459 LINE"
);
}
);
width = 717;
},
{
anchors = (
{
name = bottom;
position = "{320, 0}";
},
{
name = top;
position = "{320, 660}";
}
);
layerId = "1C7CD022-87C7-4E11-B656-E47B18819458";
name = Light;
paths = (
{
closed = 1;
nodes = (
"512 660 LINE",
"107 248 LINE",
"107 225 LINE",
"269 389 LINE",
"271 391 LINE",
"535 660 LINE"
);
},
{
closed = 1;
nodes = (
"100 660 LINE",
"100 0 LINE",
"116 0 LINE",
"116 660 LINE"
);
},
{
closed = 1;
nodes = (
"260 390 LINE",
"524 0 LINE",
"545 0 LINE",
"271 404 LINE"
);
}
);
width = 569;
}
);
leftKerningGroup = I;
leftMetricsKey = I;
rightKerningGroup = K;
unicode = 004B;
},
{
glyphname = L;
lastChange = "2014-11-03 12:32:29 +0000";
layers = (
{
anchors = (
{
name = bottom;
position = "{364, 0}";
},
{
name = top;
position = "{150, 660}";
},
{
name = topright;
position = "{302, 700}";
}
);
layerId = "4A17B37A-CBFD-40E5-9E02-2080A0E1F76C";
leftMetricsKey = "=I";
rightMetricsKey = "=E-30";
name = Regular;
paths = (
{
closed = 1;
nodes = (
"110 660 LINE",
"110 0 LINE",
"190 0 LINE",
"190 660 LINE"
);
},
{
closed = 1;
nodes = (
"152 75 LINE",
"152 0 LINE",
"568 0 LINE",
"568 75 LINE"
);
}
);
width = 597;
},
{
anchors = (
{
name = bottom;
position = "{318, 0}";
},
{
name = top;
position = "{166, 660}";
},
{
name = topright;
position = "{388, 701}";
}
);
layerId = "99EB5860-B45A-4B60-BB0B-F826C8F71D42";
name = Bold;
paths = (
{
closed = 1;
nodes = (
"50 660 LINE",
"50 0 LINE",
"283 0 LINE",
"283 660 LINE"
);
},
{
closed = 1;
nodes = (
"162 171 LINE",
"162 0 LINE",
"581 0 LINE",
"582 171 LINE"
);
}
);
width = 605;
},
{
anchors = (
{
name = bottom;
position = "{332, 0}";
},
{
name = top;
position = "{108, 660}";
},
{
name = topright;
position = "{244, 700}";
}
);
layerId = "1C7CD022-87C7-4E11-B656-E47B18819458";
name = Light;
paths = (
{
closed = 1;
nodes = (
"100 660 LINE",
"100 0 LINE",
"116 0 LINE",
"116 660 LINE"
);
},
{
closed = 1;
nodes = (
"106 14 LINE",
"106 0 LINE",
"532 0 LINE",
"532 14 LINE"
);
}
);
width = 533;
}
);
leftKerningGroup = I;
leftMetricsKey = I;
rightKerningGroup = L;
unicode = 004C;
},
{
glyphname = Lslash;
lastChange = "2014-11-03 12:32:32 +0000";
layers = (
{
components = (
{
name = L;
transform = "{1, 0, 0, 1, 0, 0}";
}
);
layerId = "4A17B37A-CBFD-40E5-9E02-2080A0E1F76C";
name = Regular;
paths = (
{
closed = 1;
nodes = (
"3 279 LINE",
"3 196 LINE",
"365 398 LINE",
"365 481 LINE"
);
}
);
width = 597;
},
{
components = (
{
name = L;
transform = "{1, 0, 0, 1, 50, 0}";
}
);
layerId = "99EB5860-B45A-4B60-BB0B-F826C8F71D42";
name = Bold;
paths = (
{
closed = 1;
nodes = (
"-14 299 LINE",
"-14 146 LINE",
"499 372 LINE",
"499 525 LINE"
);
}
);
width = 655;
},
{
components = (
{
name = L;
transform = "{1, 0, 0, 1, 0, 0}";
}
);
layerId = "1C7CD022-87C7-4E11-B656-E47B18819458";
name = Light;
paths = (
{
closed = 1;
nodes = (
"-1 232 LINE",
"-1 212 LINE",
"324 419 LINE",
"324 439 LINE"
);
}
);
width = 533;
}
);
leftKerningGroup = Lslash;
rightKerningGroup = L;
rightMetricsKey = L;
unicode = 0141;
},
{
glyphname = M;
lastChange = "2014-11-03 12:32:22 +0000";
layers = (
{
layerId = "4A17B37A-CBFD-40E5-9E02-2080A0E1F76C";
leftMetricsKey = "=I";
rightMetricsKey = "=I";
name = Regular;
paths = (
{
closed = 1;
nodes = (
"625 660 LINE",
"481 258 LINE",
"430 94 LINE",
"428 94 LINE",
"379 259 LINE",
"233 660 LINE",
"110 660 LINE",
"110 0 LINE",
"186 0 LINE",
"186 415 LINE",
"177 589 LINE",
"178 589 LINE",
"233 435 LINE",
"395 0 LINE",
"463 0 LINE",
"624 435 LINE",
"680 589 LINE",
"681 589 LINE",
"672 415 LINE",
"672 0 LINE",
"748 0 LINE",
"748 660 LINE"
);
}
);
width = 858;
},
{
layerId = "99EB5860-B45A-4B60-BB0B-F826C8F71D42";
leftMetricsKey = "=I";
rightMetricsKey = "=I";
name = Bold;
paths = (
{
closed = 1;
nodes = (
"588 660 LINE",
"512 367 LINE",
"483 244 LINE",
"481 244 LINE",
"452 367 LINE",
"376 660 LINE",
"50 660 LINE",
"50 0 LINE",
"254 0 LINE",
"254 229 LINE",
"251 451 LINE",
"255 451 LINE",
"331 176 LINE",
"381 0 LINE",
"567 0 LINE",
"618 175 LINE",
"695 451 LINE",
"698 451 LINE",
"695 229 LINE",
"695 0 LINE",
"898 0 LINE",
"898 660 LINE"
);
}
);
width = 948;
},
{
layerId = "1C7CD022-87C7-4E11-B656-E47B18819458";
leftMetricsKey = "=I";
rightMetricsKey = "=I";
name = Light;
paths = (
{
closed = 1;
nodes = (
"667 660 LINE",
"406 47 LINE",
"394 19 LINE",
"394 19 LINE",
"382 48 LINE",
"121 660 LINE",
"100 660 LINE",
"100 0 LINE",
"116 0 LINE",
"116 580 LINE",
"116 637 LINE",
"116 637 LINE",
"129 600 LINE",
"384 0 LINE",
"404 0 LINE",
"659 600 LINE",
"672 637 LINE",
"672 637 LINE",
"672 580 LINE",
"672 0 LINE",
"688 0 LINE",
"688 660 LINE"
);
}
);
width = 788;
}
);
leftKerningGroup = I;
leftMetricsKey = i;
rightKerningGroup = I;
rightMetricsKey = l;
unicode = 004D;
},
{
glyphname = N;
lastChange = "2014-11-03 12:32:19 +0000";
layers = (
{
anchors = (
{
name = bottom;
position = "{399, 0}";
},
{
name = top;
position = "{373, 660}";
}
);
layerId = "4A17B37A-CBFD-40E5-9E02-2080A0E1F76C";
leftMetricsKey = "=I";
rightMetricsKey = "=I";
name = Regular;
paths = (
{
closed = 1;
nodes = (
"552 660 LINE",
"552 194 LINE",
"556 88 LINE",
"555 88 LINE",
"484 220 LINE",
"209 660 LINE",
"110 660 LINE",
"110 0 LINE",
"186 0 LINE",
"186 466 LINE",
"182 572 LINE",
"183 572 LINE",
"253 442 LINE",
"529 0 LINE",
"628 0 LINE",
"628 660 LINE"
);
}
);
width = 738;
},
{
anchors = (
{
name = bottom;
position = "{374, 0}";
},
{
name = top;
position = "{373, 660}";
}
);
layerId = "99EB5860-B45A-4B60-BB0B-F826C8F71D42";
name = Bold;
paths = (
{
closed = 1;
nodes = (
"494 660 LINE",
"494 415 LINE",
"499 279 LINE",
"496 279 LINE",
"458 359 LINE",
"302 660 LINE",
"50 660 LINE",
"50 0 LINE",
"252 0 LINE",
"252 245 LINE",
"247 381 LINE",
"250 381 LINE",
"288 300 LINE",
"444 0 LINE",
"696 0 LINE",
"696 660 LINE"
);
}
);
width = 746;
},
{
anchors = (
{
name = bottom;
position = "{348, 0}";
},
{
name = top;
position = "{354, 660}";
}
);
layerId = "1C7CD022-87C7-4E11-B656-E47B18819458";
name = Light;
paths = (
{
closed = 1;
nodes = (
"580 660 LINE",
"580 73 LINE",
"581 16 LINE",
"581 16 LINE",
"555 55 LINE",
"122 660 LINE",
"100 660 LINE",
"100 0 LINE",
"116 0 LINE",
"116 587 LINE",
"115 644 LINE",
"115 644 LINE",
"141 605 LINE",
"574 0 LINE",
"596 0 LINE",
"596 660 LINE"
);
}
);
width = 696;
}
);
leftKerningGroup = I;
leftMetricsKey = I;
rightKerningGroup = I;
rightMetricsKey = I;
unicode = 004E;
},
{
glyphname = O;
lastChange = "2014-11-03 12:32:23 +0000";
layers = (
{
anchors = (
{
name = top;
position = "{376, 660}";
}
);
layerId = "4A17B37A-CBFD-40E5-9E02-2080A0E1F76C";
name = Regular;
paths = (
{
closed = 1;
nodes = (
"188 670 OFFCURVE",
"70 539 OFFCURVE",
"70 330 CURVE SMOOTH",
"70 121 OFFCURVE",
"188 -10 OFFCURVE",
"376 -10 CURVE SMOOTH",
"564 -10 OFFCURVE",
"682 121 OFFCURVE",
"682 330 CURVE SMOOTH",
"682 539 OFFCURVE",
"564 670 OFFCURVE",
"376 670 CURVE SMOOTH"
);
},
{
closed = 1;
nodes = (
"513 595 OFFCURVE",
"598 496 OFFCURVE",
"598 330 CURVE SMOOTH",
"598 164 OFFCURVE",
"513 65 OFFCURVE",
"376 65 CURVE SMOOTH",
"239 65 OFFCURVE",
"154 164 OFFCURVE",
"154 330 CURVE SMOOTH",
"154 496 OFFCURVE",
"239 595 OFFCURVE",
"376 595 CURVE SMOOTH"
);
}
);
width = 752;
},
{
anchors = (
{
name = top;
position = "{365, 660}";
}
);
layerId = "99EB5860-B45A-4B60-BB0B-F826C8F71D42";
name = Bold;
paths = (
{
closed = 1;
nodes = (
"156 670 OFFCURVE",
"29 546 OFFCURVE",
"29 330 CURVE SMOOTH",
"29 114 OFFCURVE",
"156 -10 OFFCURVE",
"365 -10 CURVE SMOOTH",
"575 -10 OFFCURVE",
"700 114 OFFCURVE",
"700 330 CURVE SMOOTH",
"700 546 OFFCURVE",
"575 670 OFFCURVE",
"365 670 CURVE SMOOTH"
);
},
{
closed = 1;
nodes = (
"433 495 OFFCURVE",
"462 445 OFFCURVE",
"462 330 CURVE SMOOTH",
"462 215 OFFCURVE",
"433 165 OFFCURVE",
"365 165 CURVE SMOOTH",
"297 165 OFFCURVE",
"267 215 OFFCURVE",
"267 330 CURVE SMOOTH",
"267 445 OFFCURVE",
"297 495 OFFCURVE",
"365 495 CURVE SMOOTH"
);
}
);
width = 729;
},
{
anchors = (
{
name = top;
position = "{358, 660}";
}
);
layerId = "1C7CD022-87C7-4E11-B656-E47B18819458";
name = Light;
paths = (
{
closed = 1;
nodes = (
"173 670 OFFCURVE",
"57 539 OFFCURVE",
"57 330 CURVE SMOOTH",
"57 121 OFFCURVE",
"173 -10 OFFCURVE",
"358 -10 CURVE SMOOTH",
"543 -10 OFFCURVE",
"659 121 OFFCURVE",
"659 330 CURVE SMOOTH",
"659 539 OFFCURVE",
"543 670 OFFCURVE",
"358 670 CURVE SMOOTH"
);
},
{
closed = 1;
nodes = (
"533 656 OFFCURVE",
"643 530 OFFCURVE",
"643 330 CURVE SMOOTH",
"643 130 OFFCURVE",
"533 4 OFFCURVE",
"358 4 CURVE SMOOTH",
"183 4 OFFCURVE",
"73 130 OFFCURVE",
"73 330 CURVE SMOOTH",
"73 530 OFFCURVE",
"183 656 OFFCURVE",
"358 656 CURVE SMOOTH"
);
}
);
width = 716;
}
);
leftKerningGroup = O;
rightKerningGroup = O;
unicode = 004F;
},
{
color = 11;
glyphname = Oslash;
lastChange = "2014-11-03 12:32:30 +0000";
layers = (
{
components = (
{
name = O;
transform = "{1, 0, 0, 1, 0, 0}";
}
);
layerId = "1C7CD022-87C7-4E11-B656-E47B18819458";
name = Light;
paths = (
{
closed = 1;
nodes = (
"609 690 LINE",
"87 -30 LINE",
"107 -30 LINE",
"629 690 LINE"
);
}
);
width = 716;
},
{
components = (
{
name = O;
transform = "{1, 0, 0, 1, 0, 0}";
}
);
layerId = "4A17B37A-CBFD-40E5-9E02-2080A0E1F76C";
name = Regular;
paths = (
{
closed = 1;
nodes = (
"601 683 LINE",
"99 -37 LINE",
"170 -37 LINE",
"672 683 LINE"
);
}
);
width = 752;
},
{
components = (
{
name = O;
transform = "{1, 0, 0, 1, 0, 0}";
}
);
layerId = "99EB5860-B45A-4B60-BB0B-F826C8F71D42";
name = Bold;
paths = (
{
closed = 1;
nodes = (
"193 176 LINE",
"48 -21 LINE",
"144 -21 LINE",
"245 118 LINE"
);
},
{
closed = 1;
nodes = (
"532 482 LINE",
"679 680 LINE",
"584 680 LINE",
"483 541 LINE"
);
},
{
closed = 1;
nodes = (
"261 112 LINE",
"529 488 LINE",
"472 545 LINE",
"203 167 LINE"
);
}
);
width = 729;
},
{
associatedMasterId = "4A17B37A-CBFD-40E5-9E02-2080A0E1F76C";
components = (
{
name = O;
transform = "{1, 0, 0, 1, 0, 0}";
}
);
layerId = "72626F75-D2E3-475C-A68A-6B0C16A41883";
name = "Regular [106]";
paths = (
{
closed = 1;
nodes = (
"193 98 LINE",
"99 -37 LINE",
"170 -37 LINE",
"243 68 LINE"
);
},
{
closed = 1;
nodes = (
"576 546 LINE",
"672 683 LINE",
"601 683 LINE",
"533 586 LINE"
);
},
{
closed = 1;
nodes = (
"243 68 LINE",
"576 546 LINE",
"533 586 LINE",
"193 98 LINE"
);
}
);
width = 752;
}
);
leftKerningGroup = O;
leftMetricsKey = O;
rightKerningGroup = O;
rightMetricsKey = O;
unicode = 00D8;
},
{
glyphname = OE;
lastChange = "2014-11-03 12:32:26 +0000";
layers = (
{
anchors = (
{
name = top;
position = "{366, 660}";
}
);
layerId = "4A17B37A-CBFD-40E5-9E02-2080A0E1F76C";
leftMetricsKey = "=O";
rightMetricsKey = "=E";
name = Regular;
paths = (
{
closed = 1;
nodes = (
"184 670 OFFCURVE",
"70 539 OFFCURVE",
"70 330 CURVE SMOOTH",
"70 121 OFFCURVE",
"186 -10 OFFCURVE",
"374 -10 CURVE SMOOTH",
"538 -10 OFFCURVE",
"652 121 OFFCURVE",
"652 330 CURVE SMOOTH",
"652 539 OFFCURVE",
"542 670 OFFCURVE",
"378 670 CURVE SMOOTH"
);
},
{
closed = 1;
nodes = (
"503 595 OFFCURVE",
"588 496 OFFCURVE",
"588 330 CURVE SMOOTH",
"588 164 OFFCURVE",
"503 65 OFFCURVE",
"378 65 CURVE SMOOTH",
"235 65 OFFCURVE",
"154 164 OFFCURVE",
"154 330 CURVE SMOOTH",
"154 496 OFFCURVE",
"235 595 OFFCURVE",
"378 595 CURVE SMOOTH"
);
},
{
closed = 1;
nodes = (
"630 75 LINE",
"630 0 LINE",
"1030 0 LINE",
"1030 75 LINE"
);
},
{
closed = 1;
nodes = (
"588 660 LINE",
"588 0 LINE",
"661 0 LINE",
"661 660 LINE"
);
},
{
closed = 1;
nodes = (
"630 372 LINE",
"630 297 LINE",
"930 297 LINE",
"930 372 LINE"
);
},
{
closed = 1;
nodes = (
"630 660 LINE",
"630 585 LINE",
"1015 585 LINE",
"1015 660 LINE"
);
}
);
width = 1089;
},
{
anchors = (
{
name = top;
position = "{1012, 660}";
}
);
layerId = "99EB5860-B45A-4B60-BB0B-F826C8F71D42";
name = Bold;
paths = (
{
closed = 1;
nodes = (
"152 670 OFFCURVE",
"29 546 OFFCURVE",
"29 330 CURVE SMOOTH",
"29 114 OFFCURVE",
"152 -10 OFFCURVE",
"342 -10 CURVE SMOOTH",
"550 -10 OFFCURVE",
"642 162 OFFCURVE",
"642 330 CURVE SMOOTH",
"642 498 OFFCURVE",
"550 670 OFFCURVE",
"342 670 CURVE SMOOTH"
);
},
{
closed = 1;
nodes = (
"423 495 OFFCURVE",
"452 445 OFFCURVE",
"452 330 CURVE SMOOTH",
"452 215 OFFCURVE",
"423 165 OFFCURVE",
"355 165 CURVE SMOOTH",
"291 165 OFFCURVE",
"262 215 OFFCURVE",
"262 330 CURVE SMOOTH",
"262 445 OFFCURVE",
"291 495 OFFCURVE",
"355 495 CURVE SMOOTH"
);
},
{
closed = 1;
nodes = (
"565 171 LINE",
"565 0 LINE",
"1011 0 LINE",
"1013 171 LINE"
);
},
{
closed = 1;
nodes = (
"542 660 LINE",
"542 0 LINE",
"685 0 LINE",
"685 660 LINE"
);
},
{
closed = 1;
nodes = (
"565 407 LINE",
"565 249 LINE",
"939 249 LINE",
"938 407 LINE"
);
},
{
closed = 1;
nodes = (
"565 660 LINE",
"565 489 LINE",
"1000 489 LINE",
"999 660 LINE"
);
}
);
width = 1029;
},
{
layerId = "1C7CD022-87C7-4E11-B656-E47B18819458";
name = Light;
paths = (
{
closed = 1;
nodes = (
"168 670 OFFCURVE",
"57 539 OFFCURVE",
"57 330 CURVE SMOOTH",
"57 121 OFFCURVE",
"168 -10 OFFCURVE",
"338 -10 CURVE SMOOTH",
"526 -10 OFFCURVE",
"607 101 OFFCURVE",
"607 330 CURVE SMOOTH",
"607 559 OFFCURVE",
"526 670 OFFCURVE",
"338 670 CURVE SMOOTH"
);
},
{
closed = 1;
nodes = (
"518 656 OFFCURVE",
"593 550 OFFCURVE",
"593 330 CURVE SMOOTH",
"593 110 OFFCURVE",
"518 4 OFFCURVE",
"338 4 CURVE SMOOTH",
"178 4 OFFCURVE",
"73 130 OFFCURVE",
"73 330 CURVE SMOOTH",
"73 530 OFFCURVE",
"178 656 OFFCURVE",
"338 656 CURVE SMOOTH"
);
},
{
closed = 1;
nodes = (
"607 14 LINE",
"599 0 LINE",
"1021 0 LINE",
"1021 14 LINE"
);
},
{
closed = 1;
nodes = (
"593 660 LINE",
"593 0 LINE",
"609 0 LINE",
"609 660 LINE"
);
},
{
closed = 1;
nodes = (
"599 344 LINE",
"599 330 LINE",
"932 330 LINE",
"932 344 LINE"
);
},
{
closed = 1;
nodes = (
"599 660 LINE",
"599 646 LINE",
"1004 646 LINE",
"1004 660 LINE"
);
}
);
width = 1034;
}
);
leftKerningGroup = O;
leftMetricsKey = O;
rightKerningGroup = E;
rightMetricsKey = E;
unicode = 0152;
},
{
glyphname = P;
lastChange = "2014-11-03 12:32:23 +0000";
layers = (
{
layerId = "4A17B37A-CBFD-40E5-9E02-2080A0E1F76C";
leftMetricsKey = "=I";
name = Regular;
paths = (
{
closed = 1;
nodes = (
"150 660 LINE",
"150 585 LINE",
"331 585 LINE SMOOTH",
"435 585 OFFCURVE",
"481 541 OFFCURVE",
"481 459 CURVE SMOOTH",
"481 377 OFFCURVE",
"435 333 OFFCURVE",
"331 333 CURVE SMOOTH",
"150 333 LINE",
"150 258 LINE",
"343 258 LINE SMOOTH",
"476 258 OFFCURVE",
"565 335 OFFCURVE",
"565 459 CURVE SMOOTH",
"565 583 OFFCURVE",
"476 660 OFFCURVE",
"343 660 CURVE SMOOTH"
);
},
{
closed = 1;
nodes = (
"110 660 LINE",
"110 0 LINE",
"190 0 LINE",
"190 660 LINE"
);
}
);
width = 594;
},
{
layerId = "99EB5860-B45A-4B60-BB0B-F826C8F71D42";
name = Bold;
paths = (
{
closed = 1;
nodes = (
"218 660 LINE",
"218 494 LINE",
"362 494 LINE SMOOTH",
"419 494 OFFCURVE",
"444 475 OFFCURVE",
"444 432 CURVE SMOOTH",
"444 389 OFFCURVE",
"419 370 OFFCURVE",
"362 370 CURVE SMOOTH",
"218 370 LINE",
"218 210 LINE",
"400 210 LINE SMOOTH",
"584 210 OFFCURVE",
"677 287 OFFCURVE",
"677 429 CURVE SMOOTH",
"677 583 OFFCURVE",
"584 660 OFFCURVE",
"400 660 CURVE SMOOTH"
);
},
{
closed = 1;
nodes = (
"50 660 LINE",
"50 0 LINE",
"283 0 LINE",
"283 660 LINE"
);
}
);
width = 706;
},
{
layerId = "1C7CD022-87C7-4E11-B656-E47B18819458";
name = Light;
paths = (
{
closed = 1;
nodes = (
"108 660 LINE",
"108 646 LINE",
"304 646 LINE SMOOTH",
"435 646 OFFCURVE",
"513 582 OFFCURVE",
"513 475 CURVE SMOOTH",
"513 368 OFFCURVE",
"435 305 OFFCURVE",
"304 305 CURVE SMOOTH",
"108 305 LINE",
"108 291 LINE",
"304 291 LINE SMOOTH",
"445 291 OFFCURVE",
"529 359 OFFCURVE",
"529 475 CURVE SMOOTH",
"529 591 OFFCURVE",
"445 660 OFFCURVE",
"304 660 CURVE SMOOTH"
);
},
{
closed = 1;
nodes = (
"100 660 LINE",
"100 0 LINE",
"116 0 LINE",
"116 660 LINE"
);
}
);
width = 575;
}
);
leftKerningGroup = I;
leftMetricsKey = I;
rightKerningGroup = P;
unicode = 0050;
},
{
glyphname = Thorn;
lastChange = "2014-11-03 12:32:23 +0000";
layers = (
{
layerId = "4A17B37A-CBFD-40E5-9E02-2080A0E1F76C";
leftMetricsKey = "=H";
rightMetricsKey = "=O";
name = Regular;
paths = (
{
closed = 1;
nodes = (
"150 542 LINE",
"150 467 LINE",
"337 467 LINE SMOOTH",
"441 467 OFFCURVE",
"491 425 OFFCURVE",
"491 337 CURVE SMOOTH",
"491 249 OFFCURVE",
"441 207 OFFCURVE",
"337 207 CURVE SMOOTH",
"150 207 LINE",
"150 132 LINE",
"329 132 LINE SMOOTH",
"493 132 OFFCURVE",
"575 206 OFFCURVE",
"575 337 CURVE SMOOTH",
"575 469 OFFCURVE",
"493 542 OFFCURVE",
"329 542 CURVE SMOOTH"
);
},
{
closed = 1;
nodes = (
"110 660 LINE",
"110 0 LINE",
"190 0 LINE",
"190 660 LINE"
);
}
);
width = 645;
},
{
layerId = "99EB5860-B45A-4B60-BB0B-F826C8F71D42";
leftMetricsKey = "=I";
name = Bold;
paths = (
{
closed = 1;
nodes = (
"166 571 LINE",
"166 406 LINE",
"342 406 LINE SMOOTH",
"400 406 OFFCURVE",
"429 385 OFFCURVE",
"428 337 CURVE SMOOTH",
"429 288 OFFCURVE",
"400 267 OFFCURVE",
"342 267 CURVE SMOOTH",
"166 267 LINE",
"166 103 LINE",
"395 103 LINE SMOOTH",
"566 103 OFFCURVE",
"667 182 OFFCURVE",
"666 337 CURVE SMOOTH",
"667 492 OFFCURVE",
"566 571 OFFCURVE",
"395 571 CURVE SMOOTH"
);
},
{
closed = 1;
nodes = (
"50 660 LINE",
"50 0 LINE",
"283 0 LINE",
"283 660 LINE"
);
}
);
width = 695;
},
{
layerId = "1C7CD022-87C7-4E11-B656-E47B18819458";
name = Light;
paths = (
{
closed = 1;
nodes = (
"109 525 LINE",
"109 511 LINE",
"304 511 LINE SMOOTH",
"442 511 OFFCURVE",
"512 453 OFFCURVE",
"512 340 CURVE SMOOTH",
"512 227 OFFCURVE",
"442 169 OFFCURVE",
"304 169 CURVE SMOOTH",
"109 169 LINE",
"109 155 LINE",
"295 155 LINE SMOOTH",
"449 155 OFFCURVE",
"528 218 OFFCURVE",
"528 340 CURVE SMOOTH",
"528 462 OFFCURVE",
"449 525 OFFCURVE",
"295 525 CURVE SMOOTH"
);
},
{
closed = 1;
nodes = (
"100 660 LINE",
"100 0 LINE",
"116 0 LINE",
"116 660 LINE"
);
}
);
width = 585;
}
);
leftKerningGroup = I;
leftMetricsKey = H;
rightKerningGroup = Thorn;
rightMetricsKey = O;
unicode = 00DE;
},
{
color = 11;
glyphname = Q;
lastChange = "2014-11-03 12:32:30 +0000";
layers = (
{
components = (
{
name = O;
transform = "{1, 0, 0, 1, 0, 0}";
}
);
layerId = "4A17B37A-CBFD-40E5-9E02-2080A0E1F76C";
leftMetricsKey = "=O";
rightMetricsKey = "=O";
name = Regular;
paths = (
{
closed = 1;
nodes = (
"336 20 LINE",
"334 -145 OFFCURVE",
"428 -193 OFFCURVE",
"534 -195 CURVE SMOOTH",
"583 -196 OFFCURVE",
"648 -179 OFFCURVE",
"680 -151 CURVE",
"654 -77 LINE",
"629 -100 OFFCURVE",
"585 -114 OFFCURVE",
"536 -114 CURVE SMOOTH",
"463 -114 OFFCURVE",
"401 -93 OFFCURVE",
"408 37 CURVE"
);
}
);
width = 752;
},
{
components = (
{
name = O;
transform = "{1, 0, 0, 1, 0, 0}";
}
);
guideLines = (
{
angle = 90;
position = "{692, 57}";
}
);
layerId = "99EB5860-B45A-4B60-BB0B-F826C8F71D42";
leftMetricsKey = "=O";
rightMetricsKey = "=O";
name = Bold;
paths = (
{
closed = 1;
nodes = (
"300 19 LINE",
"265 -99 OFFCURVE",
"323 -210 OFFCURVE",
"506 -210 CURVE SMOOTH",
"599 -210 OFFCURVE",
"656 -190 OFFCURVE",
"692 -160 CURVE",
"640 -1 LINE",
"612 -26 OFFCURVE",
"573 -40 OFFCURVE",
"514 -40 CURVE SMOOTH",
"447 -40 OFFCURVE",
"419 -23 OFFCURVE",
"433 28 CURVE"
);
}
);
width = 729;
},
{
associatedMasterId = "99EB5860-B45A-4B60-BB0B-F826C8F71D42";
background = {
components = (
{
name = O;
transform = "{1, 0, 0, 1, 0, 0}";
}
);
paths = (
{
closed = 1;
nodes = (
"336 20 LINE",
"334 -145 OFFCURVE",
"435 -193 OFFCURVE",
"531 -195 CURVE SMOOTH",
"598 -196 OFFCURVE",
"645 -179 OFFCURVE",
"680 -156 CURVE",
"655 -88 LINE",
"630 -111 OFFCURVE",
"585 -124 OFFCURVE",
"536 -124 CURVE SMOOTH",
"463 -124 OFFCURVE",
"400 -92 OFFCURVE",
"407 38 CURVE"
);
}
);
};
components = (
{
name = O;
transform = "{1, 0, 0, 1, 0, 0}";
}
);
guideLines = (
{
angle = 90;
position = "{701, 321}";
}
);
layerId = "BA07D6C1-303F-463F-809D-35A929BE9FE7";
leftMetricsKey = "=O";
rightMetricsKey = "=O";
name = "Bold [229]";
paths = (
{
closed = 1;
nodes = (
"306 19 LINE",
"272 -101 OFFCURVE",
"328 -209 OFFCURVE",
"507 -209 CURVE SMOOTH",
"598 -209 OFFCURVE",
"663 -190 OFFCURVE",
"700 -155 CURVE",
"648 -14 LINE",
"623 -36 OFFCURVE",
"578 -53 OFFCURVE",
"525 -53 CURVE SMOOTH",
"439 -53 OFFCURVE",
"408 -34 OFFCURVE",
"423 28 CURVE"
);
}
);
width = 729;
},
{
components = (
{
name = O;
transform = "{1, 0, 0, 1, 0, 0}";
}
);
layerId = "1C7CD022-87C7-4E11-B656-E47B18819458";
name = Light;
paths = (
{
closed = 1;
nodes = (
"356 -4 LINE",
"361 -126 OFFCURVE",
"434 -195 OFFCURVE",
"536 -195 CURVE SMOOTH",
"585 -195 OFFCURVE",
"622 -182 OFFCURVE",
"648 -157 CURVE",
"640 -144 LINE",
"614 -171 OFFCURVE",
"575 -181 OFFCURVE",
"536 -181 CURVE SMOOTH",
"441 -181 OFFCURVE",
"375 -120 OFFCURVE",
"370 -4 CURVE"
);
}
);
width = 705;
}
);
leftKerningGroup = O;
leftMetricsKey = O;
rightKerningGroup = O;
rightMetricsKey = o;
unicode = 0051;
},
{
glyphname = R;
lastChange = "2014-11-03 12:32:25 +0000";
layers = (
{
anchors = (
{
name = bottom;
position = "{367, 0}";
},
{
name = top;
position = "{324, 660}";
}
);
layerId = "4A17B37A-CBFD-40E5-9E02-2080A0E1F76C";
leftMetricsKey = "=I";
name = Regular;
paths = (
{
closed = 1;
nodes = (
"150 660 LINE",
"150 585 LINE",
"359 585 LINE SMOOTH",
"453 585 OFFCURVE",
"499 546 OFFCURVE",
"499 467 CURVE SMOOTH",
"499 388 OFFCURVE",
"453 349 OFFCURVE",
"359 349 CURVE SMOOTH",
"150 349 LINE",
"150 274 LINE",
"360 274 LINE SMOOTH",
"494 274 OFFCURVE",
"583 348 OFFCURVE",
"583 467 CURVE SMOOTH",
"583 586 OFFCURVE",
"494 660 OFFCURVE",
"360 660 CURVE SMOOTH"
);
},
{
closed = 1;
nodes = (
"110 660 LINE",
"110 0 LINE",
"190 0 LINE",
"190 660 LINE"
);
},
{
closed = 1;
nodes = (
"338 289 LINE",
"528 0 LINE",
"623 0 LINE",
"405 333 LINE"
);
}
);
width = 659;
},
{
anchors = (
{
name = bottom;
position = "{362, 0}";
},
{
name = top;
position = "{334, 660}";
}
);
layerId = "99EB5860-B45A-4B60-BB0B-F826C8F71D42";
name = Bold;
paths = (
{
closed = 1;
nodes = (
"208 660 LINE",
"208 494 LINE",
"361 494 LINE SMOOTH",
"420 494 OFFCURVE",
"442 477 OFFCURVE",
"442 433 CURVE SMOOTH",
"442 388 OFFCURVE",
"420 372 OFFCURVE",
"361 372 CURVE SMOOTH",
"208 372 LINE",
"208 219 LINE",
"408 219 LINE SMOOTH",
"584 219 OFFCURVE",
"675 293 OFFCURVE",
"675 439 CURVE SMOOTH",
"675 586 OFFCURVE",
"584 660 OFFCURVE",
"408 660 CURVE SMOOTH"
);
},
{
closed = 1;
nodes = (
"50 660 LINE",
"50 0 LINE",
"278 0 LINE",
"278 660 LINE"
);
},
{
closed = 1;
nodes = (
"305 289 LINE",
"459 0 LINE",
"712 0 LINE",
"506 323 LINE"
);
}
);
width = 705;
},
{
anchors = (
{
name = bottom;
position = "{347, 0}";
},
{
name = top;
position = "{294, 660}";
}
);
layerId = "1C7CD022-87C7-4E11-B656-E47B18819458";
name = Light;
paths = (
{
closed = 1;
nodes = (
"108 660 LINE",
"108 646 LINE",
"339 646 LINE SMOOTH",
"460 646 OFFCURVE",
"532 584 OFFCURVE",
"532 480 CURVE SMOOTH",
"532 376 OFFCURVE",
"460 314 OFFCURVE",
"339 314 CURVE SMOOTH",
"108 314 LINE",
"108 300 LINE",
"339 300 LINE SMOOTH",
"468 300 OFFCURVE",
"548 368 OFFCURVE",
"548 480 CURVE SMOOTH",
"548 592 OFFCURVE",
"468 660 OFFCURVE",
"339 660 CURVE SMOOTH"
);
},
{
closed = 1;
nodes = (
"100 660 LINE",
"100 0 LINE",
"116 0 LINE",
"116 660 LINE"
);
},
{
closed = 1;
nodes = (
"357 304 LINE",
"559 0 LINE",
"577 0 LINE",
"370 314 LINE"
);
}
);
width = 617;
}
);
leftKerningGroup = I;
leftMetricsKey = I;
rightKerningGroup = R;
unicode = 0052;
},
{
glyphname = S;
lastChange = "2014-11-03 12:32:19 +0000";
layers = (
{
anchors = (
{
name = bottom;
position = "{358, 0}";
},
{
name = top;
position = "{325, 660}";
}
);
layerId = "4A17B37A-CBFD-40E5-9E02-2080A0E1F76C";
name = Regular;
paths = (
{
closed = 1;
nodes = (
"166 670 OFFCURVE",
"73 580 OFFCURVE",
"73 474 CURVE SMOOTH",
"73 224 OFFCURVE",
"497 345 OFFCURVE",
"497 174 CURVE SMOOTH",
"497 103 OFFCURVE",
"429 65 OFFCURVE",
"327 65 CURVE SMOOTH",
"219 65 OFFCURVE",
"151 113 OFFCURVE",
"116 189 CURVE",
"47 133 LINE",
"93 51 OFFCURVE",
"185 -10 OFFCURVE",
"325 -10 CURVE SMOOTH",
"479 -10 OFFCURVE",
"580 65 OFFCURVE",
"580 178 CURVE SMOOTH",
"580 433 OFFCURVE",
"157 305 OFFCURVE",
"157 483 CURVE SMOOTH",
"157 546 OFFCURVE",
"215 595 OFFCURVE",
"320 595 CURVE SMOOTH",
"417 595 OFFCURVE",
"465 561 OFFCURVE",
"505 474 CURVE",
"574 530 LINE",
"523 622 OFFCURVE",
"440 670 OFFCURVE",
"319 670 CURVE SMOOTH"
);
}
);
width = 635;
},
{
anchors = (
{
name = bottom;
position = "{332, 0}";
},
{
name = top;
position = "{331, 660}";
}
);
layerId = "99EB5860-B45A-4B60-BB0B-F826C8F71D42";
name = Bold;
paths = (
{
closed = 1;
nodes = (
"138 670 OFFCURVE",
"28 578 OFFCURVE",
"28 443 CURVE SMOOTH",
"28 192 OFFCURVE",
"390 261 OFFCURVE",
"390 191 CURVE SMOOTH",
"390 174 OFFCURVE",
"373 161 OFFCURVE",
"317 161 CURVE SMOOTH",
"231 161 OFFCURVE",
"166 186 OFFCURVE",
"112 244 CURVE",
"10 83 LINE",
"91 24 OFFCURVE",
"167 -10 OFFCURVE",
"334 -10 CURVE SMOOTH",
"496 -10 OFFCURVE",
"629 63 OFFCURVE",
"629 203 CURVE SMOOTH",
"629 459 OFFCURVE",
"267 395 OFFCURVE",
"267 461 CURVE SMOOTH",
"267 483 OFFCURVE",
"297 499 OFFCURVE",
"344 499 CURVE SMOOTH",
"419 499 OFFCURVE",
"479 477 OFFCURVE",
"535 415 CURVE",
"641 565 LINE",
"548 646 OFFCURVE",
"463 670 OFFCURVE",
"337 670 CURVE SMOOTH"
);
}
);
width = 646;
},
{
anchors = (
{
name = bottom;
position = "{311, 0}";
},
{
name = top;
position = "{290, 660}";
}
);
layerId = "1C7CD022-87C7-4E11-B656-E47B18819458";
name = Light;
paths = (
{
closed = 1;
nodes = (
"147 670 OFFCURVE",
"60 586 OFFCURVE",
"60 492 CURVE SMOOTH",
"60 242 OFFCURVE",
"532 390 OFFCURVE",
"532 160 CURVE SMOOTH",
"532 60 OFFCURVE",
"433 4 OFFCURVE",
"309 4 CURVE SMOOTH",
"179 4 OFFCURVE",
"75 57 OFFCURVE",
"57 174 CURVE",
"42 166 LINE",
"64 45 OFFCURVE",
"171 -10 OFFCURVE",
"309 -10 CURVE SMOOTH",
"450 -10 OFFCURVE",
"548 60 OFFCURVE",
"548 160 CURVE SMOOTH",
"548 408 OFFCURVE",
"76 261 OFFCURVE",
"76 492 CURVE SMOOTH",
"76 584 OFFCURVE",
"161 656 OFFCURVE",
"295 656 CURVE SMOOTH",
"415 656 OFFCURVE",
"496 610 OFFCURVE",
"523 507 CURVE",
"536 517 LINE",
"505 623 OFFCURVE",
"420 670 OFFCURVE",
"295 670 CURVE SMOOTH"
);
}
);
width = 591;
},
{
anchors = (
{
name = bottom;
position = "{348, 0}";
},
{
name = top;
position = "{327, 660}";
}
);
associatedMasterId = "4A17B37A-CBFD-40E5-9E02-2080A0E1F76C";
background = {
anchors = (
{
name = top;
position = "{325, 660}";
},
{
name = bottom;
position = "{358, 0}";
}
);
paths = (
{
closed = 1;
nodes = (
"155 670 OFFCURVE",
"56 579 OFFCURVE",
"56 462 CURVE SMOOTH",
"56 212 OFFCURVE",
"456 313 OFFCURVE",
"456 180 CURVE SMOOTH",
"456 130 OFFCURVE",
"408 102 OFFCURVE",
"323 102 CURVE SMOOTH",
"224 102 OFFCURVE",
"157 141 OFFCURVE",
"115 210 CURVE",
"33 114 LINE",
"92 41 OFFCURVE",
"178 -10 OFFCURVE",
"328 -10 CURVE SMOOTH",
"486 -10 OFFCURVE",
"599 64 OFFCURVE",
"599 188 CURVE SMOOTH",
"599 443 OFFCURVE",
"199 339 OFFCURVE",
"199 475 CURVE SMOOTH",
"199 522 OFFCURVE",
"246 558 OFFCURVE",
"329 558 CURVE SMOOTH",
"418 558 OFFCURVE",
"470 529 OFFCURVE",
"516 452 CURVE",
"600 543 LINE",
"533 631 OFFCURVE",
"449 670 OFFCURVE",
"326 670 CURVE SMOOTH"
);
}
);
};
layerId = "E6066FFC-F517-4FF7-83CA-D0EDF3B9A130";
name = "Regular {137, 5}";
paths = (
{
closed = 1;
nodes = (
"155 670 OFFCURVE",
"56 579 OFFCURVE",
"56 462 CURVE SMOOTH",
"56 215 OFFCURVE",
"454 296 OFFCURVE",
"454 180 CURVE SMOOTH",
"454 130 OFFCURVE",
"408 102 OFFCURVE",
"323 102 CURVE SMOOTH",
"234 102 OFFCURVE",
"171 125 OFFCURVE",
"119 211 CURVE",
"37 113 LINE",
"93 33 OFFCURVE",
"178 -10 OFFCURVE",
"328 -10 CURVE SMOOTH",
"486 -10 OFFCURVE",
"599 64 OFFCURVE",
"599 188 CURVE SMOOTH",
"599 443 OFFCURVE",
"202 339 OFFCURVE",
"202 475 CURVE SMOOTH",
"202 522 OFFCURVE",
"244 556 OFFCURVE",
"327 556 CURVE SMOOTH",
"416 556 OFFCURVE",
"471 521 OFFCURVE",
"505 450 CURVE",
"600 543 LINE",
"533 631 OFFCURVE",
"449 670 OFFCURVE",
"326 670 CURVE SMOOTH"
);
}
);
width = 639;
}
);
leftKerningGroup = S;
rightKerningGroup = S;
unicode = 0053;
},
{
glyphname = T;
lastChange = "2014-11-03 12:32:22 +0000";
layers = (
{
anchors = (
{
name = bottom;
position = "{344, 0}";
},
{
name = center;
position = "{328, 330}";
},
{
name = top;
position = "{328, 660}";
}
);
layerId = "4A17B37A-CBFD-40E5-9E02-2080A0E1F76C";
name = Regular;
paths = (
{
closed = 1;
nodes = (
"288 660 LINE",
"288 0 LINE",
"368 0 LINE",
"368 660 LINE"
);
},
{
closed = 1;
nodes = (
"57 660 LINE",
"57 585 LINE",
"598 585 LINE",
"598 660 LINE"
);
}
);
width = 655;
},
{
anchors = (
{
name = bottom;
position = "{326, 0}";
},
{
name = center;
position = "{14, 14}";
},
{
name = top;
position = "{343, 660}";
}
);
layerId = "99EB5860-B45A-4B60-BB0B-F826C8F71D42";
name = Bold;
paths = (
{
closed = 1;
nodes = (
"227 660 LINE",
"227 0 LINE",
"460 0 LINE",
"460 660 LINE"
);
},
{
closed = 1;
nodes = (
"20 660 LINE",
"20 489 LINE",
"666 489 LINE",
"665 660 LINE"
);
}
);
width = 686;
},
{
anchors = (
{
name = bottom;
position = "{273, 0}";
},
{
name = center;
position = "{269, 371}";
},
{
name = top;
position = "{269, 660}";
}
);
layerId = "1C7CD022-87C7-4E11-B656-E47B18819458";
name = Light;
paths = (
{
closed = 1;
nodes = (
"261 653 LINE",
"261 0 LINE",
"277 0 LINE",
"277 653 LINE"
);
},
{
closed = 1;
nodes = (
"7 660 LINE",
"7 646 LINE",
"530 646 LINE",
"530 660 LINE"
);
}
);
width = 537;
}
);
leftKerningGroup = T;
rightKerningGroup = T;
unicode = 0054;
},
{
glyphname = U;
lastChange = "2014-11-03 12:32:28 +0000";
layers = (
{
anchors = (
{
name = ogonek;
position = "{449, 0}";
},
{
name = top;
position = "{369, 660}";
}
);
layerId = "4A17B37A-CBFD-40E5-9E02-2080A0E1F76C";
leftMetricsKey = "=I";
rightMetricsKey = "=I";
name = Regular;
paths = (
{
closed = 1;
nodes = (
"548 660 LINE",
"548 266 LINE SMOOTH",
"548 128 OFFCURVE",
"492 65 OFFCURVE",
"369 65 CURVE SMOOTH",
"246 65 OFFCURVE",
"190 128 OFFCURVE",
"190 266 CURVE SMOOTH",
"190 660 LINE",
"110 660 LINE",
"110 246 LINE SMOOTH",
"110 76 OFFCURVE",
"203 -10 OFFCURVE",
"369 -10 CURVE SMOOTH",
"536 -10 OFFCURVE",
"628 76 OFFCURVE",
"628 246 CURVE SMOOTH",
"628 660 LINE"
);
}
);
width = 738;
},
{
anchors = (
{
name = ogonek;
position = "{501, 10}";
},
{
name = top;
position = "{369, 660}";
}
);
layerId = "99EB5860-B45A-4B60-BB0B-F826C8F71D42";
leftMetricsKey = "=I";
rightMetricsKey = "=I";
name = Bold;
paths = (
{
closed = 1;
nodes = (
"455 660 LINE",
"455 266 LINE SMOOTH",
"455 199 OFFCURVE",
"425 165 OFFCURVE",
"369 165 CURVE SMOOTH",
"314 165 OFFCURVE",
"284 199 OFFCURVE",
"284 266 CURVE SMOOTH",
"284 660 LINE",
"50 660 LINE",
"50 284 LINE SMOOTH",
"50 87 OFFCURVE",
"156 -10 OFFCURVE",
"369 -10 CURVE SMOOTH",
"582 -10 OFFCURVE",
"688 87 OFFCURVE",
"688 284 CURVE SMOOTH",
"688 660 LINE"
);
}
);
width = 738;
},
{
anchors = (
{
name = ogonek;
position = "{437, 0}";
},
{
name = top;
position = "{349, 660}";
}
);
layerId = "1C7CD022-87C7-4E11-B656-E47B18819458";
name = Light;
paths = (
{
closed = 1;
nodes = (
"582 660 LINE",
"582 235 LINE SMOOTH",
"582 88 OFFCURVE",
"495 4 OFFCURVE",
"349 4 CURVE SMOOTH",
"203 4 OFFCURVE",
"116 88 OFFCURVE",
"116 235 CURVE SMOOTH",
"116 660 LINE",
"100 660 LINE",
"100 235 LINE SMOOTH",
"100 78 OFFCURVE",
"193 -10 OFFCURVE",
"349 -10 CURVE SMOOTH",
"505 -10 OFFCURVE",
"598 78 OFFCURVE",
"598 235 CURVE SMOOTH",
"598 660 LINE"
);
}
);
width = 698;
}
);
leftKerningGroup = U;
leftMetricsKey = H;
rightKerningGroup = U;
rightMetricsKey = H;
unicode = 0055;
},
{
glyphname = Uogonek;
lastChange = "2014-11-03 12:32:28 +0000";
layers = (
{
components = (
{
name = U;
transform = "{1, 0, 0, 1, 0, 0}";
}
);
layerId = "4A17B37A-CBFD-40E5-9E02-2080A0E1F76C";
leftMetricsKey = "=I";
rightMetricsKey = "=I";
name = Regular;
paths = (
{
closed = 1;
nodes = (
"445 41 LINE",
"346 -1 OFFCURVE",
"292 -41 OFFCURVE",
"292 -116 CURVE SMOOTH",
"292 -174 OFFCURVE",
"339 -215 OFFCURVE",
"411 -215 CURVE SMOOTH",
"440 -215 OFFCURVE",
"473 -209 OFFCURVE",
"492 -197 CURVE",
"476 -146 LINE",
"460 -156 OFFCURVE",
"438 -158 OFFCURVE",
"421 -158 CURVE SMOOTH",
"383 -158 OFFCURVE",
"357 -138 OFFCURVE",
"357 -105 CURVE SMOOTH",
"357 -68 OFFCURVE",
"391 -28 OFFCURVE",
"491 16 CURVE"
);
}
);
width = 738;
},
{
components = (
{
name = U;
transform = "{1, 0, 0, 1, 0, 0}";
}
);
layerId = "99EB5860-B45A-4B60-BB0B-F826C8F71D42";
leftMetricsKey = "=I";
rightMetricsKey = "=I";
name = Bold;
paths = (
{
closed = 1;
nodes = (
"422 42 LINE",
"320 36 OFFCURVE",
"247 -7 OFFCURVE",
"247 -86 CURVE SMOOTH",
"247 -170 OFFCURVE",
"316 -205 OFFCURVE",
"399 -205 CURVE SMOOTH",
"449 -205 OFFCURVE",
"485 -199 OFFCURVE",
"517 -179 CURVE",
"490 -76 LINE",
"480 -82 OFFCURVE",
"465 -84 OFFCURVE",
"450 -84 CURVE SMOOTH",
"419 -84 OFFCURVE",
"401 -70 OFFCURVE",
"401 -46 CURVE SMOOTH",
"401 -15 OFFCURVE",
"429 5 OFFCURVE",
"504 20 CURVE"
);
}
);
width = 738;
},
{
components = (
{
name = U;
transform = "{1, 0, 0, 1, 0, 0}";
}
);
layerId = "1C7CD022-87C7-4E11-B656-E47B18819458";
name = Light;
paths = (
{
closed = 1;
nodes = (
"430 15 LINE",
"322 -32 OFFCURVE",
"289 -72 OFFCURVE",
"289 -124 CURVE SMOOTH",
"289 -176 OFFCURVE",
"329 -202 OFFCURVE",
"377 -202 CURVE SMOOTH",
"418 -202 OFFCURVE",
"438 -192 OFFCURVE",
"454 -181 CURVE",
"448 -168 LINE",
"434 -179 OFFCURVE",
"414 -188 OFFCURVE",
"377 -188 CURVE SMOOTH",
"337 -188 OFFCURVE",
"304 -167 OFFCURVE",
"304 -124 CURVE SMOOTH",
"304 -75 OFFCURVE",
"337 -38 OFFCURVE",
"445 8 CURVE"
);
}
);
width = 698;
}
);
leftKerningGroup = I;
leftMetricsKey = U;
rightKerningGroup = I;
rightMetricsKey = U;
unicode = 0172;
},
{
glyphname = V;
lastChange = "2014-11-03 12:32:27 +0000";
layers = (
{
guideLines = (
{
angle = 180;
position = "{296, 202}";
}
);
layerId = "4A17B37A-CBFD-40E5-9E02-2080A0E1F76C";
name = Regular;
paths = (
{
closed = 1;
nodes = (
"540 660 LINE",
"372 203 LINE",
"330 73 LINE",
"288 204 LINE",
"120 660 LINE",
"34 660 LINE",
"285 0 LINE",
"376 0 LINE",
"626 660 LINE"
);
}
);
width = 660;
},
{
layerId = "99EB5860-B45A-4B60-BB0B-F826C8F71D42";
name = Bold;
paths = (
{
closed = 1;
nodes = (
"481 660 LINE",
"388 297 LINE",
"358 170 LINE",
"326 299 LINE",
"235 660 LINE",
"-8 660 LINE",
"215 0 LINE",
"492 0 LINE",
"715 660 LINE"
);
}
);
width = 707;
},
{
layerId = "1C7CD022-87C7-4E11-B656-E47B18819458";
name = Light;
paths = (
{
closed = 1;
nodes = (
"531 660 LINE",
"304 86 LINE",
"277 18 LINE",
"250 87 LINE",
"23 660 LINE",
"6 660 LINE",
"266 0 LINE",
"288 0 LINE",
"548 660 LINE"
);
}
);
width = 554;
}
);
leftKerningGroup = V;
rightKerningGroup = V;
unicode = 0056;
},
{
glyphname = W;
lastChange = "2014-11-03 12:32:30 +0000";
layers = (
{
guideLines = (
{
angle = 180;
position = "{296, 202}";
}
);
layerId = "4A17B37A-CBFD-40E5-9E02-2080A0E1F76C";
name = Regular;
paths = (
{
closed = 1;
nodes = (
"843 660 LINE",
"719 202 LINE",
"683 61 LINE",
"648 202 LINE",
"527 660 LINE",
"435 660 LINE",
"313 202 LINE",
"279 63 LINE",
"244 201 LINE",
"120 660 LINE",
"34 660 LINE",
"229 0 LINE",
"328 0 LINE",
"479 557 LINE",
"631 0 LINE",
"730 0 LINE",
"924 660 LINE"
);
}
);
width = 958;
},
{
layerId = "99EB5860-B45A-4B60-BB0B-F826C8F71D42";
name = Bold;
paths = (
{
closed = 1;
nodes = (
"787 660 LINE",
"730 315 LINE",
"712 186 LINE",
"688 314 LINE",
"614 660 LINE",
"413 660 LINE",
"343 315 LINE",
"320 183 LINE",
"301 313 LINE",
"243 660 LINE",
"-8 660 LINE",
"179 0 LINE",
"435 0 LINE",
"514 397 LINE",
"594 0 LINE",
"841 0 LINE",
"1029 660 LINE"
);
}
);
width = 1021;
},
{
layerId = "1C7CD022-87C7-4E11-B656-E47B18819458";
name = Light;
paths = (
{
closed = 1;
nodes = (
"852 660 LINE",
"667 97 LINE",
"640 16 LINE",
"616 97 LINE",
"448 660 LINE",
"427 660 LINE",
"259 98 LINE",
"235 16 LINE",
"208 97 LINE",
"23 660 LINE",
"6 660 LINE",
"224 0 LINE",
"245 0 LINE",
"438 638 LINE",
"630 0 LINE",
"651 0 LINE",
"869 660 LINE"
);
}
);
width = 875;
}
);
leftKerningGroup = W;
leftMetricsKey = V;
rightKerningGroup = W;
rightMetricsKey = V;
unicode = 0057;
},
{
glyphname = X;
lastChange = "2014-11-03 12:32:20 +0000";
layers = (
{
layerId = "4A17B37A-CBFD-40E5-9E02-2080A0E1F76C";
name = Regular;
paths = (
{
closed = 1;
nodes = (
"487 660 LINE",
"300 375 LINE",
"293 375 LINE",
"35 0 LINE",
"128 0 LINE",
"330 308 LINE",
"337 308 LINE",
"572 660 LINE"
);
},
{
closed = 1;
nodes = (
"55 660 LINE",
"282 312 LINE",
"290 300 LINE",
"486 0 LINE",
"579 0 LINE",
"342 366 LINE",
"333 379 LINE",
"150 660 LINE"
);
}
);
width = 614;
},
{
layerId = "99EB5860-B45A-4B60-BB0B-F826C8F71D42";
name = Bold;
paths = (
{
closed = 1;
nodes = (
"442 660 LINE",
"303 372 LINE",
"253 367 LINE",
"4 0 LINE",
"267 0 LINE",
"387 262 LINE",
"434 258 LINE",
"696 660 LINE"
);
},
{
closed = 1;
nodes = (
"18 660 LINE",
"278 259 LINE",
"307 267 LINE",
"439 0 LINE",
"706 0 LINE",
"456 371 LINE",
"408 390 LINE",
"279 660 LINE"
);
}
);
width = 706;
},
{
layerId = "1C7CD022-87C7-4E11-B656-E47B18819458";
name = Light;
paths = (
{
closed = 1;
nodes = (
"477 660 LINE",
"258 350 LINE",
"255 346 LINE",
"11 0 LINE",
"32 0 LINE",
"266 331 LINE",
"271 338 LINE",
"499 660 LINE"
);
},
{
closed = 1;
nodes = (
"32 660 LINE",
"255 337 LINE",
"259 331 LINE",
"488 0 LINE",
"508 0 LINE",
"271 343 LINE",
"264 353 LINE",
"52 660 LINE"
);
}
);
width = 519;
}
);
leftKerningGroup = X;
rightKerningGroup = X;
unicode = 0058;
},
{
glyphname = Y;
lastChange = "2014-11-03 12:32:29 +0000";
layers = (
{
anchors = (
{
name = top;
position = "{297, 660}";
}
);
layerId = "4A17B37A-CBFD-40E5-9E02-2080A0E1F76C";
name = Regular;
paths = (
{
closed = 1;
nodes = (
"478 660 LINE",
"350 434 LINE",
"297 339.971 LINE",
"244 434 LINE",
"116 660 LINE",
"21 660 LINE",
"257 258 LINE",
"257 0 LINE",
"337 0 LINE",
"337 258 LINE",
"573 660 LINE"
);
}
);
width = 594;
},
{
anchors = (
{
name = top;
position = "{356, 660}";
}
);
layerId = "99EB5860-B45A-4B60-BB0B-F826C8F71D42";
name = Bold;
paths = (
{
closed = 1;
nodes = (
"474 660 LINE",
"403 509 LINE",
"357 389 LINE",
"310 509 LINE",
"240 660 LINE",
"9 660 LINE",
"240 229 LINE",
"240 0 LINE",
"473 0 LINE",
"473 229 LINE",
"704.006 660 LINE"
);
}
);
width = 713;
},
{
anchors = (
{
name = top;
position = "{256, 660}";
}
);
layerId = "1C7CD022-87C7-4E11-B656-E47B18819458";
name = Light;
paths = (
{
closed = 1;
nodes = (
"477 660 LINE",
"348 434 LINE",
"256 273 LINE",
"164 434 LINE",
"35 660 LINE",
"16 660 LINE",
"248 256 LINE",
"248 0 LINE",
"264 0 LINE",
"264 256 LINE",
"496 660 LINE"
);
}
);
width = 512;
}
);
leftKerningGroup = Y;
rightKerningGroup = Y;
unicode = 0059;
},
{
glyphname = Z;
lastChange = "2014-11-03 12:32:20 +0000";
layers = (
{
anchors = (
{
name = top;
position = "{313, 660}";
}
);
layerId = "4A17B37A-CBFD-40E5-9E02-2080A0E1F76C";
name = Regular;
paths = (
{
closed = 1;
nodes = (
"63 75 LINE",
"117 29 LINE",
"569 585 LINE",
"516 632 LINE"
);
},
{
closed = 1;
nodes = (
"63 75 LINE",
"63 0 LINE",
"582 0 LINE",
"582 75 LINE"
);
},
{
closed = 1;
nodes = (
"73 660 LINE",
"73 585 LINE",
"569 585 LINE",
"569 660 LINE"
);
}
);
width = 625;
},
{
anchors = (
{
name = top;
position = "{329, 660}";
}
);
layerId = "99EB5860-B45A-4B60-BB0B-F826C8F71D42";
name = Bold;
paths = (
{
closed = 1;
nodes = (
"25 159 LINE",
"153 41 LINE",
"611 487 LINE",
"484 604 LINE"
);
},
{
closed = 1;
nodes = (
"25 159 LINE",
"25 0 LINE",
"622 0 LINE",
"622 159 LINE"
);
},
{
closed = 1;
nodes = (
"29 660 LINE",
"29 487 LINE",
"611 487 LINE",
"611 660 LINE"
);
}
);
width = 637;
},
{
anchors = (
{
name = top;
position = "{288, 660}";
}
);
layerId = "1C7CD022-87C7-4E11-B656-E47B18819458";
name = Light;
paths = (
{
closed = 1;
nodes = (
"40 14 LINE",
"53 3 LINE",
"519 646 LINE",
"507 655 LINE"
);
},
{
closed = 1;
nodes = (
"40 14 LINE",
"40 0 LINE",
"539 0 LINE",
"539 14 LINE"
);
},
{
closed = 1;
nodes = (
"47 660 LINE",
"47 646 LINE",
"519 646 LINE",
"519 660 LINE"
);
}
);
width = 553;
}
);
leftKerningGroup = Z;
rightKerningGroup = Z;
unicode = 005A;
},
{
glyphname = uni0162;
lastChange = "2014-11-03 12:32:19 +0000";
layers = (
{
components = (
{
name = T;
transform = "{1, 0, 0, 1, 0, 0}";
}
);
layerId = "4A17B37A-CBFD-40E5-9E02-2080A0E1F76C";
leftMetricsKey = "=T";
rightMetricsKey = "=T";
name = Regular;
paths = (
{
closed = 1;
nodes = (
"346 -39 OFFCURVE",
"368 -59 OFFCURVE",
"368 -97 CURVE SMOOTH",
"368 -132 OFFCURVE",
"343 -155 OFFCURVE",
"311 -155 CURVE SMOOTH",
"283 -155 OFFCURVE",
"258 -142 OFFCURVE",
"242 -125 CURVE",
"212 -180 LINE",
"240 -205 OFFCURVE",
"275 -215 OFFCURVE",
"322 -215 CURVE SMOOTH",
"394 -215 OFFCURVE",
"439 -164 OFFCURVE",
"439 -109 CURVE SMOOTH",
"439 -65 OFFCURVE",
"418 -23 OFFCURVE",
"361 14 CURVE",
"288 0 LINE"
);
}
);
width = 655;
},
{
components = (
{
name = T;
transform = "{1, 0, 0, 1, 0, 0}";
}
);
layerId = "99EB5860-B45A-4B60-BB0B-F826C8F71D42";
leftMetricsKey = "=T";
rightMetricsKey = "=T";
name = Bold;
paths = (
{
closed = 1;
nodes = (
"344 0 OFFCURVE",
"372 -18 OFFCURVE",
"372 -51 CURVE SMOOTH",
"372 -87 OFFCURVE",
"345 -101 OFFCURVE",
"316 -101 CURVE SMOOTH",
"281 -101 OFFCURVE",
"265 -89 OFFCURVE",
"250 -70 CURVE",
"194 -170 LINE",
"218 -193 OFFCURVE",
"260 -215 OFFCURVE",
"333 -215 CURVE SMOOTH",
"421 -215 OFFCURVE",
"494 -184 OFFCURVE",
"494 -83 CURVE SMOOTH",
"494 3 OFFCURVE",
"434 46 OFFCURVE",
"308 48 CURVE",
"298 0 LINE"
);
}
);
width = 686;
},
{
components = (
{
name = T;
transform = "{1, 0, 0, 1, 0, 0}";
}
);
layerId = "1C7CD022-87C7-4E11-B656-E47B18819458";
name = Light;
paths = (
{
closed = 1;
nodes = (
"318 -36 OFFCURVE",
"345 -68 OFFCURVE",
"345 -117 CURVE SMOOTH",
"345 -160 OFFCURVE",
"316 -189 OFFCURVE",
"271 -189 CURVE SMOOTH",
"230 -189 OFFCURVE",
"208 -174 OFFCURVE",
"187 -148 CURVE",
"178 -158 LINE",
"198 -184 OFFCURVE",
"224 -202 OFFCURVE",
"271 -202 CURVE SMOOTH",
"325 -202 OFFCURVE",
"360 -168 OFFCURVE",
"360 -117 CURVE SMOOTH",
"360 -65 OFFCURVE",
"333 -32 OFFCURVE",
"276 3 CURVE",
"261 0 LINE"
);
}
);
width = 537;
}
);
leftKerningGroup = T;
leftMetricsKey = T;
rightKerningGroup = T;
rightMetricsKey = T;
unicode = 0162;
},
{
glyphname = a;
lastChange = "2014-11-03 12:32:28 +0000";
layers = (
{
anchors = (
{
name = ogonek;
position = "{521, 0}";
},
{
name = top;
position = "{259, 500}";
}
);
layerId = "4A17B37A-CBFD-40E5-9E02-2080A0E1F76C";
name = Regular;
paths = (
{
closed = 1;
nodes = (
"154 510 OFFCURVE",
"75 462 OFFCURVE",
"49 388 CURVE",
"108 345 LINE",
"135 408 OFFCURVE",
"185 440 OFFCURVE",
"251 440 CURVE SMOOTH",
"326 440 OFFCURVE",
"368 396 OFFCURVE",
"368 330 CURVE SMOOTH",
"368 112 LINE",
"368 102 LINE SMOOTH",
"368 16 OFFCURVE",
"402 -10 OFFCURVE",
"461 -10 CURVE SMOOTH",
"486 -10 OFFCURVE",
"507 -5 OFFCURVE",
"521 0 CURVE",
"526 63 LINE",
"514 60 OFFCURVE",
"499 58 OFFCURVE",
"486 58 CURVE SMOOTH",
"458 58 OFFCURVE",
"448 70 OFFCURVE",
"448 94 CURVE SMOOTH",
"448 340 LINE SMOOTH",
"448 456 OFFCURVE",
"365 510 OFFCURVE",
"251 510 CURVE SMOOTH"
);
},
{
closed = 1;
nodes = (
"235 280 LINE SMOOTH",
"106 258 OFFCURVE",
"40 199 OFFCURVE",
"40 124 CURVE SMOOTH",
"40 34 OFFCURVE",
"116 -10 OFFCURVE",
"210 -10 CURVE SMOOTH",
"298 -10 OFFCURVE",
"390 42 OFFCURVE",
"390 125 CURVE",
"368 168 LINE",
"368 102 OFFCURVE",
"294 60 OFFCURVE",
"214 60 CURVE SMOOTH",
"157 60 OFFCURVE",
"123 82 OFFCURVE",
"123 124 CURVE SMOOTH",
"123 171 OFFCURVE",
"168 198 OFFCURVE",
"256 216 CURVE SMOOTH",
"414 245 LINE",
"403 308 LINE"
);
}
);
width = 543;
},
{
anchors = (
{
name = ogonek;
position = "{579, 10}";
},
{
name = top;
position = "{277, 500}";
}
);
layerId = "99EB5860-B45A-4B60-BB0B-F826C8F71D42";
name = Bold;
paths = (
{
closed = 1;
nodes = (
"111 510 OFFCURVE",
"28 441 OFFCURVE",
"18 337 CURVE",
"199 305 LINE",
"211 340 OFFCURVE",
"227 361 OFFCURVE",
"266 361 CURVE SMOOTH",
"298 361 OFFCURVE",
"310 343 OFFCURVE",
"310 312 CURVE SMOOTH",
"310 112 LINE",
"342 117 LINE",
"342 32 OFFCURVE",
"407 -10 OFFCURVE",
"505 -10 CURVE SMOOTH",
"530 -10 OFFCURVE",
"555 -4 OFFCURVE",
"579 10 CURVE",
"597 127 LINE",
"591 124 OFFCURVE",
"583 123 OFFCURVE",
"572 123 CURVE SMOOTH",
"550 123 OFFCURVE",
"538 136 OFFCURVE",
"538 164 CURVE SMOOTH",
"538 304 LINE SMOOTH",
"538 441 OFFCURVE",
"457 510 OFFCURVE",
"278 510 CURVE SMOOTH"
);
},
{
closed = 1;
nodes = (
"211 270 LINE SMOOTH",
"69 239 OFFCURVE",
"16 192 OFFCURVE",
"16 109 CURVE SMOOTH",
"16 33 OFFCURVE",
"65 -10 OFFCURVE",
"170 -10 CURVE SMOOTH",
"312 -10 OFFCURVE",
"372 74 OFFCURVE",
"372 164 CURVE",
"310 164 LINE",
"310 131 OFFCURVE",
"291 115 OFFCURVE",
"267 115 CURVE SMOOTH",
"248 115 OFFCURVE",
"232 126 OFFCURVE",
"232 150 CURVE SMOOTH",
"232 175 OFFCURVE",
"249 194 OFFCURVE",
"277 202 CURVE SMOOTH",
"360 226 LINE",
"342 299 LINE"
);
}
);
width = 588;
},
{
anchors = (
{
name = ogonek;
position = "{510, -1}";
},
{
name = top;
position = "{237, 500}";
}
);
layerId = "1C7CD022-87C7-4E11-B656-E47B18819458";
name = Light;
paths = (
{
closed = 1;
nodes = (
"143 510 OFFCURVE",
"82 471 OFFCURVE",
"51 388 CURVE",
"64 378 LINE",
"94 462 OFFCURVE",
"152 496 OFFCURVE",
"243 496 CURVE SMOOTH",
"346 496 OFFCURVE",
"402 441 OFFCURVE",
"402 348 CURVE SMOOTH",
"402 113 LINE",
"402 82 LINE SMOOTH",
"402 4 OFFCURVE",
"443 -10 OFFCURVE",
"474 -10 CURVE SMOOTH",
"490 -10 OFFCURVE",
"501 -7 OFFCURVE",
"510 -1 CURVE",
"511 13 LINE",
"502 6 OFFCURVE",
"488 4 OFFCURVE",
"473 4 CURVE SMOOTH",
"440 4 OFFCURVE",
"418 27 OFFCURVE",
"418 76 CURVE SMOOTH",
"418 348 LINE SMOOTH",
"418 453 OFFCURVE",
"356 510 OFFCURVE",
"243 510 CURVE SMOOTH"
);
},
{
closed = 1;
nodes = (
"225 253 LINE SMOOTH",
"95 229 OFFCURVE",
"41 187 OFFCURVE",
"41 108 CURVE SMOOTH",
"41 34 OFFCURVE",
"99 -10 OFFCURVE",
"197 -10 CURVE SMOOTH",
"295 -10 OFFCURVE",
"410 37 OFFCURVE",
"410 140 CURVE",
"402 151 LINE",
"402 47 OFFCURVE",
"280 4 OFFCURVE",
"202 4 CURVE SMOOTH",
"111 4 OFFCURVE",
"57 43 OFFCURVE",
"57 108 CURVE SMOOTH",
"57 175 OFFCURVE",
"105 217 OFFCURVE",
"236 241 CURVE SMOOTH",
"409 273 LINE",
"407 287 LINE"
);
}
);
width = 505;
},
{
anchors = (
{
name = ogonek;
position = "{543, 4}";
},
{
name = top;
position = "{266, 500}";
}
);
associatedMasterId = "4A17B37A-CBFD-40E5-9E02-2080A0E1F76C";
background = {
paths = (
{
closed = 1;
nodes = (
"137 510 OFFCURVE",
"57 454 OFFCURVE",
"37 369 CURVE",
"142 330 LINE",
"164 382 OFFCURVE",
"201 410 OFFCURVE",
"256 410 CURVE SMOOTH",
"315 410 OFFCURVE",
"346 376 OFFCURVE",
"346 323 CURVE SMOOTH",
"346 112 LINE",
"358 108 LINE SMOOTH",
"358 22 OFFCURVE",
"404 -10 OFFCURVE",
"478 -10 CURVE SMOOTH",
"503 -10 OFFCURVE",
"525 -5 OFFCURVE",
"543 4 CURVE",
"553 87 LINE",
"543 84 OFFCURVE",
"531 83 OFFCURVE",
"519 83 CURVE SMOOTH",
"493 83 OFFCURVE",
"482 95 OFFCURVE",
"482 121 CURVE SMOOTH",
"482 326 LINE SMOOTH",
"482 450 OFFCURVE",
"399.995 510 OFFCURVE",
"261 510 CURVE SMOOTH"
);
},
{
closed = 1;
nodes = (
"226 276 LINE SMOOTH",
"92 251 OFFCURVE",
"31 196 OFFCURVE",
"31 118 CURVE SMOOTH",
"31 34 OFFCURVE",
"97 -10 OFFCURVE",
"195 -10 CURVE SMOOTH",
"303 -10 OFFCURVE",
"383 54 OFFCURVE",
"383 140 CURVE",
"346 166 LINE",
"346 113 OFFCURVE",
"293 81 OFFCURVE",
"234 81 CURVE SMOOTH",
"192 81 OFFCURVE",
"165 99 OFFCURVE",
"165 134 CURVE SMOOTH",
"165 173 OFFCURVE",
"199 196 OFFCURVE",
"264 211 CURVE SMOOTH",
"394 238 LINE",
"380 305 LINE"
);
}
);
};
layerId = "39F793B2-4349-449C-BF11-D288AA46F75A";
name = "Regular {137,5}";
paths = (
{
closed = 1;
nodes = (
"133 510 OFFCURVE",
"58 456 OFFCURVE",
"37 371 CURVE",
"140 322 LINE",
"159 383 OFFCURVE",
"196 410 OFFCURVE",
"256 410 CURVE SMOOTH",
"316 410 OFFCURVE",
"346 376 OFFCURVE",
"346 323 CURVE SMOOTH",
"346 112 LINE",
"358 108 LINE",
"358 22 OFFCURVE",
"404 -10 OFFCURVE",
"478 -10 CURVE SMOOTH",
"503 -10 OFFCURVE",
"525 -5 OFFCURVE",
"543 4 CURVE",
"553 87 LINE",
"543 84 OFFCURVE",
"531 83 OFFCURVE",
"519 83 CURVE SMOOTH",
"493 83 OFFCURVE",
"482 95 OFFCURVE",
"482 121 CURVE SMOOTH",
"482 326 LINE SMOOTH",
"482 450 OFFCURVE",
"394 510 OFFCURVE",
"255 510 CURVE SMOOTH"
);
},
{
closed = 1;
nodes = (
"226 276 LINE SMOOTH",
"92 251 OFFCURVE",
"31 196 OFFCURVE",
"31 118 CURVE SMOOTH",
"31 34 OFFCURVE",
"97 -10 OFFCURVE",
"195 -10 CURVE SMOOTH",
"313 -10 OFFCURVE",
"383 44 OFFCURVE",
"383 140 CURVE",
"346 163 LINE",
"346 110 OFFCURVE",
"281 83 OFFCURVE",
"229 83 CURVE SMOOTH",
"188 83 OFFCURVE",
"164 98 OFFCURVE",
"164 133 CURVE SMOOTH",
"164 163 OFFCURVE",
"191 180 OFFCURVE",
"239 191 CURVE SMOOTH",
"394 226 LINE",
"380 305 LINE"
);
}
);
width = 560;
}
);
leftKerningGroup = a;
rightKerningGroup = a;
unicode = 0061;
},
{
glyphname = aogonek;
lastChange = "2014-11-03 12:32:29 +0000";
layers = (
{
anchors = (
{
name = ogonek;
position = "{521, 0}";
},
{
name = top;
position = "{259, 500}";
}
);
layerId = "4A17B37A-CBFD-40E5-9E02-2080A0E1F76C";
leftMetricsKey = "=a";
rightMetricsKey = "=a-6";
name = Regular;
paths = (
{
closed = 1;
nodes = (
"154 510 OFFCURVE",
"75 462 OFFCURVE",
"49 388 CURVE",
"108 345 LINE",
"135 408 OFFCURVE",
"185 440 OFFCURVE",
"251 440 CURVE SMOOTH",
"326 440 OFFCURVE",
"368 396 OFFCURVE",
"368 330 CURVE SMOOTH",
"368 128 LINE",
"368 112 LINE SMOOTH",
"368 16 OFFCURVE",
"432 -10 OFFCURVE",
"471 -10 CURVE SMOOTH",
"486 -10 OFFCURVE",
"507 -5 OFFCURVE",
"521 0 CURVE",
"526 63 LINE",
"514 60 OFFCURVE",
"499 58 OFFCURVE",
"486 58 CURVE SMOOTH",
"458 58 OFFCURVE",
"448 70 OFFCURVE",
"448 94 CURVE SMOOTH",
"448 340 LINE SMOOTH",
"448 456 OFFCURVE",
"365 510 OFFCURVE",
"251 510 CURVE SMOOTH"
);
},
{
closed = 1;
nodes = (
"386 -6 OFFCURVE",
"332 -49 OFFCURVE",
"332 -119 CURVE SMOOTH",
"332 -177 OFFCURVE",
"379 -215 OFFCURVE",
"451 -215 CURVE SMOOTH",
"480 -215 OFFCURVE",
"513 -209 OFFCURVE",
"532 -197 CURVE",
"516 -146 LINE",
"500 -156 OFFCURVE",
"478 -158 OFFCURVE",
"461 -158 CURVE SMOOTH",
"423 -158 OFFCURVE",
"397 -138 OFFCURVE",
"397 -105 CURVE SMOOTH",
"397 -65 OFFCURVE",
"423 -30 OFFCURVE",
"521 0 CURVE",
"475 26 LINE"
);
},
{
closed = 1;
nodes = (
"235 280 LINE SMOOTH",
"106 258 OFFCURVE",
"40 199 OFFCURVE",
"40 124 CURVE SMOOTH",
"40 34 OFFCURVE",
"116 -10 OFFCURVE",
"210 -10 CURVE SMOOTH",
"298 -10 OFFCURVE",
"390 42 OFFCURVE",
"390 125 CURVE",
"368 168 LINE",
"368 102 OFFCURVE",
"294 60 OFFCURVE",
"214 60 CURVE SMOOTH",
"157 60 OFFCURVE",
"123 82 OFFCURVE",
"123 124 CURVE SMOOTH",
"123 171 OFFCURVE",
"168 198 OFFCURVE",
"256 216 CURVE SMOOTH",
"414 245 LINE",
"403 308 LINE"
);
}
);
width = 543;
},
{
anchors = (
{
name = top;
position = "{277, 500}";
}
);
layerId = "99EB5860-B45A-4B60-BB0B-F826C8F71D42";
leftMetricsKey = "=a";
rightMetricsKey = "=a";
name = Bold;
paths = (
{
closed = 1;
nodes = (
"111 510 OFFCURVE",
"28 441 OFFCURVE",
"18 337 CURVE",
"199 305 LINE",
"211 340 OFFCURVE",
"227 361 OFFCURVE",
"266 361 CURVE SMOOTH",
"298 361 OFFCURVE",
"310 343 OFFCURVE",
"310 312 CURVE SMOOTH",
"310 112 LINE",
"354 129 LINE",
"354 38 OFFCURVE",
"423 8 OFFCURVE",
"505 8 CURVE SMOOTH",
"505 8 OFFCURVE",
"579 5 OFFCURVE",
"579 5 CURVE",
"597 127 LINE",
"591 124 OFFCURVE",
"583 123 OFFCURVE",
"572 123 CURVE SMOOTH",
"550 123 OFFCURVE",
"538 136 OFFCURVE",
"538 164 CURVE SMOOTH",
"538 304 LINE SMOOTH",
"538 441 OFFCURVE",
"457 510 OFFCURVE",
"278 510 CURVE SMOOTH"
);
},
{
closed = 1;
nodes = (
"379 27 OFFCURVE",
"321 -17 OFFCURVE",
"321 -90 CURVE SMOOTH",
"321 -180 OFFCURVE",
"390 -215 OFFCURVE",
"473 -215 CURVE SMOOTH",
"523 -215 OFFCURVE",
"559 -209 OFFCURVE",
"591 -189 CURVE",
"564 -86 LINE",
"554 -92 OFFCURVE",
"539 -94 OFFCURVE",
"524 -94 CURVE SMOOTH",
"493 -94 OFFCURVE",
"475 -80 OFFCURVE",
"475 -56 CURVE SMOOTH",
"475 -18 OFFCURVE",
"511 -1 OFFCURVE",
"579 5 CURVE",
"481 27 LINE"
);
},
{
closed = 1;
nodes = (
"211 270 LINE SMOOTH",
"69 239 OFFCURVE",
"16 192 OFFCURVE",
"16 109 CURVE SMOOTH",
"16 33 OFFCURVE",
"65 -10 OFFCURVE",
"170 -10 CURVE SMOOTH",
"312 -10 OFFCURVE",
"372 74 OFFCURVE",
"372 164 CURVE",
"310 164 LINE",
"310 131 OFFCURVE",
"291 115 OFFCURVE",
"267 115 CURVE SMOOTH",
"248 115 OFFCURVE",
"232 126 OFFCURVE",
"232 150 CURVE SMOOTH",
"232 175 OFFCURVE",
"249 194 OFFCURVE",
"277 202 CURVE SMOOTH",
"360 226 LINE",
"342 299 LINE"
);
}
);
width = 588;
},
{
anchors = (
{
name = ogonek;
position = "{510, -1}";
},
{
name = top;
position = "{237, 500}";
}
);
layerId = "1C7CD022-87C7-4E11-B656-E47B18819458";
name = Light;
paths = (
{
closed = 1;
nodes = (
"143 510 OFFCURVE",
"82 471 OFFCURVE",
"51 388 CURVE",
"64 378 LINE",
"95 459 OFFCURVE",
"152 496 OFFCURVE",
"243 496 CURVE SMOOTH",
"346 496 OFFCURVE",
"402 441 OFFCURVE",
"402 348 CURVE SMOOTH",
"402 112 LINE",
"402 82 LINE SMOOTH",
"402 4 OFFCURVE",
"443 -10 OFFCURVE",
"474 -10 CURVE SMOOTH",
"474 -10 OFFCURVE",
"510 -1 OFFCURVE",
"510 -1 CURVE",
"511 13 LINE",
"502 6 OFFCURVE",
"488 4 OFFCURVE",
"473 4 CURVE SMOOTH",
"440 4 OFFCURVE",
"418 27 OFFCURVE",
"418 76 CURVE SMOOTH",
"418 348 LINE SMOOTH",
"418 453 OFFCURVE",
"356 510 OFFCURVE",
"243 510 CURVE SMOOTH"
);
},
{
closed = 1;
nodes = (
"396 -32 OFFCURVE",
"353 -83 OFFCURVE",
"353 -129 CURVE SMOOTH",
"353 -177 OFFCURVE",
"393 -203 OFFCURVE",
"441 -203 CURVE SMOOTH",
"477 -203 OFFCURVE",
"494 -197 OFFCURVE",
"510 -186 CURVE",
"504 -173 LINE",
"490 -184 OFFCURVE",
"475 -189 OFFCURVE",
"441 -189 CURVE SMOOTH",
"401 -189 OFFCURVE",
"368 -168 OFFCURVE",
"368 -129 CURVE SMOOTH",
"368 -86 OFFCURVE",
"411 -43 OFFCURVE",
"510 -1 CURVE",
"504 5 LINE"
);
},
{
closed = 1;
nodes = (
"225 253 LINE SMOOTH",
"95 229 OFFCURVE",
"41 187 OFFCURVE",
"41 108 CURVE SMOOTH",
"41 34 OFFCURVE",
"99 -10 OFFCURVE",
"197 -10 CURVE SMOOTH",
"295 -10 OFFCURVE",
"410 37 OFFCURVE",
"410 140 CURVE",
"402 151 LINE",
"402 47 OFFCURVE",
"280 4 OFFCURVE",
"202 4 CURVE SMOOTH",
"111 4 OFFCURVE",
"57 43 OFFCURVE",
"57 108 CURVE SMOOTH",
"57 175 OFFCURVE",
"105 217 OFFCURVE",
"236 241 CURVE SMOOTH",
"409 273 LINE",
"407 287 LINE"
);
}
);
width = 505;
},
{
anchors = (
{
name = ogonek;
position = "{323, 0}";
},
{
name = top;
position = "{266, 500}";
}
);
associatedMasterId = "4A17B37A-CBFD-40E5-9E02-2080A0E1F76C";
background = {
paths = (
{
closed = 1;
nodes = (
"137 510 OFFCURVE",
"57 454 OFFCURVE",
"37 369 CURVE",
"142 330 LINE",
"164 382 OFFCURVE",
"201 410 OFFCURVE",
"256 410 CURVE SMOOTH",
"315 410 OFFCURVE",
"346 376 OFFCURVE",
"346 323 CURVE SMOOTH",
"346 122 LINE",
"362 118 LINE SMOOTH",
"362 24 OFFCURVE",
"428 -3 OFFCURVE",
"484 -3 CURVE SMOOTH",
"493 -3 OFFCURVE",
"534 -1 OFFCURVE",
"543 2 CURVE",
"553 87 LINE",
"543 84 OFFCURVE",
"531 83 OFFCURVE",
"519 83 CURVE SMOOTH",
"493 83 OFFCURVE",
"482 95 OFFCURVE",
"482 121 CURVE SMOOTH",
"482 326 LINE SMOOTH",
"482 450 OFFCURVE",
"399.995 510 OFFCURVE",
"261 510 CURVE SMOOTH"
);
},
{
closed = 1;
nodes = (
"384 7 OFFCURVE",
"328 -37 OFFCURVE",
"328 -108 CURVE SMOOTH",
"328 -178 OFFCURVE",
"383 -215 OFFCURVE",
"460 -215 CURVE SMOOTH",
"497 -215 OFFCURVE",
"531 -209 OFFCURVE",
"555 -194 CURVE",
"534 -123 LINE",
"521 -132 OFFCURVE",
"501 -134 OFFCURVE",
"485 -134 CURVE SMOOTH",
"450 -134 OFFCURVE",
"427 -116 OFFCURVE",
"427 -86 CURVE SMOOTH",
"427 -47 OFFCURVE",
"457 -19 OFFCURVE",
"543 2 CURVE",
"477 26 LINE"
);
},
{
closed = 1;
nodes = (
"226 276 LINE SMOOTH",
"92 251 OFFCURVE",
"31 196 OFFCURVE",
"31 118 CURVE SMOOTH",
"31 34 OFFCURVE",
"97 -10 OFFCURVE",
"195 -10 CURVE SMOOTH",
"303 -10 OFFCURVE",
"383 54 OFFCURVE",
"383 140 CURVE",
"346 166 LINE",
"346 113 OFFCURVE",
"293 81 OFFCURVE",
"234 81 CURVE SMOOTH",
"192 81 OFFCURVE",
"165 99 OFFCURVE",
"165 134 CURVE SMOOTH",
"165 173 OFFCURVE",
"199 196 OFFCURVE",
"264 211 CURVE SMOOTH",
"394 238 LINE",
"380 305 LINE"
);
}
);
};
layerId = "E85FF441-9BCE-4815-929A-81DAB2A5E2AC";
leftMetricsKey = "=a";
rightMetricsKey = "=a";
name = "Regular {137,5}";
paths = (
{
closed = 1;
nodes = (
"126 510 OFFCURVE",
"53 454 OFFCURVE",
"32 369 CURVE",
"136 320 LINE",
"149 380 OFFCURVE",
"187 410 OFFCURVE",
"251 410 CURVE SMOOTH",
"316 410 OFFCURVE",
"346 376 OFFCURVE",
"346 323 CURVE SMOOTH",
"346 122 LINE",
"362 118 LINE",
"362 40 OFFCURVE",
"408.767 -3 OFFCURVE",
"484 -3 CURVE SMOOTH",
"493 -3 OFFCURVE",
"508 15 OFFCURVE",
"543 2 CURVE",
"553 87 LINE",
"543 84 OFFCURVE",
"531 83 OFFCURVE",
"519 83 CURVE SMOOTH",
"493 83 OFFCURVE",
"482 95 OFFCURVE",
"482 121 CURVE SMOOTH",
"482 326 LINE SMOOTH",
"482 450 OFFCURVE",
"394 510 OFFCURVE",
"255 510 CURVE SMOOTH"
);
},
{
closed = 1;
nodes = (
"384 7 OFFCURVE",
"328 -37 OFFCURVE",
"328 -108 CURVE SMOOTH",
"328 -178 OFFCURVE",
"383 -215 OFFCURVE",
"460 -215 CURVE SMOOTH",
"497 -215 OFFCURVE",
"531 -209 OFFCURVE",
"555 -194 CURVE",
"534 -123 LINE",
"521 -132 OFFCURVE",
"501 -134 OFFCURVE",
"485 -134 CURVE SMOOTH",
"450 -134 OFFCURVE",
"427 -116 OFFCURVE",
"427 -86 CURVE SMOOTH",
"427 -47 OFFCURVE",
"457 -19 OFFCURVE",
"543 2 CURVE",
"477 26 LINE"
);
},
{
closed = 1;
nodes = (
"226 276 LINE SMOOTH",
"92 251 OFFCURVE",
"31 196 OFFCURVE",
"31 118 CURVE SMOOTH",
"31 34 OFFCURVE",
"97 -10 OFFCURVE",
"195 -10 CURVE SMOOTH",
"313 -10 OFFCURVE",
"383 44 OFFCURVE",
"383 140 CURVE",
"346 163 LINE",
"346 110 OFFCURVE",
"281 83 OFFCURVE",
"222 83 CURVE SMOOTH",
"180 83 OFFCURVE",
"160 96 OFFCURVE",
"160 131 CURVE SMOOTH",
"160 161 OFFCURVE",
"188 180 OFFCURVE",
"239 191 CURVE SMOOTH",
"394 223 LINE",
"380 305 LINE"
);
}
);
width = 562;
}
);
leftKerningGroup = a;
rightKerningGroup = a;
unicode = 0105;
},
{
glyphname = ae;
lastChange = "2014-11-03 12:32:22 +0000";
layers = (
{
anchors = (
{
name = ogonek;
position = "{1074, 10}";
}
);
layerId = "4A17B37A-CBFD-40E5-9E02-2080A0E1F76C";
leftMetricsKey = "=a";
rightMetricsKey = "=e";
name = Regular;
paths = (
{
closed = 1;
nodes = (
"447 510 OFFCURVE",
"379 374 OFFCURVE",
"379 247 CURVE SMOOTH",
"379 96 OFFCURVE",
"451 -10 OFFCURVE",
"594 -10 CURVE SMOOTH",
"702 -10 OFFCURVE",
"759 31 OFFCURVE",
"795 99 CURVE",
"728 134 LINE",
"711 86 OFFCURVE",
"674 60 OFFCURVE",
"599 60 CURVE SMOOTH",
"500 60 OFFCURVE",
"443 131 OFFCURVE",
"443 250 CURVE SMOOTH",
"443 369 OFFCURVE",
"503 440 OFFCURVE",
"592 440 CURVE SMOOTH",
"682 440 OFFCURVE",
"734 368 OFFCURVE",
"731 255 CURVE SMOOTH",
"730 220 LINE",
"807 220 LINE",
"807 255 LINE SMOOTH",
"807 412 OFFCURVE",
"734 510 OFFCURVE",
"593 510 CURVE SMOOTH"
);
},
{
closed = 1;
nodes = (
"223 273 LINE SMOOTH",
"100 257 OFFCURVE",
"40 199 OFFCURVE",
"40 124 CURVE SMOOTH",
"40 42 OFFCURVE",
"102 -10 OFFCURVE",
"200 -10 CURVE SMOOTH",
"318 -10 OFFCURVE",
"414 54 OFFCURVE",
"414 179 CURVE",
"372 198 LINE",
"372 112 OFFCURVE",
"296 60 OFFCURVE",
"214 60 CURVE SMOOTH",
"153 60 OFFCURVE",
"123 81 OFFCURVE",
"123 124 CURVE SMOOTH",
"123 171 OFFCURVE",
"156 195 OFFCURVE",
"244 209 CURVE SMOOTH",
"414 236 LINE",
"403 296 LINE"
);
},
{
closed = 1;
nodes = (
"155 510 OFFCURVE",
"78 465 OFFCURVE",
"49 388 CURVE",
"111 344 LINE",
"138 407 OFFCURVE",
"183 440 OFFCURVE",
"249 440 CURVE SMOOTH",
"328 440 OFFCURVE",
"372 396 OFFCURVE",
"372 330 CURVE SMOOTH",
"372 181 LINE",
"440 188 LINE",
"440 290 LINE SMOOTH",
"440 435 OFFCURVE",
"366 510 OFFCURVE",
"251 510 CURVE SMOOTH"
);
},
{
closed = 1;
nodes = (
"413 291 LINE",
"413 220 LINE",
"770 220 LINE",
"770 291 LINE"
);
}
);
width = 868;
},
{
layerId = "99EB5860-B45A-4B60-BB0B-F826C8F71D42";
leftMetricsKey = "=a";
rightMetricsKey = "=e";
name = Bold;
paths = (
{
closed = 1;
nodes = (
"464 510 OFFCURVE",
"374 386 OFFCURVE",
"374 250 CURVE SMOOTH",
"374 94 OFFCURVE",
"454 -10 OFFCURVE",
"633 -10 CURVE SMOOTH",
"735 -10 OFFCURVE",
"835 41 OFFCURVE",
"858 135 CURVE",
"673 186 LINE",
"666 155 OFFCURVE",
"651 140 OFFCURVE",
"622 140 CURVE SMOOTH",
"576 140 OFFCURVE",
"552 156 OFFCURVE",
"552 246 CURVE SMOOTH",
"552 333 OFFCURVE",
"570 360 OFFCURVE",
"607 360 CURVE SMOOTH",
"642 360 OFFCURVE",
"653 333 OFFCURVE",
"653 249 CURVE SMOOTH",
"653 206 LINE",
"869 206 LINE",
"870 236 LINE SMOOTH",
"876 412 OFFCURVE",
"769 510 OFFCURVE",
"619 510 CURVE SMOOTH"
);
},
{
closed = 1;
nodes = (
"216 264 LINE SMOOTH",
"68 237 OFFCURVE",
"16 198 OFFCURVE",
"16 107 CURVE SMOOTH",
"16 39 OFFCURVE",
"73 -10 OFFCURVE",
"205 -10 CURVE SMOOTH",
"387 -10 OFFCURVE",
"462 84 OFFCURVE",
"462 179 CURVE",
"325 161 LINE",
"325 118 OFFCURVE",
"300 106 OFFCURVE",
"268 106 CURVE SMOOTH",
"235 106 OFFCURVE",
"221 122 OFFCURVE",
"221 146 CURVE SMOOTH",
"221 176 OFFCURVE",
"241 190 OFFCURVE",
"292 200 CURVE SMOOTH",
"375 216 LINE",
"357 290 LINE"
);
},
{
closed = 1;
nodes = (
"114 510 OFFCURVE",
"28 443 OFFCURVE",
"19 337 CURVE",
"198 305 LINE",
"208 349 OFFCURVE",
"229 363 OFFCURVE",
"281 363 CURVE SMOOTH",
"313 363 OFFCURVE",
"325 345 OFFCURVE",
"325 312 CURVE SMOOTH",
"325 112 LINE",
"513 148 LINE",
"513 304 LINE SMOOTH",
"513 431 OFFCURVE",
"413 510 OFFCURVE",
"271 510 CURVE SMOOTH"
);
},
{
closed = 1;
nodes = (
"472 285 LINE",
"472 206 LINE",
"763 206 LINE",
"763 285 LINE"
);
}
);
width = 898;
},
{
layerId = "1C7CD022-87C7-4E11-B656-E47B18819458";
name = Light;
paths = (
{
closed = 1;
nodes = (
"482 510 OFFCURVE",
"402 413 OFFCURVE",
"402 250 CURVE SMOOTH",
"402 87 OFFCURVE",
"483 -10 OFFCURVE",
"611 -10 CURVE SMOOTH",
"712 -10 OFFCURVE",
"773 35 OFFCURVE",
"804 109 CURVE",
"791 116 LINE",
"762 46 OFFCURVE",
"706 4 OFFCURVE",
"611 4 CURVE SMOOTH",
"492 4 OFFCURVE",
"417 96 OFFCURVE",
"417 250 CURVE SMOOTH",
"417 404 OFFCURVE",
"491 496 OFFCURVE",
"610 496 CURVE SMOOTH",
"737 496 OFFCURVE",
"799 419 OFFCURVE",
"799 262 CURVE SMOOTH",
"799 257 LINE",
"813 257 LINE",
"813 264 LINE SMOOTH",
"813 429 OFFCURVE",
"742 510 OFFCURVE",
"610 510 CURVE SMOOTH"
);
},
{
closed = 1;
nodes = (
"225 253 LINE SMOOTH",
"94 240 OFFCURVE",
"41 187 OFFCURVE",
"41 108 CURVE SMOOTH",
"41 30 OFFCURVE",
"105 -10 OFFCURVE",
"197 -10 CURVE SMOOTH",
"295 -10 OFFCURVE",
"413 37 OFFCURVE",
"413 180 CURVE",
"402 188 LINE",
"402 44 OFFCURVE",
"280 4 OFFCURVE",
"202 4 CURVE SMOOTH",
"120 4 OFFCURVE",
"57 38 OFFCURVE",
"57 108 CURVE SMOOTH",
"57 175 OFFCURVE",
"104 229 OFFCURVE",
"236 241 CURVE SMOOTH",
"409 257 LINE",
"407 271 LINE"
);
},
{
closed = 1;
nodes = (
"143 510 OFFCURVE",
"82 471 OFFCURVE",
"51 388 CURVE",
"64 378 LINE",
"95 459 OFFCURVE",
"152 496 OFFCURVE",
"243 496 CURVE SMOOTH",
"346 496 OFFCURVE",
"402 441 OFFCURVE",
"402 345 CURVE SMOOTH",
"402 172 LINE",
"418 178 LINE",
"418 351 LINE SMOOTH",
"418 453 OFFCURVE",
"356 510 OFFCURVE",
"243 510 CURVE SMOOTH"
);
},
{
closed = 1;
nodes = (
"410 272 LINE",
"410 257 LINE",
"808 257 LINE",
"808 272 LINE"
);
}
);
width = 856;
},
{
anchors = (
{
name = ogonek;
position = "{1074, 10}";
}
);
associatedMasterId = "4A17B37A-CBFD-40E5-9E02-2080A0E1F76C";
background = {
paths = (
{
closed = 1;
nodes = (
"451 510 OFFCURVE",
"360 414 OFFCURVE",
"360 250 CURVE SMOOTH",
"360 86 OFFCURVE",
"454 -10 OFFCURVE",
"620 -10 CURVE SMOOTH",
"733 -10 OFFCURVE",
"810 33 OFFCURVE",
"842 113 CURVE",
"730 154 LINE",
"716 114 OFFCURVE",
"678 92 OFFCURVE",
"620 92 CURVE SMOOTH",
"539 92 OFFCURVE",
"491 142 OFFCURVE",
"491 248 CURVE SMOOTH",
"491 355 OFFCURVE",
"533 409 OFFCURVE",
"611 409 CURVE SMOOTH",
"685 409 OFFCURVE",
"724 354 OFFCURVE",
"724 253 CURVE SMOOTH",
"724 201 LINE",
"844 201 LINE",
"846 213 OFFCURVE",
"848 228 OFFCURVE",
"848 249 CURVE SMOOTH",
"848 412 OFFCURVE",
"768 510 OFFCURVE",
"612 510 CURVE SMOOTH"
);
},
{
closed = 1;
nodes = (
"449 292 LINE",
"449 201 LINE",
"790 201 LINE",
"790 292 LINE"
);
},
{
closed = 1;
nodes = (
"126 510 OFFCURVE",
"53 454 OFFCURVE",
"32 369 CURVE",
"140 323 LINE",
"161 384 OFFCURVE",
"189 410 OFFCURVE",
"256 410 CURVE SMOOTH",
"316 410 OFFCURVE",
"346 376 OFFCURVE",
"346 323 CURVE SMOOTH",
"346 112 LINE",
"358 108 LINE",
"358 22 OFFCURVE",
"404 -10 OFFCURVE",
"478 -10 CURVE SMOOTH",
"503 -10 OFFCURVE",
"525 -5 OFFCURVE",
"543 4 CURVE",
"553 87 LINE",
"543 84 OFFCURVE",
"531 83 OFFCURVE",
"519 83 CURVE SMOOTH",
"493 83 OFFCURVE",
"482 95 OFFCURVE",
"482 121 CURVE SMOOTH",
"482 326 LINE SMOOTH",
"482 450 OFFCURVE",
"394 510 OFFCURVE",
"255 510 CURVE SMOOTH"
);
},
{
closed = 1;
nodes = (
"226 276 LINE SMOOTH",
"92 251 OFFCURVE",
"31 196 OFFCURVE",
"31 118 CURVE SMOOTH",
"31 34 OFFCURVE",
"97 -10 OFFCURVE",
"195 -10 CURVE SMOOTH",
"313 -10 OFFCURVE",
"383 44 OFFCURVE",
"383 140 CURVE",
"346 163 LINE",
"346 110 OFFCURVE",
"281 83 OFFCURVE",
"222 83 CURVE SMOOTH",
"180 83 OFFCURVE",
"160 96 OFFCURVE",
"160 131 CURVE SMOOTH",
"160 161 OFFCURVE",
"188 180 OFFCURVE",
"239 191 CURVE SMOOTH",
"394 223 LINE",
"380 305 LINE"
);
}
);
};
layerId = "2DE3B94B-D4B3-4990-AED3-596ECEDF97E8";
leftMetricsKey = "=a";
rightMetricsKey = "=e";
name = "Regular {137,5}";
paths = (
{
closed = 1;
nodes = (
"453 510 OFFCURVE",
"377 379 OFFCURVE",
"377 248 CURVE SMOOTH",
"377 95 OFFCURVE",
"452 -10 OFFCURVE",
"609 -10 CURVE SMOOTH",
"730 -10 OFFCURVE",
"803 35 OFFCURVE",
"834 113 CURVE",
"729 154 LINE",
"716 112 OFFCURVE",
"681 90 OFFCURVE",
"618 90 CURVE SMOOTH",
"539 90 OFFCURVE",
"484 131 OFFCURVE",
"484 248 CURVE SMOOTH",
"484 365 OFFCURVE",
"527 410 OFFCURVE",
"607 410 CURVE SMOOTH",
"668 410 OFFCURVE",
"726 381 OFFCURVE",
"726 253 CURVE SMOOTH",
"726 207 LINE",
"841 207 LINE",
"842 246 LINE SMOOTH",
"846 420 OFFCURVE",
"767 510 OFFCURVE",
"613 510 CURVE SMOOTH"
);
},
{
closed = 1;
nodes = (
"226 267 LINE SMOOTH",
"92 244 OFFCURVE",
"31 196 OFFCURVE",
"31 118 CURVE SMOOTH",
"31 34 OFFCURVE",
"97 -10 OFFCURVE",
"195 -10 CURVE SMOOTH",
"344 -10 OFFCURVE",
"432 58 OFFCURVE",
"432 179 CURVE",
"356 179 LINE",
"355 126 OFFCURVE",
"292 83 OFFCURVE",
"222 83 CURVE SMOOTH",
"180 83 OFFCURVE",
"160 96 OFFCURVE",
"160 131 CURVE SMOOTH",
"160 161 OFFCURVE",
"188 174 OFFCURVE",
"239 183 CURVE SMOOTH",
"394 210 LINE",
"380 293 LINE"
);
},
{
closed = 1;
nodes = (
"126 510 OFFCURVE",
"53 454 OFFCURVE",
"32 369 CURVE",
"142 321 LINE",
"155 381 OFFCURVE",
"187 410 OFFCURVE",
"251 410 CURVE SMOOTH",
"322 410 OFFCURVE",
"355 376 OFFCURVE",
"356 323 CURVE SMOOTH",
"356 122 LINE",
"455 219 LINE",
"455 326 LINE SMOOTH",
"455 450 OFFCURVE",
"377 510 OFFCURVE",
"255 510 CURVE SMOOTH"
);
},
{
closed = 1;
nodes = (
"435 292 LINE",
"435 207 LINE",
"782 207 LINE",
"783 292 LINE"
);
}
);
width = 891;
}
);
leftKerningGroup = a;
leftMetricsKey = a;
rightKerningGroup = e;
unicode = 00E6;
},
{
glyphname = b;
lastChange = "2014-11-03 12:32:26 +0000";
layers = (
{
components = (
{
name = bowl;
transform = "{-1, 0, 0, 1, 648, 0}";
}
);
layerId = "4A17B37A-CBFD-40E5-9E02-2080A0E1F76C";
leftMetricsKey = "=n";
rightMetricsKey = "=o";
name = Regular;
paths = (
{
closed = 1;
nodes = (
"94 730 LINE",
"94 117 LINE",
"94 0 LINE",
"164 0 LINE",
"171 118 LINE",
"174 166 LINE",
"174 730 LINE"
);
}
);
width = 630;
},
{
components = (
{
name = bowl;
transform = "{-1, -0, 0, 1, 682, 0}";
}
);
layerId = "99EB5860-B45A-4B60-BB0B-F826C8F71D42";
leftMetricsKey = "=n";
rightMetricsKey = "=o+5";
name = Bold;
paths = (
{
closed = 1;
nodes = (
"39 700 LINE",
"39 219 LINE",
"39 0 LINE",
"241 0 LINE",
"249 162 LINE",
"269 219 LINE",
"269 700 LINE"
);
}
);
width = 627;
},
{
components = (
{
name = bowl;
transform = "{-1, 0, 0, 1, 659, 0}";
}
);
layerId = "1C7CD022-87C7-4E11-B656-E47B18819458";
name = Light;
paths = (
{
closed = 1;
nodes = (
"86 730 LINE",
"86 101 LINE",
"86 0 LINE",
"102 0 LINE",
"102 173 LINE",
"102 176 LINE",
"102 730 LINE"
);
}
);
width = 581;
}
);
leftKerningGroup = l.ss02;
leftMetricsKey = n;
rightKerningGroup = o;
rightMetricsKey = o;
unicode = 0062;
},
{
glyphname = c;
lastChange = "2014-11-03 12:32:20 +0000";
layers = (
{
anchors = (
{
name = bottom;
position = "{294, 0}";
},
{
name = top;
position = "{296, 500}";
}
);
layerId = "4A17B37A-CBFD-40E5-9E02-2080A0E1F76C";
leftMetricsKey = "=o";
name = Regular;
paths = (
{
closed = 1;
nodes = (
"153 510 OFFCURVE",
"62 412 OFFCURVE",
"62 250 CURVE SMOOTH",
"62 88 OFFCURVE",
"153 -10 OFFCURVE",
"304 -10 CURVE SMOOTH",
"410 -10 OFFCURVE",
"482 46 OFFCURVE",
"514 138 CURVE",
"442 163 LINE",
"422 97 OFFCURVE",
"375 60 OFFCURVE",
"302 60 CURVE SMOOTH",
"202 60 OFFCURVE",
"142 131 OFFCURVE",
"142 250 CURVE SMOOTH",
"142 369 OFFCURVE",
"202 440 OFFCURVE",
"302 440 CURVE SMOOTH",
"367 440 OFFCURVE",
"412 404 OFFCURVE",
"433 341 CURVE",
"509 377 LINE",
"474 459 OFFCURVE",
"407 510 OFFCURVE",
"304 510 CURVE SMOOTH"
);
}
);
width = 565;
},
{
anchors = (
{
name = bottom;
position = "{314, 0}";
},
{
name = top;
position = "{297, 500}";
}
);
layerId = "99EB5860-B45A-4B60-BB0B-F826C8F71D42";
leftMetricsKey = "=o";
name = Bold;
paths = (
{
closed = 1;
nodes = (
"121 510 OFFCURVE",
"20 416 OFFCURVE",
"20 250 CURVE SMOOTH",
"20 84 OFFCURVE",
"118 -10 OFFCURVE",
"309 -10 CURVE SMOOTH",
"471 -10 OFFCURVE",
"559 63 OFFCURVE",
"559 147 CURVE",
"353 211 LINE",
"350 168 OFFCURVE",
"337 145 OFFCURVE",
"308 145 CURVE SMOOTH",
"275 145 OFFCURVE",
"251 161 OFFCURVE",
"251 247 CURVE SMOOTH",
"251 330 OFFCURVE",
"269 355 OFFCURVE",
"309 355 CURVE SMOOTH",
"337 355 OFFCURVE",
"351 331.273 OFFCURVE",
"349 278 CURVE",
"561 340 LINE",
"559 421 OFFCURVE",
"499 510 OFFCURVE",
"297 510 CURVE SMOOTH"
);
}
);
width = 576;
},
{
anchors = (
{
name = bottom;
position = "{273, 0}";
},
{
name = top;
position = "{270, 500}";
}
);
layerId = "1C7CD022-87C7-4E11-B656-E47B18819458";
name = Light;
paths = (
{
closed = 1;
nodes = (
"131 510 OFFCURVE",
"46 412 OFFCURVE",
"46 250 CURVE SMOOTH",
"46 88 OFFCURVE",
"128 -10 OFFCURVE",
"273 -10 CURVE SMOOTH",
"374 -10 OFFCURVE",
"460 47 OFFCURVE",
"477 137 CURVE",
"463 142 LINE",
"449 57 OFFCURVE",
"366 4 OFFCURVE",
"273 4 CURVE SMOOTH",
"138 4 OFFCURVE",
"62 97 OFFCURVE",
"62 250 CURVE SMOOTH",
"62 403 OFFCURVE",
"141 496 OFFCURVE",
"276 496 CURVE SMOOTH",
"370 496 OFFCURVE",
"437 449 OFFCURVE",
"459 366 CURVE",
"473 373 LINE",
"449 461 OFFCURVE",
"375 510 OFFCURVE",
"276 510 CURVE SMOOTH"
);
}
);
width = 512;
}
);
leftKerningGroup = o;
leftMetricsKey = o;
rightKerningGroup = c;
unicode = 0063;
},
{
glyphname = d;
lastChange = "2014-11-03 12:32:29 +0000";
layers = (
{
anchors = (
{
name = center;
position = "{322, 250}";
},
{
name = topright;
position = "{613, 730}";
}
);
components = (
{
name = bowl;
transform = "{1, 0, 0, 1, -18, 0}";
}
);
layerId = "4A17B37A-CBFD-40E5-9E02-2080A0E1F76C";
leftMetricsKey = "=o";
rightMetricsKey = "=|n";
name = Regular;
paths = (
{
closed = 1;
nodes = (
"456 730 LINE",
"456 123 LINE",
"459 117 LINE",
"466 0 LINE",
"536 0 LINE",
"536 117 LINE",
"536 730 LINE"
);
}
);
width = 630;
},
{
anchors = (
{
name = center;
position = "{310, 250}";
},
{
name = topright;
position = "{643, 700}";
}
);
components = (
{
name = bowl;
transform = "{1, 0, 0, 1, -55, 0}";
}
);
layerId = "99EB5860-B45A-4B60-BB0B-F826C8F71D42";
leftMetricsKey = "=o+5";
rightMetricsKey = "=|n";
name = Bold;
paths = (
{
closed = 1;
nodes = (
"358 700 LINE",
"358 219 LINE",
"369 162 LINE",
"381 0 LINE",
"588 0 LINE",
"588 219 LINE",
"588 700 LINE"
);
}
);
width = 627;
},
{
anchors = (
{
name = center;
position = "{296, 281}";
},
{
name = topright;
position = "{254, 328}";
}
);
components = (
{
name = bowl;
transform = "{1, 0, 0, 1, -78, 0}";
}
);
layerId = "1C7CD022-87C7-4E11-B656-E47B18819458";
name = Light;
paths = (
{
closed = 1;
nodes = (
"479 730 LINE",
"479 184 LINE",
"479 175 LINE",
"479 0 LINE",
"495 0 LINE",
"495 101 LINE",
"495 730 LINE"
);
}
);
width = 581;
}
);
leftKerningGroup = o;
leftMetricsKey = q;
rightKerningGroup = l.ss02;
rightMetricsKey = "|n";
unicode = 0064;
},
{
glyphname = eth;
lastChange = "2014-11-03 12:32:31 +0000";
layers = (
{
layerId = "99EB5860-B45A-4B60-BB0B-F826C8F71D42";
leftMetricsKey = "=o";
name = Bold;
paths = (
{
closed = 1;
nodes = (
"149 717 LINE",
"321 591 OFFCURVE",
"408 521 OFFCURVE",
"408 318 CURVE",
"350 246 LINE",
"350 169 OFFCURVE",
"338 145 OFFCURVE",
"299 145 CURVE SMOOTH",
"262 145 OFFCURVE",
"251 171 OFFCURVE",
"251 246 CURVE SMOOTH",
"251 335 OFFCURVE",
"262 362 OFFCURVE",
"299 362 CURVE SMOOTH",
"338 362 OFFCURVE",
"350 335 OFFCURVE",
"350 246 CURVE",
"420 265 LINE",
"420 395 OFFCURVE",
"407 502 OFFCURVE",
"271 502 CURVE SMOOTH",
"119 502 OFFCURVE",
"20 409 OFFCURVE",
"20 246 CURVE SMOOTH",
"20 83 OFFCURVE",
"120 -10 OFFCURVE",
"282 -10 CURVE SMOOTH",
"484 -10 OFFCURVE",
"565 75 OFFCURVE",
"565 313 CURVE SMOOTH",
"565 543 OFFCURVE",
"428 671 OFFCURVE",
"334 717 CURVE"
);
},
{
closed = 1;
nodes = (
"165 604 LINE",
"176 544 LINE",
"346 573 LINE",
"311 616 LINE"
);
},
{
closed = 1;
nodes = (
"397 635 LINE",
"416 598 LINE",
"575 610 LINE",
"560 670 LINE"
);
}
);
width = 601;
},
{
layerId = "4A17B37A-CBFD-40E5-9E02-2080A0E1F76C";
name = Regular;
paths = (
{
closed = 1;
nodes = (
"191 730 LINE",
"387 626 OFFCURVE",
"443 519 OFFCURVE",
"466 322 CURVE",
"454 238 LINE",
"454 144 OFFCURVE",
"393 60 OFFCURVE",
"288 60 CURVE SMOOTH",
"192 60 OFFCURVE",
"131 126 OFFCURVE",
"131 238 CURVE SMOOTH",
"131 348 OFFCURVE",
"192 415 OFFCURVE",
"293 415 CURVE SMOOTH",
"393 415 OFFCURVE",
"454 348 OFFCURVE",
"454 238 CURVE",
"500 238 LINE",
"500 392 OFFCURVE",
"432 485 OFFCURVE",
"282 485 CURVE SMOOTH",
"149 485 OFFCURVE",
"48 392 OFFCURVE",
"48 238 CURVE SMOOTH",
"48 83 OFFCURVE",
"139 -10 OFFCURVE",
"284 -10 CURVE SMOOTH",
"453 -10 OFFCURVE",
"532 114 OFFCURVE",
"532 288 CURVE SMOOTH",
"532 491 OFFCURVE",
"458 638 OFFCURVE",
"302 730 CURVE"
);
},
{
closed = 1;
nodes = (
"174 594 LINE",
"184 545 LINE",
"405 602 LINE",
"374 638 LINE"
);
},
{
closed = 1;
nodes = (
"374 638 LINE",
"405 602 LINE",
"531 628 LINE",
"517 678 LINE"
);
}
);
width = 583;
},
{
layerId = "1C7CD022-87C7-4E11-B656-E47B18819458";
name = Light;
paths = (
{
closed = 1;
nodes = (
"240 730 LINE",
"382 676 OFFCURVE",
"498 535 OFFCURVE",
"498 290 CURVE",
"499 257 LINE",
"493 95 OFFCURVE",
"417 4 OFFCURVE",
"288 4 CURVE SMOOTH",
"151 4 OFFCURVE",
"68 95 OFFCURVE",
"68 237 CURVE SMOOTH",
"68 379 OFFCURVE",
"152 471 OFFCURVE",
"280 471 CURVE SMOOTH",
"425 471 OFFCURVE",
"499 366 OFFCURVE",
"499 257 CURVE",
"505 281 LINE",
"498 405 OFFCURVE",
"414 485 OFFCURVE",
"280 485 CURVE SMOOTH",
"143 485 OFFCURVE",
"52 388 OFFCURVE",
"52 237 CURVE SMOOTH",
"52 88 OFFCURVE",
"142 -10 OFFCURVE",
"288 -10 CURVE SMOOTH",
"426 -10 OFFCURVE",
"512 85 OFFCURVE",
"512 283 CURVE SMOOTH",
"512 550 OFFCURVE",
"399 672 OFFCURVE",
"271 730 CURVE"
);
},
{
closed = 1;
nodes = (
"225 587 LINE",
"229 574 LINE",
"415 613 LINE",
"407 625 LINE"
);
},
{
closed = 1;
nodes = (
"407 625 LINE",
"415 613 LINE",
"531 638 LINE",
"527 651 LINE"
);
}
);
width = 562;
}
);
leftKerningGroup = o;
rightKerningGroup = eth;
unicode = 00F0;
},
{
color = 11;
glyphname = dcroat;
lastChange = "2014-11-03 12:32:31 +0000";
layers = (
{
components = (
{
name = d;
transform = "{1, 0, 0, 1, 0, 0}";
}
);
layerId = "4A17B37A-CBFD-40E5-9E02-2080A0E1F76C";
leftMetricsKey = "=o";
name = Regular;
paths = (
{
closed = 1;
nodes = (
"300 627 LINE",
"300 566 LINE",
"614 566 LINE",
"614 627 LINE"
);
}
);
width = 630;
},
{
anchors = (
{
name = ogonek;
position = "{780, -56}";
}
);
components = (
{
name = d;
transform = "{1, 0, 0, 1, 0, 0}";
}
);
layerId = "99EB5860-B45A-4B60-BB0B-F826C8F71D42";
leftMetricsKey = "=o+5";
name = Bold;
paths = (
{
closed = 1;
nodes = (
"246 640 LINE",
"246 519 LINE",
"664 519 LINE",
"664 640 LINE"
);
}
);
width = 627;
},
{
anchors = (
{
name = ogonek;
position = "{780, -56}";
}
);
associatedMasterId = "99EB5860-B45A-4B60-BB0B-F826C8F71D42";
background = {
components = (
{
name = d;
transform = "{1, 0, 0, 1, 334, 0}";
}
);
paths = (
{
closed = 1;
nodes = (
"634 627 LINE",
"634 566 LINE",
"948 566 LINE",
"948 627 LINE"
);
}
);
};
components = (
{
name = d;
transform = "{1, 0, 0, 1, 0, 0}";
}
);
layerId = "F761A027-701B-4886-BE79-5C40867E8DED";
leftMetricsKey = "=o+5";
name = "Bold [201]";
paths = (
{
closed = 1;
nodes = (
"246 629 LINE",
"246 539 LINE",
"674 539 LINE",
"674 629 LINE"
);
}
);
width = 627;
},
{
components = (
{
name = d;
transform = "{1, 0, 0, 1, 5, 0}";
}
);
layerId = "1C7CD022-87C7-4E11-B656-E47B18819458";
name = Light;
paths = (
{
closed = 1;
nodes = (
"302 606 LINE",
"302 594 LINE",
"597 594 LINE",
"597 606 LINE"
);
}
);
width = 602;
}
);
leftKerningGroup = o;
leftMetricsKey = "=o+5";
rightKerningGroup = dcroat;
unicode = 0111;
},
{
color = 10;
glyphname = e;
lastChange = "2014-11-03 12:32:22 +0000";
layers = (
{
anchors = (
{
name = bottom;
position = "{304, 0}";
},
{
name = ogonek;
position = "{448, 0}";
},
{
name = top;
position = "{295, 500}";
}
);
layerId = "4A17B37A-CBFD-40E5-9E02-2080A0E1F76C";
leftMetricsKey = "=o";
name = Regular;
paths = (
{
closed = 1;
nodes = (
"147 510 OFFCURVE",
"62 412 OFFCURVE",
"62 250 CURVE SMOOTH",
"62 88 OFFCURVE",
"153 -10 OFFCURVE",
"304 -10 CURVE SMOOTH",
"412 -10 OFFCURVE",
"474 31 OFFCURVE",
"512 99 CURVE",
"445 134 LINE",
"427 86 OFFCURVE",
"377 60 OFFCURVE",
"304 60 CURVE SMOOTH",
"203 60 OFFCURVE",
"140 131 OFFCURVE",
"140 250 CURVE SMOOTH",
"140 369 OFFCURVE",
"197 440 OFFCURVE",
"298 440 CURVE SMOOTH",
"393 440 OFFCURVE",
"447 368 OFFCURVE",
"447 255 CURVE SMOOTH",
"447 220 LINE",
"518 220 LINE",
"520 234 OFFCURVE",
"522 253 OFFCURVE",
"522 276 CURVE SMOOTH",
"522 405 OFFCURVE",
"443 510 OFFCURVE",
"298 510 CURVE SMOOTH"
);
},
{
closed = 1;
nodes = (
"114 291 LINE",
"114 220 LINE",
"486 220 LINE",
"486 291 LINE"
);
}
);
width = 584;
},
{
anchors = (
{
name = bottom;
position = "{294, 0}";
},
{
name = ogonek;
position = "{431, 0}";
},
{
name = top;
position = "{296, 500}";
}
);
layerId = "99EB5860-B45A-4B60-BB0B-F826C8F71D42";
leftMetricsKey = "=o";
name = Bold;
paths = (
{
closed = 1;
nodes = (
"121 510 OFFCURVE",
"20 416 OFFCURVE",
"20 250 CURVE SMOOTH",
"20 84 OFFCURVE",
"118 -10 OFFCURVE",
"309 -10 CURVE SMOOTH",
"431 -10 OFFCURVE",
"531 37 OFFCURVE",
"554 136 CURVE",
"369 186 LINE",
"362 159 OFFCURVE",
"343 143 OFFCURVE",
"309 143 CURVE SMOOTH",
"261 143 OFFCURVE",
"238 159 OFFCURVE",
"238 246 CURVE SMOOTH",
"238 332 OFFCURVE",
"256 358 OFFCURVE",
"296 358 CURVE SMOOTH",
"336 358 OFFCURVE",
"349 332 OFFCURVE",
"349 249 CURVE SMOOTH",
"349 206 LINE",
"558 206 LINE",
"561 219 OFFCURVE",
"563 244 OFFCURVE",
"563 266 CURVE SMOOTH",
"563 412 OFFCURVE",
"473 510 OFFCURVE",
"297 510 CURVE SMOOTH"
);
},
{
closed = 1;
nodes = (
"168 291 LINE",
"168 206 LINE",
"459 206 LINE",
"459 291 LINE"
);
}
);
width = 583;
},
{
anchors = (
{
name = bottom;
position = "{279, 0}";
},
{
name = ogonek;
position = "{423, 0}";
},
{
name = top;
position = "{266, 500}";
}
);
layerId = "1C7CD022-87C7-4E11-B656-E47B18819458";
name = Light;
paths = (
{
closed = 1;
nodes = (
"130 510 OFFCURVE",
"46 413 OFFCURVE",
"46 250 CURVE SMOOTH",
"46 87 OFFCURVE",
"131 -10 OFFCURVE",
"275 -10 CURVE SMOOTH",
"366 -10 OFFCURVE",
"442 35 OFFCURVE",
"477 109 CURVE",
"464 116 LINE",
"431 46 OFFCURVE",
"359 4 OFFCURVE",
"275 4 CURVE SMOOTH",
"140 4 OFFCURVE",
"62 96 OFFCURVE",
"62 250 CURVE SMOOTH",
"62 404 OFFCURVE",
"139 496 OFFCURVE",
"270 496 CURVE SMOOTH",
"398 496 OFFCURVE",
"467 401 OFFCURVE",
"467 244 CURVE SMOOTH",
"467 239 LINE",
"481 239 LINE",
"481 241 OFFCURVE",
"481 244 OFFCURVE",
"481 246 CURVE SMOOTH",
"481 411 OFFCURVE",
"402 510 OFFCURVE",
"270 510 CURVE SMOOTH"
);
},
{
closed = 1;
nodes = (
"54 254 LINE",
"54 239 LINE",
"476 239 LINE",
"476 254 LINE"
);
}
);
width = 518;
},
{
anchors = (
{
name = bottom;
position = "{300, 0}";
},
{
name = ogonek;
position = "{442, 0}";
},
{
name = top;
position = "{295, 500}";
}
);
associatedMasterId = "4A17B37A-CBFD-40E5-9E02-2080A0E1F76C";
background = {
anchors = (
{
name = ogonek;
position = "{442, 0}";
},
{
name = bottom;
position = "{300, 0}";
},
{
name = top;
position = "{295, 500}";
}
);
paths = (
{
closed = 1;
nodes = (
"137 510 OFFCURVE",
"46 414 OFFCURVE",
"46 250 CURVE SMOOTH",
"46 86 OFFCURVE",
"140 -10 OFFCURVE",
"306 -10 CURVE SMOOTH",
"419 -10 OFFCURVE",
"496 33 OFFCURVE",
"528 113 CURVE",
"416 154 LINE",
"402 114 OFFCURVE",
"364 92 OFFCURVE",
"306 92 CURVE SMOOTH",
"225 92 OFFCURVE",
"177 142 OFFCURVE",
"177 248 CURVE SMOOTH",
"177 355 OFFCURVE",
"219 409 OFFCURVE",
"297 409 CURVE SMOOTH",
"371 409 OFFCURVE",
"410 354 OFFCURVE",
"410 253 CURVE SMOOTH",
"410 215 LINE",
"539 215 LINE",
"539 248 LINE SMOOTH",
"542 412 OFFCURVE",
"454 510 OFFCURVE",
"298 510 CURVE SMOOTH"
);
},
{
closed = 1;
nodes = (
"135 291 LINE",
"135 215 LINE",
"476 215 LINE",
"476 291 LINE"
);
}
);
};
layerId = "72421C35-BB32-41DB-AC18-520E82ABE3E5";
leftMetricsKey = "=o";
name = "Regular {137,5}";
paths = (
{
closed = 1;
nodes = (
"137 510 OFFCURVE",
"46 414 OFFCURVE",
"46 250 CURVE SMOOTH",
"46 86 OFFCURVE",
"140 -10 OFFCURVE",
"306 -10 CURVE SMOOTH",
"419 -10 OFFCURVE",
"496 33 OFFCURVE",
"528 113 CURVE",
"416 154 LINE",
"402 114 OFFCURVE",
"364 92 OFFCURVE",
"306 92 CURVE SMOOTH",
"225 92 OFFCURVE",
"177 142 OFFCURVE",
"177 248 CURVE SMOOTH",
"177 355 OFFCURVE",
"219 409 OFFCURVE",
"297 409 CURVE SMOOTH",
"371 409 OFFCURVE",
"410 354 OFFCURVE",
"410 273 CURVE SMOOTH",
"410 201 LINE",
"537 201 LINE",
"539 213 OFFCURVE",
"541 228 OFFCURVE",
"541 249 CURVE SMOOTH",
"541 416 OFFCURVE",
"454 510 OFFCURVE",
"298 510 CURVE SMOOTH"
);
},
{
closed = 1;
nodes = (
"135 292 LINE",
"135 201 LINE",
"476 201 LINE",
"476 292 LINE"
);
}
);
width = 583;
}
);
leftKerningGroup = o;
leftMetricsKey = o;
rightKerningGroup = e;
unicode = 0065;
},
{
glyphname = eogonek;
lastChange = "2014-11-03 12:32:24 +0000";
layers = (
{
components = (
{
name = e;
transform = "{1, 0, 0, 1, 0, 0}";
}
);
layerId = "4A17B37A-CBFD-40E5-9E02-2080A0E1F76C";
leftMetricsKey = "=o";
rightMetricsKey = "=e";
name = Regular;
paths = (
{
closed = 1;
nodes = (
"296 -2 OFFCURVE",
"242 -46 OFFCURVE",
"242 -113 CURVE SMOOTH",
"242 -173 OFFCURVE",
"289 -215 OFFCURVE",
"361 -215 CURVE SMOOTH",
"390 -215 OFFCURVE",
"423 -209 OFFCURVE",
"442 -197 CURVE",
"426 -146 LINE",
"410 -156 OFFCURVE",
"388 -158 OFFCURVE",
"371 -158 CURVE SMOOTH",
"334 -158 OFFCURVE",
"308 -137 OFFCURVE",
"308 -101 CURVE SMOOTH",
"308 -63 OFFCURVE",
"345 -26 OFFCURVE",
"425 20 CURVE",
"379 40 LINE"
);
}
);
width = 584;
},
{
components = (
{
name = e;
transform = "{1, 0, 0, 1, 0, 0}";
}
);
layerId = "99EB5860-B45A-4B60-BB0B-F826C8F71D42";
leftMetricsKey = "=o";
rightMetricsKey = "=e";
name = Bold;
paths = (
{
closed = 1;
nodes = (
"257 22 OFFCURVE",
"182 -20 OFFCURVE",
"182 -96 CURVE SMOOTH",
"182 -180 OFFCURVE",
"251 -215 OFFCURVE",
"334 -215 CURVE SMOOTH",
"384 -215 OFFCURVE",
"420 -209 OFFCURVE",
"452 -189 CURVE",
"425 -86 LINE",
"415 -92 OFFCURVE",
"400 -94 OFFCURVE",
"385 -94 CURVE SMOOTH",
"354 -94 OFFCURVE",
"336 -80 OFFCURVE",
"336 -56 CURVE SMOOTH",
"336 -25 OFFCURVE",
"364 -9 OFFCURVE",
"426 11 CURVE",
"348 36 LINE"
);
}
);
width = 594;
},
{
components = (
{
name = e;
transform = "{1, 0, 0, 1, 0, 0}";
}
);
layerId = "1C7CD022-87C7-4E11-B656-E47B18819458";
name = Light;
paths = (
{
closed = 1;
nodes = (
"262 -32 OFFCURVE",
"231 -72 OFFCURVE",
"231 -124 CURVE SMOOTH",
"231 -176 OFFCURVE",
"271 -202 OFFCURVE",
"319 -202 CURVE SMOOTH",
"355 -202 OFFCURVE",
"375 -192 OFFCURVE",
"391 -181 CURVE",
"385 -168 LINE",
"371 -179 OFFCURVE",
"353 -188 OFFCURVE",
"319 -188 CURVE SMOOTH",
"279 -188 OFFCURVE",
"246 -167 OFFCURVE",
"246 -124 CURVE SMOOTH",
"246 -75 OFFCURVE",
"279 -38 OFFCURVE",
"394 16 CURVE",
"379 21 LINE"
);
}
);
width = 518;
}
);
leftKerningGroup = o;
leftMetricsKey = e;
rightKerningGroup = e;
rightMetricsKey = e;
unicode = 0119;
},
{
glyphname = f;
lastChange = "2014-11-03 12:32:24 +0000";
layers = (
{
guideLines = (
{
angle = 90;
position = "{394, 500}";
}
);
hints = (
{
place = "{257.299790, 0.000000}";
}
);
layerId = "4A17B37A-CBFD-40E5-9E02-2080A0E1F76C";
name = Regular;
paths = (
{
closed = 1;
nodes = (
"202 735 OFFCURVE",
"148 673 OFFCURVE",
"148 584 CURVE SMOOTH",
"148 0 LINE",
"228 0 LINE",
"228 474 LINE",
"228 500 LINE",
"228 576 LINE SMOOTH",
"228 636 OFFCURVE",
"261 662 OFFCURVE",
"319 662 CURVE SMOOTH",
"342 662 OFFCURVE",
"360 657 OFFCURVE",
"376 647 CURVE",
"397 712 LINE",
"379 727 OFFCURVE",
"347 735 OFFCURVE",
"312 735 CURVE SMOOTH"
);
},
{
closed = 1;
nodes = (
"48 500 LINE",
"48 431 LINE",
"388 431 LINE",
"388 500 LINE"
);
}
);
width = 410;
},
{
guideLines = (
{
angle = 90;
position = "{425, 500}";
}
);
layerId = "99EB5860-B45A-4B60-BB0B-F826C8F71D42";
name = Bold;
paths = (
{
closed = 1;
nodes = (
"183 721 OFFCURVE",
"70 672 OFFCURVE",
"70 520 CURVE SMOOTH",
"70 0 LINE",
"300 0 LINE",
"300 421 LINE",
"284 450 LINE",
"284 508 LINE SMOOTH",
"284 555 OFFCURVE",
"313 570 OFFCURVE",
"361 570 CURVE SMOOTH",
"389 570 OFFCURVE",
"404 565 OFFCURVE",
"418 554 CURVE",
"433 687 LINE",
"407 707 OFFCURVE",
"361 721 OFFCURVE",
"298 721 CURVE SMOOTH"
);
},
{
closed = 1;
nodes = (
"3 500 LINE",
"3 345 LINE",
"426 345 LINE",
"426 500 LINE"
);
}
);
width = 430;
},
{
hints = (
{
place = "{102.919918, 0.000000}";
}
);
layerId = "1C7CD022-87C7-4E11-B656-E47B18819458";
name = Light;
paths = (
{
closed = 1;
nodes = (
"168 735 OFFCURVE",
"118 678 OFFCURVE",
"118 583 CURVE SMOOTH",
"118 0 LINE",
"134 0 LINE",
"134 491 LINE",
"134 500 LINE",
"134 583 LINE SMOOTH",
"134 669 OFFCURVE",
"178 721 OFFCURVE",
"251 721 CURVE SMOOTH",
"283 721 OFFCURVE",
"303 713 OFFCURVE",
"321 692 CURVE",
"328 704 LINE",
"312 722 OFFCURVE",
"290 735 OFFCURVE",
"251 735 CURVE SMOOTH"
);
},
{
closed = 1;
nodes = (
"18 500 LINE",
"18 486 LINE",
"320 486 LINE",
"320 500 LINE"
);
}
);
width = 298;
}
);
leftKerningGroup = f;
rightKerningGroup = f;
unicode = 0066;
},
{
color = 11;
glyphname = g;
lastChange = "2014-11-03 12:32:28 +0000";
layers = (
{
anchors = (
{
name = top;
position = "{265, 500}";
}
);
components = (
{
name = gbase;
transform = "{1, 0, 0, 1, -12, 0}";
}
);
layerId = "4A17B37A-CBFD-40E5-9E02-2080A0E1F76C";
name = Regular;
paths = (
{
closed = 1;
nodes = (
"433 592 OFFCURVE",
"370 542 OFFCURVE",
"372 460 CURVE",
"422 439 LINE",
"420 497 OFFCURVE",
"460 522 OFFCURVE",
"530 522 CURVE",
"512 592 LINE"
);
}
);
width = 523;
},
{
anchors = (
{
name = top;
position = "{255, 500}";
}
);
components = (
{
disableAlignment = 1;
name = gbase;
transform = "{1, 0, 0, 1, -6, 0}";
}
);
layerId = "99EB5860-B45A-4B60-BB0B-F826C8F71D42";
name = Bold;
paths = (
{
closed = 1;
nodes = (
"429 677 OFFCURVE",
"387 566 OFFCURVE",
"387 474 CURVE",
"454 454 LINE",
"454 494 OFFCURVE",
"497 539 OFFCURVE",
"577 520 CURVE",
"558 662 LINE"
);
}
);
width = 578;
},
{
anchors = (
{
name = top;
position = "{277, 500}";
}
);
associatedMasterId = "4A17B37A-CBFD-40E5-9E02-2080A0E1F76C";
background = {
paths = (
{
closed = 1;
nodes = (
"119 213 OFFCURVE",
"66 174 OFFCURVE",
"66 110 CURVE SMOOTH",
"66 35 OFFCURVE",
"155 -5 OFFCURVE",
"216 -5 CURVE SMOOTH",
"350 -5 LINE SMOOTH",
"425 -5 OFFCURVE",
"449 -28 OFFCURVE",
"449 -64 CURVE SMOOTH",
"449 -108 OFFCURVE",
"391 -148 OFFCURVE",
"285 -148 CURVE SMOOTH",
"175 -148 OFFCURVE",
"120 -119 OFFCURVE",
"120 -70 CURVE SMOOTH",
"120 -34 OFFCURVE",
"156 -5 OFFCURVE",
"216 -5 CURVE",
"192 34 LINE",
"104 34 OFFCURVE",
"43 -12 OFFCURVE",
"43 -83 CURVE SMOOTH",
"43 -158 OFFCURVE",
"118 -215 OFFCURVE",
"276 -215 CURVE SMOOTH",
"411 -215 OFFCURVE",
"527 -154 OFFCURVE",
"527 -55 CURVE SMOOTH",
"527 17 OFFCURVE",
"467 64 OFFCURVE",
"372 64 CURVE SMOOTH",
"242 64 LINE SMOOTH",
"177 64 OFFCURVE",
"141 87 OFFCURVE",
"141 124 CURVE SMOOTH",
"141 155 OFFCURVE",
"170 176 OFFCURVE",
"231 184 CURVE",
"188 217 LINE"
);
},
{
closed = 1;
nodes = (
"153 510 OFFCURVE",
"68 440 OFFCURVE",
"68 341 CURVE SMOOTH",
"68 242 OFFCURVE",
"141 172 OFFCURVE",
"273 172 CURVE SMOOTH",
"393 172 OFFCURVE",
"478 242 OFFCURVE",
"478 341 CURVE SMOOTH",
"478 440 OFFCURVE",
"393 510 OFFCURVE",
"273 510 CURVE SMOOTH"
);
},
{
closed = 1;
nodes = (
"342 445 OFFCURVE",
"395 403 OFFCURVE",
"395 341 CURVE SMOOTH",
"395 279 OFFCURVE",
"342 237 OFFCURVE",
"273 237 CURVE SMOOTH",
"204 237 OFFCURVE",
"151 279 OFFCURVE",
"151 341 CURVE SMOOTH",
"151 403 OFFCURVE",
"204 445 OFFCURVE",
"273 445 CURVE SMOOTH"
);
},
{
closed = 1;
nodes = (
"427 592 OFFCURVE",
"375 545 OFFCURVE",
"368 460 CURVE",
"413 439 LINE",
"418 496 OFFCURVE",
"454 522 OFFCURVE",
"534 522 CURVE",
"516 592 LINE"
);
}
);
};
components = (
{
name = gbase;
transform = "{1, 0, 0, 1, 0, 0}";
}
);
layerId = "8EE4D5BB-17C2-4780-9682-EA7BB72901B8";
name = "Regular [79]";
paths = (
{
closed = 1;
nodes = (
"431 592 OFFCURVE",
"382 549 OFFCURVE",
"368 460 CURVE",
"409 441 LINE",
"414 494 OFFCURVE",
"453 522 OFFCURVE",
"534 522 CURVE",
"516 592 LINE"
);
}
);
width = 549;
},
{
anchors = (
{
name = top;
position = "{251, 500}";
}
);
components = (
{
name = gbase;
transform = "{1, 0, 0, 1, -17, 0}";
}
);
layerId = "1C7CD022-87C7-4E11-B656-E47B18819458";
name = Light;
paths = (
{
closed = 1;
nodes = (
"419 592 OFFCURVE",
"377 544 OFFCURVE",
"377 470 CURVE",
"390 465 LINE",
"390 533 OFFCURVE",
"427 578 OFFCURVE",
"494 578 CURVE",
"489 592 LINE"
);
}
);
width = 491;
}
);
leftKerningGroup = g;
rightKerningGroup = g;
unicode = 0067;
},
{
glyphname = gbreve;
lastChange = "2014-11-03 12:32:26 +0000";
layers = (
{
anchors = (
{
name = top;
position = "{279, 500}";
}
);
components = (
{
name = gbase;
transform = "{1, 0, 0, 1, 2, 0}";
},
{
name = breve;
transform = "{1, 0, 0, 1, 39, 0}";
}
);
layerId = "4A17B37A-CBFD-40E5-9E02-2080A0E1F76C";
name = Regular;
paths = (
{
closed = 1;
nodes = (
"447 592 OFFCURVE",
"384 542 OFFCURVE",
"386 460 CURVE",
"436 439 LINE",
"434 497 OFFCURVE",
"474 522 OFFCURVE",
"544 522 CURVE",
"526 592 LINE"
);
}
);
width = 555;
},
{
anchors = (
{
name = top;
position = "{258, 500}";
}
);
components = (
{
disableAlignment = 1;
name = gbase;
transform = "{1, 0, 0, 1, -3, 0}";
},
{
name = breve;
transform = "{1, 0, 0, 1, 42, 0}";
}
);
layerId = "99EB5860-B45A-4B60-BB0B-F826C8F71D42";
name = Bold;
paths = (
{
closed = 1;
nodes = (
"486 662 OFFCURVE",
"420 559 OFFCURVE",
"440 454 CURVE",
"497 434 LINE",
"497 500 OFFCURVE",
"544 527 OFFCURVE",
"600 520 CURVE",
"581 662 LINE"
);
}
);
width = 605;
},
{
anchors = (
{
name = top;
position = "{251, 500}";
}
);
components = (
{
name = gbase;
transform = "{1, 0, 0, 1, -17, 0}";
},
{
name = breve;
transform = "{1, 0, 0, 1, 4, 0}";
}
);
layerId = "1C7CD022-87C7-4E11-B656-E47B18819458";
name = Light;
paths = (
{
closed = 1;
nodes = (
"418 592 OFFCURVE",
"376 544 OFFCURVE",
"376 470 CURVE",
"389 465 LINE",
"389 533 OFFCURVE",
"426 578 OFFCURVE",
"493 578 CURVE",
"488 592 LINE"
);
}
);
width = 490;
}
);
leftKerningGroup = g;
leftMetricsKey = g;
rightKerningGroup = g;
rightMetricsKey = g;
unicode = 011F;
},
{
glyphname = h;
lastChange = "2014-11-03 12:32:32 +0000";
layers = (
{
layerId = "4A17B37A-CBFD-40E5-9E02-2080A0E1F76C";
leftMetricsKey = "=n";
rightMetricsKey = "=n";
name = Regular;
paths = (
{
closed = 1;
nodes = (
"94 730 LINE",
"94 0 LINE",
"174 0 LINE",
"174 730 LINE"
);
},
{
closed = 1;
nodes = (
"231 510 OFFCURVE",
"143 449 OFFCURVE",
"143 288 CURVE",
"174 265 LINE",
"174 393 OFFCURVE",
"256 440 OFFCURVE",
"329 440 CURVE SMOOTH",
"398 440 OFFCURVE",
"452 403 OFFCURVE",
"452 292 CURVE SMOOTH",
"452 0 LINE",
"532 0 LINE",
"532 320 LINE SMOOTH",
"532 449 OFFCURVE",
"444 510 OFFCURVE",
"337 510 CURVE SMOOTH"
);
}
);
width = 620;
},
{
layerId = "99EB5860-B45A-4B60-BB0B-F826C8F71D42";
leftMetricsKey = "=n";
rightMetricsKey = "=n";
name = Bold;
paths = (
{
closed = 1;
nodes = (
"39 700 LINE",
"39 0 LINE",
"269 0 LINE",
"269 700 LINE"
);
},
{
closed = 1;
nodes = (
"309 510 OFFCURVE",
"248 418 OFFCURVE",
"248 262 CURVE",
"269 262 LINE",
"269 316 OFFCURVE",
"284 341 OFFCURVE",
"317 341 CURVE SMOOTH",
"341 341 OFFCURVE",
"352 327 OFFCURVE",
"352 282 CURVE SMOOTH",
"352 0 LINE",
"582 0 LINE",
"582 342 LINE SMOOTH",
"582 449 OFFCURVE",
"524 510 OFFCURVE",
"425 510 CURVE SMOOTH"
);
}
);
width = 620;
},
{
layerId = "1C7CD022-87C7-4E11-B656-E47B18819458";
name = Light;
paths = (
{
closed = 1;
nodes = (
"86 730 LINE",
"86 0 LINE",
"102 0 LINE",
"102 730 LINE"
);
},
{
closed = 1;
nodes = (
"185 511 OFFCURVE",
"95 424 OFFCURVE",
"95 318 CURVE",
"102 302 LINE",
"102 406 OFFCURVE",
"190 497 OFFCURVE",
"307 497 CURVE SMOOTH",
"413 497 OFFCURVE",
"480 435 OFFCURVE",
"480 328 CURVE SMOOTH",
"480 1 LINE",
"496 1 LINE",
"496 330 LINE SMOOTH",
"496 445 OFFCURVE",
"425 511 OFFCURVE",
"310 511 CURVE SMOOTH"
);
}
);
width = 578;
}
);
leftKerningGroup = l.ss02;
leftMetricsKey = n;
rightKerningGroup = n;
rightMetricsKey = n;
unicode = 0068;
},
{
glyphname = i;
lastChange = "2014-11-03 12:32:20 +0000";
layers = (
{
components = (
{
disableAlignment = 1;
name = dotlessi;
transform = "{1, 0, 0, 1, 0, 0}";
}
);
layerId = "4A17B37A-CBFD-40E5-9E02-2080A0E1F76C";
leftMetricsKey = "=n-20";
rightMetricsKey = "=|n-20";
name = Regular;
paths = (
{
closed = 1;
nodes = (
"170 596 OFFCURVE",
"194 620 OFFCURVE",
"194 656 CURVE SMOOTH",
"194 692 OFFCURVE",
"170 716 OFFCURVE",
"134 716 CURVE SMOOTH",
"98 716 OFFCURVE",
"74 692 OFFCURVE",
"74 656 CURVE SMOOTH",
"74 620 OFFCURVE",
"98 596 OFFCURVE",
"134 596 CURVE SMOOTH"
);
}
);
width = 268;
},
{
anchors = (
{
name = ogonek;
position = "{269, 0}";
},
{
name = top;
position = "{154, 500}";
}
);
components = (
{
disableAlignment = 1;
name = dotlessi;
transform = "{1, 0, 0, 1, 0, 0}";
}
);
layerId = "99EB5860-B45A-4B60-BB0B-F826C8F71D42";
leftMetricsKey = "=n-10";
rightMetricsKey = "=|n-10";
name = Bold;
paths = (
{
closed = 1;
nodes = (
"245 532 OFFCURVE",
"279 558 OFFCURVE",
"279 628 CURVE SMOOTH",
"279 698 OFFCURVE",
"245 724 OFFCURVE",
"154 724 CURVE SMOOTH",
"63 724 OFFCURVE",
"29 698 OFFCURVE",
"29 628 CURVE SMOOTH",
"29 558 OFFCURVE",
"63 532 OFFCURVE",
"154 532 CURVE SMOOTH"
);
}
);
width = 308;
},
{
components = (
{
disableAlignment = 1;
name = dotlessi;
transform = "{1, 0, 0, 1, 0, 0}";
}
);
layerId = "1C7CD022-87C7-4E11-B656-E47B18819458";
leftMetricsKey = "=n-17";
rightMetricsKey = "=|n-17";
name = Light;
paths = (
{
closed = 1;
nodes = (
"108 602 OFFCURVE",
"119 613 OFFCURVE",
"119 627 CURVE SMOOTH",
"119 641 OFFCURVE",
"108 652 OFFCURVE",
"94 652 CURVE SMOOTH",
"80 652 OFFCURVE",
"69 641 OFFCURVE",
"69 627 CURVE SMOOTH",
"69 613 OFFCURVE",
"80 602 OFFCURVE",
"94 602 CURVE SMOOTH"
);
}
);
width = 188;
}
);
leftKerningGroup = i;
leftMetricsKey = "=-n-17";
rightKerningGroup = i;
rightMetricsKey = "=-|n-17";
unicode = 0069;
},
{
glyphname = dotlessi;
lastChange = "2014-11-03 12:32:25 +0000";
layers = (
{
anchors = (
{
name = ogonek;
position = "{174, 0}";
},
{
name = top;
position = "{134, 500}";
}
);
layerId = "4A17B37A-CBFD-40E5-9E02-2080A0E1F76C";
leftMetricsKey = "=n";
rightMetricsKey = "=|n";
name = Regular;
paths = (
{
closed = 1;
nodes = (
"94 500 LINE",
"94 0 LINE",
"174 0 LINE",
"174 500 LINE"
);
}
);
width = 268;
},
{
anchors = (
{
name = ogonek;
position = "{250, 10}";
},
{
name = top;
position = "{154, 500}";
}
);
layerId = "99EB5860-B45A-4B60-BB0B-F826C8F71D42";
name = Bold;
paths = (
{
closed = 1;
nodes = (
"39 500 LINE",
"39 0 LINE",
"269 0 LINE",
"269 500 LINE"
);
}
);
width = 308;
},
{
anchors = (
{
name = ogonek;
position = "{102, 0}";
},
{
name = top;
position = "{94, 500}";
}
);
layerId = "1C7CD022-87C7-4E11-B656-E47B18819458";
name = Light;
paths = (
{
closed = 1;
nodes = (
"86 500 LINE",
"86 0 LINE",
"102 0 LINE",
"102 500 LINE"
);
}
);
width = 188;
}
);
leftKerningGroup = i;
leftMetricsKey = n;
rightKerningGroup = i;
rightMetricsKey = "=|n";
unicode = 0131;
},
{
glyphname = idieresis;
lastChange = "2014-11-03 12:32:32 +0000";
layers = (
{
components = (
{
name = dotlessi;
transform = "{1, 0, 0, 1, 0, 0}";
}
);
layerId = "4A17B37A-CBFD-40E5-9E02-2080A0E1F76C";
name = Regular;
paths = (
{
closed = 1;
nodes = (
"182 716 OFFCURVE",
"156 690 OFFCURVE",
"156 659 CURVE SMOOTH",
"156 627 OFFCURVE",
"182 601 OFFCURVE",
"214 601 CURVE SMOOTH",
"245 601 OFFCURVE",
"271 627 OFFCURVE",
"271 659 CURVE SMOOTH",
"271 690 OFFCURVE",
"245 716 OFFCURVE",
"214 716 CURVE SMOOTH"
);
},
{
closed = 1;
nodes = (
"23 716 OFFCURVE",
"-3 690 OFFCURVE",
"-3 659 CURVE SMOOTH",
"-3 627 OFFCURVE",
"23 601 OFFCURVE",
"54 601 CURVE SMOOTH",
"86 601 OFFCURVE",
"112 627 OFFCURVE",
"112 659 CURVE SMOOTH",
"112 690 OFFCURVE",
"86 716 OFFCURVE",
"54 716 CURVE SMOOTH"
);
}
);
width = 268;
},
{
anchors = (
{
name = ogonek;
position = "{255, 10}";
}
);
components = (
{
name = dotlessi;
transform = "{1, 0, 0, 1, 6, 0}";
}
);
layerId = "99EB5860-B45A-4B60-BB0B-F826C8F71D42";
name = Bold;
paths = (
{
closed = 1;
nodes = (
"117 535 OFFCURVE",
"149 566 OFFCURVE",
"149 629 CURVE SMOOTH",
"149 692 OFFCURVE",
"117 723 OFFCURVE",
"53 723 CURVE SMOOTH",
"-11 723 OFFCURVE",
"-43 692 OFFCURVE",
"-43 629 CURVE SMOOTH",
"-43 566 OFFCURVE",
"-11 535 OFFCURVE",
"53 535 CURVE SMOOTH"
);
},
{
closed = 1;
nodes = (
"331 535 OFFCURVE",
"363 566 OFFCURVE",
"363 629 CURVE SMOOTH",
"363 692 OFFCURVE",
"331 723 OFFCURVE",
"267 723 CURVE SMOOTH",
"203 723 OFFCURVE",
"171 692 OFFCURVE",
"171 629 CURVE SMOOTH",
"171 566 OFFCURVE",
"203 535 OFFCURVE",
"267 535 CURVE SMOOTH"
);
}
);
width = 320;
},
{
components = (
{
name = dotlessi;
transform = "{1, 0, 0, 1, 0, 0}";
}
);
layerId = "1C7CD022-87C7-4E11-B656-E47B18819458";
name = Light;
paths = (
{
closed = 1;
nodes = (
"30 652 OFFCURVE",
"19 641 OFFCURVE",
"19 627 CURVE SMOOTH",
"19 613 OFFCURVE",
"30 602 OFFCURVE",
"44 602 CURVE SMOOTH",
"58 602 OFFCURVE",
"69 613 OFFCURVE",
"69 627 CURVE SMOOTH",
"69 641 OFFCURVE",
"58 652 OFFCURVE",
"44 652 CURVE SMOOTH"
);
},
{
closed = 1;
nodes = (
"130 652 OFFCURVE",
"119 641 OFFCURVE",
"119 627 CURVE SMOOTH",
"119 613 OFFCURVE",
"130 602 OFFCURVE",
"144 602 CURVE SMOOTH",
"158 602 OFFCURVE",
"169 613 OFFCURVE",
"169 627 CURVE SMOOTH",
"169 641 OFFCURVE",
"158 652 OFFCURVE",
"144 652 CURVE SMOOTH"
);
}
);
width = 188;
}
);
leftKerningGroup = idieresis;
rightKerningGroup = idieresis;
unicode = 00EF;
},
{
glyphname = iogonek;
lastChange = "2014-11-03 12:32:30 +0000";
layers = (
{
components = (
{
name = i;
transform = "{1, 0, 0, 1, 0, 0}";
}
);
layerId = "4A17B37A-CBFD-40E5-9E02-2080A0E1F76C";
name = Regular;
paths = (
{
closed = 1;
nodes = (
"128 20 LINE",
"49 -19 OFFCURVE",
"8 -60 OFFCURVE",
"8 -117 CURVE SMOOTH",
"8 -177 OFFCURVE",
"53 -215 OFFCURVE",
"124 -215 CURVE SMOOTH",
"161 -215 OFFCURVE",
"187 -208 OFFCURVE",
"209 -194 CURVE",
"190 -144 LINE",
"174 -154 OFFCURVE",
"150 -159 OFFCURVE",
"131 -159 CURVE SMOOTH",
"94 -159 OFFCURVE",
"74 -138 OFFCURVE",
"74 -109 CURVE SMOOTH",
"74 -72 OFFCURVE",
"96 -44 OFFCURVE",
"174 0 CURVE"
);
}
);
width = 268;
},
{
components = (
{
name = i;
transform = "{1, 0, 0, 1, 0, 0}";
}
);
layerId = "99EB5860-B45A-4B60-BB0B-F826C8F71D42";
name = Bold;
paths = (
{
closed = 1;
nodes = (
"177 32 LINE",
"75 26 OFFCURVE",
"2 -17 OFFCURVE",
"2 -96 CURVE SMOOTH",
"2 -180 OFFCURVE",
"71 -215 OFFCURVE",
"154 -215 CURVE SMOOTH",
"204 -215 OFFCURVE",
"240 -209 OFFCURVE",
"272 -189 CURVE",
"245 -86 LINE",
"235 -92 OFFCURVE",
"220 -94 OFFCURVE",
"205 -94 CURVE SMOOTH",
"174 -94 OFFCURVE",
"156 -80 OFFCURVE",
"156 -56 CURVE SMOOTH",
"156 -25 OFFCURVE",
"199 0 OFFCURVE",
"269 0 CURVE"
);
}
);
width = 308;
},
{
components = (
{
name = i;
transform = "{1, 0, 0, 1, 0, 0}";
}
);
layerId = "1C7CD022-87C7-4E11-B656-E47B18819458";
name = Light;
paths = (
{
closed = 1;
nodes = (
"90 5 LINE",
"30 -45 OFFCURVE",
"3 -74 OFFCURVE",
"3 -120 CURVE SMOOTH",
"3 -172 OFFCURVE",
"44 -202 OFFCURVE",
"88 -202 CURVE SMOOTH",
"115 -202 OFFCURVE",
"131 -195 OFFCURVE",
"152 -180 CURVE",
"146 -167 LINE",
"128 -182 OFFCURVE",
"114 -188 OFFCURVE",
"88 -188 CURVE SMOOTH",
"52 -188 OFFCURVE",
"18 -163 OFFCURVE",
"18 -120 CURVE SMOOTH",
"18 -77 OFFCURVE",
"44 -50 OFFCURVE",
"102 0 CURVE"
);
}
);
width = 188;
}
);
leftKerningGroup = i;
rightKerningGroup = i;
unicode = 012F;
},
{
glyphname = j;
lastChange = "2014-11-03 12:32:26 +0000";
layers = (
{
layerId = "4A17B37A-CBFD-40E5-9E02-2080A0E1F76C";
rightMetricsKey = "=|n-20";
name = Regular;
paths = (
{
closed = 1;
nodes = (
"105 500 LINE",
"105 -43 LINE SMOOTH",
"105 -113 OFFCURVE",
"75 -137 OFFCURVE",
"32 -137 CURVE SMOOTH",
"-3 -137 OFFCURVE",
"-31 -123 OFFCURVE",
"-50 -106 CURVE",
"-67 -182 LINE",
"-44 -201 OFFCURVE",
"-8 -215 OFFCURVE",
"33 -215 CURVE SMOOTH",
"101 -215 OFFCURVE",
"185 -176 OFFCURVE",
"185 -51 CURVE SMOOTH",
"185 500 LINE"
);
},
{
closed = 1;
nodes = (
"112 716 OFFCURVE",
"85 689 OFFCURVE",
"85 656 CURVE SMOOTH",
"85 623 OFFCURVE",
"112 596 OFFCURVE",
"145 596 CURVE SMOOTH",
"178 596 OFFCURVE",
"205 623 OFFCURVE",
"205 656 CURVE SMOOTH",
"205 689 OFFCURVE",
"178 716 OFFCURVE",
"145 716 CURVE SMOOTH"
);
}
);
width = 279;
},
{
layerId = "99EB5860-B45A-4B60-BB0B-F826C8F71D42";
rightMetricsKey = "=|n-12";
name = Bold;
paths = (
{
closed = 1;
nodes = (
"39 500 LINE",
"39 7 LINE SMOOTH",
"39 -44 OFFCURVE",
"17 -64 OFFCURVE",
"-25 -64 CURVE SMOOTH",
"-45 -64 OFFCURVE",
"-65 -59 OFFCURVE",
"-76 -51 CURVE",
"-104 -184 LINE",
"-63 -206 OFFCURVE",
"-15 -215 OFFCURVE",
"48 -215 CURVE SMOOTH",
"203 -215 OFFCURVE",
"269 -155 OFFCURVE",
"269 -13 CURVE SMOOTH",
"269 500 LINE"
);
},
{
closed = 1;
nodes = (
"62 724 OFFCURVE",
"29 698 OFFCURVE",
"29 628 CURVE SMOOTH",
"29 558 OFFCURVE",
"62 532 OFFCURVE",
"153 532 CURVE SMOOTH",
"246 532 OFFCURVE",
"279 558 OFFCURVE",
"279 628 CURVE SMOOTH",
"279 698 OFFCURVE",
"246 724 OFFCURVE",
"153 724 CURVE SMOOTH"
);
}
);
width = 306;
},
{
layerId = "1C7CD022-87C7-4E11-B656-E47B18819458";
name = Light;
paths = (
{
closed = 1;
nodes = (
"94 500 LINE",
"94 -64 LINE SMOOTH",
"94 -147 OFFCURVE",
"48 -201 OFFCURVE",
"-22 -201 CURVE SMOOTH",
"-46 -201 OFFCURVE",
"-72 -194 OFFCURVE",
"-88 -179 CURVE",
"-93 -193 LINE",
"-77 -207 OFFCURVE",
"-50 -215 OFFCURVE",
"-22 -215 CURVE SMOOTH",
"58 -215 OFFCURVE",
"110 -156 OFFCURVE",
"110 -64 CURVE SMOOTH",
"110 500 LINE"
);
},
{
closed = 1;
nodes = (
"88 652 OFFCURVE",
"77 641 OFFCURVE",
"77 627 CURVE SMOOTH",
"77 613 OFFCURVE",
"88 602 OFFCURVE",
"102 602 CURVE SMOOTH",
"116 602 OFFCURVE",
"127 613 OFFCURVE",
"127 627 CURVE SMOOTH",
"127 641 OFFCURVE",
"116 652 OFFCURVE",
"102 652 CURVE SMOOTH"
);
}
);
width = 197;
}
);
leftKerningGroup = j;
rightKerningGroup = i;
rightMetricsKey = "=n-12";
unicode = 006A;
},
{
glyphname = k;
lastChange = "2014-11-03 12:32:24 +0000";
layers = (
{
anchors = (
{
name = bottom;
position = "{316, 0}";
}
);
layerId = "4A17B37A-CBFD-40E5-9E02-2080A0E1F76C";
leftMetricsKey = "=n";
name = Regular;
paths = (
{
closed = 1;
nodes = (
"433 500 LINE",
"134 201 LINE",
"134 101 LINE",
"298 265 LINE",
"317 284 LINE",
"533 500 LINE"
);
},
{
closed = 1;
nodes = (
"94 730 LINE",
"94 0 LINE",
"174 0 LINE",
"174 730 LINE"
);
},
{
closed = 1;
nodes = (
"257 280 LINE",
"448 0 LINE",
"545 0 LINE",
"324 325 LINE"
);
}
);
width = 559;
},
{
anchors = (
{
name = bottom;
position = "{337, 0}";
}
);
layerId = "99EB5860-B45A-4B60-BB0B-F826C8F71D42";
leftMetricsKey = "=n";
name = Bold;
paths = (
{
closed = 1;
nodes = (
"415 500 LINE",
"234 281 LINE",
"237 58 LINE",
"366 215 LINE",
"406 218 LINE",
"662 500 LINE"
);
},
{
closed = 1;
nodes = (
"39 700 LINE",
"39 0 LINE",
"269 0 LINE",
"269 700 LINE"
);
},
{
closed = 1;
nodes = (
"305 230 LINE",
"423 0 LINE",
"673 0 LINE",
"445 366 LINE"
);
}
);
width = 658;
},
{
anchors = (
{
name = bottom;
position = "{311, 0}";
}
);
layerId = "1C7CD022-87C7-4E11-B656-E47B18819458";
name = Light;
paths = (
{
closed = 1;
nodes = (
"442 500 LINE",
"94 177 LINE",
"94 155 LINE",
"238 289 LINE",
"242 292 LINE",
"466 500 LINE"
);
},
{
closed = 1;
nodes = (
"86 730 LINE",
"86 0 LINE",
"102 0 LINE",
"102 730 LINE"
);
},
{
closed = 1;
nodes = (
"229 291 LINE",
"451 0 LINE",
"471 0 LINE",
"241 302 LINE"
);
}
);
width = 477;
}
);
leftKerningGroup = l.ss02;
leftMetricsKey = n;
rightKerningGroup = k;
unicode = 006B;
},
{
glyphname = l;
lastChange = "2014-11-03 12:32:20 +0000";
layers = (
{
anchors = (
{
name = bottom;
position = "{219, 0}";
},
{
name = top;
position = "{134, 730}";
},
{
name = topright;
position = "{251, 730}";
}
);
layerId = "4A17B37A-CBFD-40E5-9E02-2080A0E1F76C";
name = Regular;
paths = (
{
closed = 1;
nodes = (
"94 730 LINE",
"94 124 LINE SMOOTH",
"94 33 OFFCURVE",
"133 -10 OFFCURVE",
"214 -10 CURVE SMOOTH",
"240 -10 OFFCURVE",
"267 -5 OFFCURVE",
"288 4 CURVE",
"301 81 LINE",
"276 72 OFFCURVE",
"259 67 OFFCURVE",
"228 67 CURVE SMOOTH",
"187 67 OFFCURVE",
"174 83 OFFCURVE",
"174 134 CURVE SMOOTH",
"174 730 LINE"
);
}
);
width = 304;
},
{
anchors = (
{
name = bottom;
position = "{174, 0}";
},
{
name = top;
position = "{144, 700}";
},
{
name = topright;
position = "{317, 700}";
}
);
layerId = "99EB5860-B45A-4B60-BB0B-F826C8F71D42";
name = Bold;
paths = (
{
closed = 1;
nodes = (
"39 700 LINE",
"39 164 LINE SMOOTH",
"39 39 OFFCURVE",
"88 -10 OFFCURVE",
"212 -10 CURVE SMOOTH",
"257 -10 OFFCURVE",
"311 3 OFFCURVE",
"336 22 CURVE",
"346 146 LINE",
"334 144 OFFCURVE",
"325 141 OFFCURVE",
"310 141 CURVE SMOOTH",
"279 141 OFFCURVE",
"269 159 OFFCURVE",
"269 199 CURVE SMOOTH",
"269 700 LINE"
);
}
);
width = 341;
},
{
anchors = (
{
name = bottom;
position = "{184, 0}";
},
{
name = top;
position = "{94, 730}";
},
{
name = topright;
position = "{216, 730}";
}
);
layerId = "1C7CD022-87C7-4E11-B656-E47B18819458";
name = Light;
paths = (
{
closed = 1;
nodes = (
"86 730 LINE",
"86 107 LINE SMOOTH",
"86 25 OFFCURVE",
"119 -10 OFFCURVE",
"183 -10 CURVE SMOOTH",
"211 -10 OFFCURVE",
"229 -4 OFFCURVE",
"243 4 CURVE",
"244 20 LINE",
"227 10 OFFCURVE",
"214 4 OFFCURVE",
"183 4 CURVE SMOOTH",
"130 4 OFFCURVE",
"102 34 OFFCURVE",
"102 107 CURVE SMOOTH",
"102 730 LINE"
);
}
);
width = 240;
}
);
leftKerningGroup = l.ss02;
leftMetricsKey = n;
rightKerningGroup = l;
unicode = 006C;
},
{
glyphname = lacute;
lastChange = "2014-11-03 12:32:30 +0000";
layers = (
{
components = (
{
name = l;
transform = "{1, 0, 0, 1, 0, 0}";
}
);
layerId = "4A17B37A-CBFD-40E5-9E02-2080A0E1F76C";
name = Regular;
paths = (
{
closed = 1;
nodes = (
"98 800 LINE",
"162 800 LINE",
"223 930 LINE",
"135 930 LINE"
);
}
);
width = 304;
},
{
components = (
{
name = l;
transform = "{1, 0, 0, 1, 0, 0}";
}
);
layerId = "99EB5860-B45A-4B60-BB0B-F826C8F71D42";
name = Bold;
paths = (
{
closed = 1;
nodes = (
"73 746 LINE",
"235 746 LINE",
"326 913 LINE",
"131 913 LINE"
);
}
);
width = 341;
},
{
components = (
{
name = l;
transform = "{1, 0, 0, 1, 0, 0}";
}
);
layerId = "1C7CD022-87C7-4E11-B656-E47B18819458";
name = Light;
paths = (
{
closed = 1;
nodes = (
"87 793 LINE",
"101 793 LINE",
"146 930 LINE",
"128 930 LINE"
);
}
);
width = 240;
}
);
leftKerningGroup = l.ss02;
leftMetricsKey = n;
rightKerningGroup = l;
rightMetricsKey = l;
unicode = 013A;
},
{
glyphname = lslash;
lastChange = "2014-11-03 12:32:19 +0000";
layers = (
{
components = (
{
name = l;
transform = "{1, 0, 0, 1, 29, 0}";
}
);
layerId = "4A17B37A-CBFD-40E5-9E02-2080A0E1F76C";
name = Regular;
paths = (
{
closed = 1;
nodes = (
"163 398 LINE",
"27 312 LINE",
"27 229 LINE",
"175 323 LINE",
"323 417 LINE",
"323 500 LINE"
);
}
);
width = 349;
},
{
components = (
{
disableAlignment = 1;
name = l;
transform = "{1, 0, 0, 1, 39, 0}";
}
);
layerId = "99EB5860-B45A-4B60-BB0B-F826C8F71D42";
name = Bold;
paths = (
{
closed = 1;
nodes = (
"185 375 LINE",
"-2 297 LINE",
"-2 145 LINE",
"236 300 LINE",
"402 365 LINE",
"402 518 LINE"
);
}
);
width = 410;
},
{
components = (
{
name = l;
transform = "{1, 0, 0, 1, 20, 0}";
}
);
layerId = "1C7CD022-87C7-4E11-B656-E47B18819458";
name = Light;
paths = (
{
closed = 1;
nodes = (
"113 359 LINE",
"9 284 LINE",
"9 267 LINE",
"115 343 LINE",
"247 438 LINE",
"247 455 LINE"
);
}
);
width = 270;
}
);
leftKerningGroup = lslash;
rightKerningGroup = lslash;
unicode = 0142;
},
{
glyphname = m;
lastChange = "2014-11-03 12:32:28 +0000";
layers = (
{
guideLines = (
{
position = "{194, 423}";
}
);
layerId = "4A17B37A-CBFD-40E5-9E02-2080A0E1F76C";
leftMetricsKey = "=n";
rightMetricsKey = "=n";
name = Regular;
paths = (
{
closed = 1;
nodes = (
"595 510 OFFCURVE",
"487 461 OFFCURVE",
"487 346 CURVE",
"520 274 LINE",
"520 381 OFFCURVE",
"590 440 OFFCURVE",
"668 440 CURVE SMOOTH",
"734 440 OFFCURVE",
"786 403 OFFCURVE",
"786 312 CURVE SMOOTH",
"786 0 LINE",
"866 0 LINE",
"866 320 LINE SMOOTH",
"866 452 OFFCURVE",
"771 510 OFFCURVE",
"675 510 CURVE SMOOTH"
);
},
{
closed = 1;
nodes = (
"94 500 LINE",
"94 383 LINE",
"94 0 LINE",
"174 0 LINE",
"174 379 LINE",
"171 383 LINE",
"164 500 LINE"
);
},
{
closed = 1;
nodes = (
"234 510 OFFCURVE",
"137 445 OFFCURVE",
"137 293 CURVE",
"174 267 LINE",
"174 391 OFFCURVE",
"256 440 OFFCURVE",
"322 440 CURVE SMOOTH",
"388 440 OFFCURVE",
"440 403 OFFCURVE",
"440 312 CURVE SMOOTH",
"440 0 LINE",
"520 0 LINE",
"520 320 LINE SMOOTH",
"520 452 OFFCURVE",
"425 510 OFFCURVE",
"329 510 CURVE SMOOTH"
);
}
);
width = 954;
},
{
guideLines = (
{
position = "{187, 423}";
}
);
layerId = "99EB5860-B45A-4B60-BB0B-F826C8F71D42";
leftMetricsKey = "=n";
rightMetricsKey = "=n";
name = Bold;
paths = (
{
closed = 1;
nodes = (
"612 510 OFFCURVE",
"544 418 OFFCURVE",
"544 262 CURVE",
"582 262 LINE",
"582 316 OFFCURVE",
"597 340 OFFCURVE",
"630 340 CURVE SMOOTH",
"654 340 OFFCURVE",
"665 327 OFFCURVE",
"665 282 CURVE SMOOTH",
"665 0 LINE",
"895 0 LINE",
"895 342 LINE SMOOTH",
"895 449 OFFCURVE",
"837 510 OFFCURVE",
"738 510 CURVE SMOOTH"
);
},
{
closed = 1;
nodes = (
"39 500 LINE",
"39 281 LINE",
"39 0 LINE",
"269 0 LINE",
"269 281 LINE",
"254 338 LINE",
"246 500 LINE"
);
},
{
closed = 1;
nodes = (
"299 510 OFFCURVE",
"231 418 OFFCURVE",
"231 262 CURVE",
"269 262 LINE",
"269 316 OFFCURVE",
"284 340 OFFCURVE",
"317 340 CURVE SMOOTH",
"341 340 OFFCURVE",
"352 327 OFFCURVE",
"352 282 CURVE SMOOTH",
"352 0 LINE",
"582 0 LINE",
"582 342 LINE SMOOTH",
"582 449 OFFCURVE",
"524 510 OFFCURVE",
"425 510 CURVE SMOOTH"
);
}
);
width = 933;
},
{
layerId = "1C7CD022-87C7-4E11-B656-E47B18819458";
name = Light;
paths = (
{
closed = 1;
nodes = (
"579 512 OFFCURVE",
"489 425 OFFCURVE",
"489 319 CURVE",
"496 303 LINE",
"496 407 OFFCURVE",
"584 498 OFFCURVE",
"701 498 CURVE SMOOTH",
"807 498 OFFCURVE",
"874 436 OFFCURVE",
"874 329 CURVE SMOOTH",
"874 2 LINE",
"890 2 LINE",
"890 331 LINE SMOOTH",
"890 446 OFFCURVE",
"819 512 OFFCURVE",
"704 512 CURVE SMOOTH"
);
},
{
closed = 1;
nodes = (
"86 500 LINE",
"86 301 LINE",
"86 0 LINE",
"102 0 LINE",
"102 334 LINE",
"102 341 LINE",
"102 500 LINE"
);
},
{
closed = 1;
nodes = (
"185 510 OFFCURVE",
"95 423 OFFCURVE",
"95 317 CURVE",
"102 301 LINE",
"102 405 OFFCURVE",
"190 496 OFFCURVE",
"307 496 CURVE SMOOTH",
"413 496 OFFCURVE",
"480 434 OFFCURVE",
"480 327 CURVE SMOOTH",
"480 0 LINE",
"496 0 LINE",
"496 329 LINE SMOOTH",
"496 444 OFFCURVE",
"425 510 OFFCURVE",
"310 510 CURVE SMOOTH"
);
}
);
width = 972;
}
);
leftKerningGroup = n;
leftMetricsKey = n;
rightKerningGroup = n;
rightMetricsKey = n;
unicode = 006D;
},
{
glyphname = n;
lastChange = "2014-11-03 12:32:19 +0000";
layers = (
{
anchors = (
{
name = bottom;
position = "{343, 0}";
},
{
name = top;
position = "{319, 500}";
}
);
layerId = "4A17B37A-CBFD-40E5-9E02-2080A0E1F76C";
name = Regular;
paths = (
{
closed = 1;
nodes = (
"232 510 OFFCURVE",
"139 451 OFFCURVE",
"139 291 CURVE",
"174 266 LINE",
"174 394 OFFCURVE",
"256 440 OFFCURVE",
"329 440 CURVE SMOOTH",
"398 440 OFFCURVE",
"452 403 OFFCURVE",
"452 292 CURVE SMOOTH",
"452 0 LINE",
"532 0 LINE",
"532 320 LINE SMOOTH",
"532 449 OFFCURVE",
"444 510 OFFCURVE",
"337 510 CURVE SMOOTH"
);
},
{
closed = 1;
nodes = (
"94 500 LINE",
"94 383 LINE",
"94 0 LINE",
"174 0 LINE",
"174 377 LINE",
"171 383 LINE",
"164 500 LINE"
);
}
);
width = 620;
},
{
anchors = (
{
name = bottom;
position = "{303, 0}";
},
{
name = top;
position = "{309, 500}";
}
);
layerId = "99EB5860-B45A-4B60-BB0B-F826C8F71D42";
name = Bold;
paths = (
{
closed = 1;
nodes = (
"299 510 OFFCURVE",
"231 418 OFFCURVE",
"231 262 CURVE",
"269 262 LINE",
"269 316 OFFCURVE",
"284 340 OFFCURVE",
"317 340 CURVE SMOOTH",
"341 340 OFFCURVE",
"352 327 OFFCURVE",
"352 282 CURVE SMOOTH",
"352 0 LINE",
"582 0 LINE",
"582 342 LINE SMOOTH",
"582 449 OFFCURVE",
"524 510 OFFCURVE",
"425 510 CURVE SMOOTH"
);
},
{
closed = 1;
nodes = (
"39 500 LINE",
"39 281 LINE",
"39 0 LINE",
"269 0 LINE",
"269 281 LINE",
"254 338 LINE",
"246 500 LINE"
);
}
);
width = 620;
},
{
anchors = (
{
name = bottom;
position = "{324, 0}";
},
{
name = top;
position = "{294, 500}";
}
);
layerId = "1C7CD022-87C7-4E11-B656-E47B18819458";
name = Light;
paths = (
{
closed = 1;
nodes = (
"185 510 OFFCURVE",
"95 423 OFFCURVE",
"95 317 CURVE",
"102 301 LINE",
"102 405 OFFCURVE",
"190 496 OFFCURVE",
"307 496 CURVE SMOOTH",
"413 496 OFFCURVE",
"480 434 OFFCURVE",
"480 327 CURVE SMOOTH",
"480 0 LINE",
"496 0 LINE",
"496 329 LINE SMOOTH",
"496 444 OFFCURVE",
"425 510 OFFCURVE",
"310 510 CURVE SMOOTH"
);
},
{
closed = 1;
nodes = (
"86 500 LINE",
"86 301 LINE",
"86 0 LINE",
"102 0 LINE",
"102 292 LINE",
"102 301 LINE",
"102 500 LINE"
);
}
);
width = 578;
}
);
leftKerningGroup = n;
rightKerningGroup = n;
unicode = 006E;
},
{
glyphname = o;
lastChange = "2014-11-03 12:32:27 +0000";
layers = (
{
anchors = (
{
name = top;
position = "{304, 500}";
}
);
layerId = "4A17B37A-CBFD-40E5-9E02-2080A0E1F76C";
name = Regular;
paths = (
{
closed = 1;
nodes = (
"153 510 OFFCURVE",
"62 412 OFFCURVE",
"62 250 CURVE SMOOTH",
"62 88 OFFCURVE",
"153 -10 OFFCURVE",
"304 -10 CURVE SMOOTH",
"455 -10 OFFCURVE",
"546 88 OFFCURVE",
"546 250 CURVE SMOOTH",
"546 412 OFFCURVE",
"455 510 OFFCURVE",
"304 510 CURVE SMOOTH"
);
},
{
closed = 1;
nodes = (
"405 440 OFFCURVE",
"466 369 OFFCURVE",
"466 250 CURVE SMOOTH",
"466 131 OFFCURVE",
"405 60 OFFCURVE",
"304 60 CURVE SMOOTH",
"203 60 OFFCURVE",
"142 131 OFFCURVE",
"142 250 CURVE SMOOTH",
"142 369 OFFCURVE",
"203 440 OFFCURVE",
"304 440 CURVE SMOOTH"
);
}
);
width = 608;
},
{
anchors = (
{
name = top;
position = "{299, 500}";
}
);
layerId = "99EB5860-B45A-4B60-BB0B-F826C8F71D42";
name = Bold;
paths = (
{
closed = 1;
nodes = (
"122 510 OFFCURVE",
"20 415 OFFCURVE",
"20 250 CURVE SMOOTH",
"20 85 OFFCURVE",
"122 -10 OFFCURVE",
"299 -10 CURVE SMOOTH",
"476 -10 OFFCURVE",
"578 85 OFFCURVE",
"578 250 CURVE SMOOTH",
"578 415 OFFCURVE",
"476 510 OFFCURVE",
"299 510 CURVE SMOOTH"
);
},
{
closed = 1;
nodes = (
"337 355 OFFCURVE",
"347 334 OFFCURVE",
"347 250 CURVE SMOOTH",
"347 166 OFFCURVE",
"337 145 OFFCURVE",
"299 145 CURVE SMOOTH",
"261 145 OFFCURVE",
"251 166 OFFCURVE",
"251 250 CURVE SMOOTH",
"251 334 OFFCURVE",
"261 355 OFFCURVE",
"299 355 CURVE SMOOTH"
);
}
);
width = 598;
},
{
anchors = (
{
name = top;
position = "{280, 500}";
}
);
layerId = "1C7CD022-87C7-4E11-B656-E47B18819458";
name = Light;
paths = (
{
closed = 1;
nodes = (
"135 510 OFFCURVE",
"46 412 OFFCURVE",
"46 250 CURVE SMOOTH",
"46 88 OFFCURVE",
"135 -10 OFFCURVE",
"280 -10 CURVE SMOOTH",
"425 -10 OFFCURVE",
"513 88 OFFCURVE",
"513 250 CURVE SMOOTH",
"513 412 OFFCURVE",
"425 510 OFFCURVE",
"280 510 CURVE SMOOTH"
);
},
{
closed = 1;
nodes = (
"415 496 OFFCURVE",
"497 403 OFFCURVE",
"497 250 CURVE SMOOTH",
"497 97 OFFCURVE",
"415 4 OFFCURVE",
"280 4 CURVE SMOOTH",
"145 4 OFFCURVE",
"62 97 OFFCURVE",
"62 250 CURVE SMOOTH",
"62 403 OFFCURVE",
"145 496 OFFCURVE",
"280 496 CURVE SMOOTH"
);
}
);
width = 559;
}
);
leftKerningGroup = o;
rightKerningGroup = o;
unicode = 006F;
},
{
color = 11;
glyphname = oslash;
lastChange = "2014-11-03 12:32:28 +0000";
layers = (
{
components = (
{
name = o;
transform = "{1, 0, 0, 1, 0, 0}";
}
);
layerId = "1C7CD022-87C7-4E11-B656-E47B18819458";
name = Light;
paths = (
{
closed = 1;
nodes = (
"501 530 LINE",
"58 -30 LINE",
"79 -30 LINE",
"522 530 LINE"
);
}
);
width = 568;
},
{
components = (
{
name = o;
transform = "{1, 0, 0, 1, 0, 0}";
}
);
layerId = "4A17B37A-CBFD-40E5-9E02-2080A0E1F76C";
name = Regular;
paths = (
{
closed = 1;
nodes = (
"485 523 LINE",
"62 -37 LINE",
"129 -37 LINE",
"552 523 LINE"
);
}
);
width = 614;
},
{
components = (
{
name = o;
transform = "{1, 0, 0, 1, 0, 0}";
}
);
layerId = "99EB5860-B45A-4B60-BB0B-F826C8F71D42";
name = Bold;
paths = (
{
closed = 1;
nodes = (
"178 123 LINE",
"215 90 LINE",
"438 388 LINE",
"401 423 LINE"
);
},
{
closed = 1;
nodes = (
"111 -21 LINE",
"198 95 LINE",
"162 131 LINE",
"44 -21 LINE"
);
},
{
closed = 1;
nodes = (
"499 520 LINE",
"414 413 LINE",
"449 376 LINE",
"566 520 LINE"
);
}
);
width = 598;
},
{
associatedMasterId = "4A17B37A-CBFD-40E5-9E02-2080A0E1F76C";
components = (
{
name = o;
transform = "{1, 0, 0, 1, 0, 0}";
}
);
layerId = "78D6FC58-80C7-4C28-ADED-F29B19E92341";
name = "Regular [106]";
paths = (
{
closed = 1;
nodes = (
"160 93 LINE",
"197 54 LINE",
"466 409 LINE",
"424 443 LINE"
);
},
{
closed = 1;
nodes = (
"129 -37 LINE",
"197 54 LINE",
"160 93 LINE",
"62 -37 LINE"
);
},
{
closed = 1;
nodes = (
"485 523 LINE",
"424 443 LINE",
"466 409 LINE",
"552 523 LINE"
);
}
);
width = 614;
}
);
leftKerningGroup = o;
leftMetricsKey = o;
rightKerningGroup = o;
rightMetricsKey = o;
unicode = 00F8;
},
{
glyphname = oe;
lastChange = "2014-11-03 12:32:20 +0000";
layers = (
{
layerId = "4A17B37A-CBFD-40E5-9E02-2080A0E1F76C";
leftMetricsKey = "=o";
rightMetricsKey = "=e";
name = Regular;
paths = (
{
closed = 1;
nodes = (
"153 510 OFFCURVE",
"62 412 OFFCURVE",
"62 250 CURVE SMOOTH",
"62 88 OFFCURVE",
"153 -10 OFFCURVE",
"307 -10 CURVE SMOOTH",
"455 -10 OFFCURVE",
"542 88 OFFCURVE",
"542 250 CURVE SMOOTH",
"542 412 OFFCURVE",
"455 510 OFFCURVE",
"307 510 CURVE SMOOTH"
);
},
{
closed = 1;
nodes = (
"408 440 OFFCURVE",
"469 369 OFFCURVE",
"469 250 CURVE SMOOTH",
"469 131 OFFCURVE",
"408 60 OFFCURVE",
"307 60 CURVE SMOOTH",
"206 60 OFFCURVE",
"145 131 OFFCURVE",
"145 250 CURVE SMOOTH",
"145 369 OFFCURVE",
"206 440 OFFCURVE",
"307 440 CURVE SMOOTH"
);
},
{
closed = 1;
nodes = (
"560 510 OFFCURVE",
"479 412 OFFCURVE",
"479 250 CURVE SMOOTH",
"479 88 OFFCURVE",
"566 -10 OFFCURVE",
"711 -10 CURVE SMOOTH",
"819 -10 OFFCURVE",
"881 31 OFFCURVE",
"919 99 CURVE",
"852 134 LINE",
"834 86 OFFCURVE",
"784 60 OFFCURVE",
"711 60 CURVE SMOOTH",
"610 60 OFFCURVE",
"547 131 OFFCURVE",
"547 250 CURVE SMOOTH",
"547 369 OFFCURVE",
"604 440 OFFCURVE",
"705 440 CURVE SMOOTH",
"800 440 OFFCURVE",
"858 368 OFFCURVE",
"854 255 CURVE SMOOTH",
"853 220 LINE",
"930 220 LINE",
"930 255 LINE SMOOTH",
"930 412 OFFCURVE",
"850 510 OFFCURVE",
"705 510 CURVE SMOOTH"
);
},
{
closed = 1;
nodes = (
"521 291 LINE",
"521 220 LINE",
"893 220 LINE",
"893 291 LINE"
);
}
);
width = 991;
},
{
layerId = "99EB5860-B45A-4B60-BB0B-F826C8F71D42";
leftMetricsKey = "=o";
rightMetricsKey = "=e";
name = Bold;
paths = (
{
closed = 1;
nodes = (
"123 510 OFFCURVE",
"20 415 OFFCURVE",
"20 250 CURVE SMOOTH",
"20 85 OFFCURVE",
"123 -10 OFFCURVE",
"285 -10 CURVE SMOOTH",
"445 -10 OFFCURVE",
"528 85 OFFCURVE",
"528 250 CURVE SMOOTH",
"528 415 OFFCURVE",
"445 510 OFFCURVE",
"285 510 CURVE SMOOTH"
);
},
{
closed = 1;
nodes = (
"337 356 OFFCURVE",
"347 334 OFFCURVE",
"347 250 CURVE SMOOTH",
"347 165 OFFCURVE",
"337 145 OFFCURVE",
"299 145 CURVE SMOOTH",
"262 145 OFFCURVE",
"252 165 OFFCURVE",
"252 250 CURVE SMOOTH",
"252 334 OFFCURVE",
"262 356 OFFCURVE",
"299 356 CURVE SMOOTH"
);
},
{
closed = 1;
nodes = (
"496 510 OFFCURVE",
"412 416 OFFCURVE",
"412 250 CURVE SMOOTH",
"412 84 OFFCURVE",
"498 -10 OFFCURVE",
"676 -10 CURVE SMOOTH",
"778 -10 OFFCURVE",
"879 45 OFFCURVE",
"902 135 CURVE",
"716 186 LINE",
"709 157 OFFCURVE",
"694 145 OFFCURVE",
"655 145 CURVE SMOOTH",
"612 145 OFFCURVE",
"585 159 OFFCURVE",
"585 246 CURVE SMOOTH",
"585 329 OFFCURVE",
"603 356 OFFCURVE",
"643 356 CURVE SMOOTH",
"683 356 OFFCURVE",
"696 329 OFFCURVE",
"696 249 CURVE SMOOTH",
"696 206 LINE",
"912 206 LINE",
"913 236 LINE SMOOTH",
"919 412 OFFCURVE",
"820 510 OFFCURVE",
"664 510 CURVE SMOOTH"
);
},
{
closed = 1;
nodes = (
"515 290 LINE",
"515 206 LINE",
"806 206 LINE",
"806 290 LINE"
);
}
);
width = 941;
},
{
anchors = (
{
name = bottom;
position = "{731, 0}";
},
{
name = ogonek;
position = "{875, 0}";
},
{
name = top;
position = "{722, 500}";
}
);
layerId = "1C7CD022-87C7-4E11-B656-E47B18819458";
name = Light;
paths = (
{
closed = 1;
nodes = (
"135 510 OFFCURVE",
"46 412 OFFCURVE",
"46 250 CURVE SMOOTH",
"46 88 OFFCURVE",
"135 -10 OFFCURVE",
"280 -10 CURVE SMOOTH",
"425 -10 OFFCURVE",
"513 88 OFFCURVE",
"513 250 CURVE SMOOTH",
"513 412 OFFCURVE",
"425 510 OFFCURVE",
"280 510 CURVE SMOOTH"
);
},
{
closed = 1;
nodes = (
"415 496 OFFCURVE",
"497 403 OFFCURVE",
"497 250 CURVE SMOOTH",
"497 97 OFFCURVE",
"415 4 OFFCURVE",
"280 4 CURVE SMOOTH",
"145 4 OFFCURVE",
"62 97 OFFCURVE",
"62 250 CURVE SMOOTH",
"62 403 OFFCURVE",
"145 496 OFFCURVE",
"280 496 CURVE SMOOTH"
);
},
{
closed = 1;
nodes = (
"582 510 OFFCURVE",
"498 413 OFFCURVE",
"498 250 CURVE SMOOTH",
"498 87 OFFCURVE",
"583 -10 OFFCURVE",
"727 -10 CURVE SMOOTH",
"818 -10 OFFCURVE",
"894 35 OFFCURVE",
"929 109 CURVE",
"916 116 LINE",
"883 46 OFFCURVE",
"811 4 OFFCURVE",
"727 4 CURVE SMOOTH",
"592 4 OFFCURVE",
"513 96 OFFCURVE",
"513 250 CURVE SMOOTH",
"513 404 OFFCURVE",
"591 496 OFFCURVE",
"722 496 CURVE SMOOTH",
"850 496 OFFCURVE",
"919 401 OFFCURVE",
"919 244 CURVE SMOOTH",
"919 239 LINE",
"933 239 LINE",
"933 246 LINE SMOOTH",
"933 411 OFFCURVE",
"854 510 OFFCURVE",
"722 510 CURVE SMOOTH"
);
},
{
closed = 1;
nodes = (
"506 254 LINE",
"506 239 LINE",
"928 239 LINE",
"928 254 LINE"
);
}
);
width = 970;
}
);
leftKerningGroup = o;
leftMetricsKey = o;
rightKerningGroup = e;
rightMetricsKey = e;
unicode = 0153;
},
{
glyphname = p;
lastChange = "2014-11-03 12:32:28 +0000";
layers = (
{
components = (
{
name = bowl;
transform = "{-1, 0, 0, -1, 648, 500}";
}
);
layerId = "4A17B37A-CBFD-40E5-9E02-2080A0E1F76C";
name = Regular;
paths = (
{
closed = 1;
nodes = (
"94 500 LINE",
"94 383 LINE",
"94 -210 LINE",
"174 -210 LINE",
"174 376 LINE",
"171 383 LINE",
"164 500 LINE"
);
}
);
width = 630;
},
{
components = (
{
name = bowl;
transform = "{-1, 0, 0, -1, 682, 500}";
}
);
layerId = "99EB5860-B45A-4B60-BB0B-F826C8F71D42";
rightMetricsKey = "=o+5";
name = Bold;
paths = (
{
closed = 1;
nodes = (
"39 500 LINE",
"39 281 LINE",
"39 -210 LINE",
"269 -210 LINE",
"269 281 LINE",
"249 338 LINE",
"241 500 LINE"
);
}
);
width = 627;
},
{
components = (
{
name = bowl;
transform = "{-1, 0, 0, -1, 659, 500}";
}
);
layerId = "1C7CD022-87C7-4E11-B656-E47B18819458";
name = Light;
paths = (
{
closed = 1;
nodes = (
"86 500 LINE",
"86 399 LINE",
"86 -210 LINE",
"102 -210 LINE",
"102 317 LINE",
"102 321 LINE",
"102 500 LINE"
);
}
);
width = 581;
}
);
leftKerningGroup = p;
leftMetricsKey = n;
rightKerningGroup = o;
rightMetricsKey = o;
unicode = 0070;
},
{
glyphname = thorn;
lastChange = "2014-11-03 12:32:31 +0000";
layers = (
{
layerId = "4A17B37A-CBFD-40E5-9E02-2080A0E1F76C";
leftMetricsKey = "=n";
rightMetricsKey = "=o";
name = Regular;
paths = (
{
closed = 1;
nodes = (
"94 730 LINE",
"94 -210 LINE",
"174 -210 LINE",
"174 730 LINE"
);
},
{
closed = 1;
nodes = (
"223 510 OFFCURVE",
"145 432 OFFCURVE",
"145 337 CURVE",
"174 256 LINE",
"174 369 OFFCURVE",
"236 440 OFFCURVE",
"331 440 CURVE SMOOTH",
"429 440 OFFCURVE",
"488 366 OFFCURVE",
"488 250 CURVE SMOOTH",
"488 134 OFFCURVE",
"429 60 OFFCURVE",
"331 60 CURVE SMOOTH",
"236 60 OFFCURVE",
"174 131 OFFCURVE",
"174 244 CURVE",
"145 163 LINE",
"145 68 OFFCURVE",
"223 -10 OFFCURVE",
"340 -10 CURVE SMOOTH",
"479 -10 OFFCURVE",
"568 87 OFFCURVE",
"568 250 CURVE SMOOTH",
"568 413 OFFCURVE",
"479 510 OFFCURVE",
"340 510 CURVE SMOOTH"
);
}
);
width = 630;
},
{
anchors = (
{
name = bottom;
position = "{377, 0}";
},
{
name = top;
position = "{377, 500}";
}
);
layerId = "99EB5860-B45A-4B60-BB0B-F826C8F71D42";
leftMetricsKey = "=n";
rightMetricsKey = "=o+5";
name = Bold;
paths = (
{
closed = 1;
nodes = (
"39 700 LINE",
"39 -210 LINE",
"269 -210 LINE",
"269 700 LINE"
);
},
{
closed = 1;
nodes = (
"295 510 OFFCURVE",
"249 397 OFFCURVE",
"249 280 CURVE",
"269 254 LINE",
"269 323 OFFCURVE",
"287 349 OFFCURVE",
"318 349 CURVE SMOOTH",
"357 349 OFFCURVE",
"370 329 OFFCURVE",
"370 250 CURVE SMOOTH",
"370 171 OFFCURVE",
"357 152 OFFCURVE",
"318 152 CURVE SMOOTH",
"284 152 OFFCURVE",
"269 182 OFFCURVE",
"269 246 CURVE",
"242 220 LINE",
"242 90 OFFCURVE",
"289 -10 OFFCURVE",
"409 -10 CURVE SMOOTH",
"481 -10 OFFCURVE",
"602 35 OFFCURVE",
"602 258 CURVE SMOOTH",
"602 439 OFFCURVE",
"514 510 OFFCURVE",
"418 510 CURVE SMOOTH"
);
}
);
width = 627;
},
{
layerId = "1C7CD022-87C7-4E11-B656-E47B18819458";
name = Light;
paths = (
{
closed = 1;
nodes = (
"86 730 LINE",
"86 -210 LINE",
"102 -210 LINE",
"102 730 LINE"
);
},
{
closed = 1;
nodes = (
"177 510 OFFCURVE",
"92 420 OFFCURVE",
"92 267 CURVE",
"102 253 LINE",
"102 404 OFFCURVE",
"181 496 OFFCURVE",
"303 496 CURVE SMOOTH",
"439 496 OFFCURVE",
"519 405 OFFCURVE",
"519 250 CURVE SMOOTH",
"519 95 OFFCURVE",
"439 4 OFFCURVE",
"303 4 CURVE SMOOTH",
"182 4 OFFCURVE",
"102 95 OFFCURVE",
"102 246 CURVE",
"93 230 LINE",
"93 79 OFFCURVE",
"176 -10 OFFCURVE",
"306 -10 CURVE SMOOTH",
"450 -10 OFFCURVE",
"535 87 OFFCURVE",
"535 250 CURVE SMOOTH",
"535 413 OFFCURVE",
"450 510 OFFCURVE",
"306 510 CURVE SMOOTH"
);
}
);
width = 581;
}
);
leftKerningGroup = thorn;
leftMetricsKey = n;
rightKerningGroup = o;
rightMetricsKey = o;
unicode = 00FE;
},
{
glyphname = q;
lastChange = "2014-11-03 12:32:27 +0000";
layers = (
{
components = (
{
name = bowl;
transform = "{1, 0, 0, -1, -18, 500}";
}
);
layerId = "4A17B37A-CBFD-40E5-9E02-2080A0E1F76C";
leftMetricsKey = "=o";
rightMetricsKey = "=|n";
name = Regular;
paths = (
{
closed = 1;
nodes = (
"466 500 LINE",
"459 383 LINE",
"456 377 LINE",
"456 -210 LINE",
"536 -210 LINE",
"536 383 LINE",
"536 500 LINE"
);
}
);
width = 630;
},
{
components = (
{
name = bowl;
transform = "{1, 0, 0, -1, -55, 500}";
}
);
layerId = "99EB5860-B45A-4B60-BB0B-F826C8F71D42";
leftMetricsKey = "=o+5";
rightMetricsKey = "=|n";
name = Bold;
paths = (
{
closed = 1;
nodes = (
"386 500 LINE",
"378 338 LINE",
"358 281 LINE",
"358 -210 LINE",
"588 -210 LINE",
"588 281 LINE",
"588 500 LINE"
);
}
);
width = 627;
},
{
components = (
{
name = bowl;
transform = "{1, 0, 0, -1, -78, 500}";
}
);
layerId = "1C7CD022-87C7-4E11-B656-E47B18819458";
name = Light;
paths = (
{
closed = 1;
nodes = (
"479 500 LINE",
"479 318 LINE",
"479 309 LINE",
"479 -210 LINE",
"495 -210 LINE",
"495 399 LINE",
"495 500 LINE"
);
}
);
width = 581;
}
);
leftKerningGroup = o;
leftMetricsKey = o;
rightKerningGroup = q;
rightMetricsKey = "=|n";
unicode = 0071;
},
{
glyphname = r;
lastChange = "2014-11-03 12:32:30 +0000";
layers = (
{
anchors = (
{
name = bottom;
position = "{155, 0}";
},
{
name = top;
position = "{221, 500}";
}
);
layerId = "4A17B37A-CBFD-40E5-9E02-2080A0E1F76C";
leftMetricsKey = "=n";
name = Regular;
paths = (
{
closed = 1;
nodes = (
"211 510 OFFCURVE",
"147 438 OFFCURVE",
"147 295 CURVE",
"174 270 LINE",
"174 382 OFFCURVE",
"246 435 OFFCURVE",
"306 435 CURVE SMOOTH",
"332 435 OFFCURVE",
"354 430 OFFCURVE",
"369 422 CURVE",
"385 500 LINE",
"370 508 OFFCURVE",
"347 510 OFFCURVE",
"330 510 CURVE SMOOTH"
);
},
{
closed = 1;
nodes = (
"94 500 LINE",
"94 383 LINE",
"94 0 LINE",
"174 0 LINE",
"174 372 LINE",
"174 383 LINE",
"159 500 LINE"
);
}
);
width = 389;
},
{
anchors = (
{
name = bottom;
position = "{142, 0}";
},
{
name = top;
position = "{241, 500}";
}
);
layerId = "99EB5860-B45A-4B60-BB0B-F826C8F71D42";
leftMetricsKey = "=n";
name = Bold;
paths = (
{
closed = 1;
nodes = (
"282 510 OFFCURVE",
"236 394 OFFCURVE",
"236 240 CURVE",
"269 240 LINE",
"269 297 OFFCURVE",
"308 326 OFFCURVE",
"368 326 CURVE SMOOTH",
"395 326 OFFCURVE",
"419 319 OFFCURVE",
"431 310 CURVE",
"450 498 LINE",
"443 503 OFFCURVE",
"428 510 OFFCURVE",
"398 510 CURVE SMOOTH"
);
},
{
closed = 1;
nodes = (
"39 500 LINE",
"39 281 LINE",
"39 0 LINE",
"269 0 LINE",
"269 281 LINE",
"254 307 LINE",
"246 500 LINE"
);
}
);
width = 444;
},
{
anchors = (
{
name = bottom;
position = "{106, 0}";
},
{
name = top;
position = "{196, 500}";
}
);
layerId = "1C7CD022-87C7-4E11-B656-E47B18819458";
name = Light;
paths = (
{
closed = 1;
nodes = (
"163 510 OFFCURVE",
"93 411 OFFCURVE",
"93 305 CURVE",
"102 291 LINE",
"102 395 OFFCURVE",
"171 496 OFFCURVE",
"264 496 CURVE SMOOTH",
"301 496 OFFCURVE",
"315 487 OFFCURVE",
"328 474 CURVE",
"337 486 LINE",
"323 500 OFFCURVE",
"302 510 OFFCURVE",
"266 510 CURVE SMOOTH"
);
},
{
closed = 1;
nodes = (
"86 500 LINE",
"86 291 LINE",
"86 0 LINE",
"102 0 LINE",
"102 334 LINE",
"102 341 LINE",
"102 500 LINE"
);
}
);
width = 343;
}
);
leftKerningGroup = n;
leftMetricsKey = n;
rightKerningGroup = r;
unicode = 0072;
},
{
glyphname = s;
lastChange = "2014-11-03 12:32:20 +0000";
layers = (
{
anchors = (
{
name = bottom;
position = "{266, 0}";
},
{
name = top;
position = "{251, 500}";
}
);
layerId = "4A17B37A-CBFD-40E5-9E02-2080A0E1F76C";
name = Regular;
paths = (
{
closed = 1;
nodes = (
"129 510 OFFCURVE",
"54 441 OFFCURVE",
"54 360 CURVE SMOOTH",
"54 166 OFFCURVE",
"379 249 OFFCURVE",
"379 134 CURVE SMOOTH",
"379 93 OFFCURVE",
"340 60 OFFCURVE",
"258 60 CURVE SMOOTH",
"186 60 OFFCURVE",
"124 87 OFFCURVE",
"100 148 CURVE",
"35 103 LINE",
"73 26 OFFCURVE",
"158 -10 OFFCURVE",
"250 -10 CURVE SMOOTH",
"378 -10 OFFCURVE",
"459 51 OFFCURVE",
"459 138 CURVE SMOOTH",
"459 335 OFFCURVE",
"134 241 OFFCURVE",
"134 367 CURVE SMOOTH",
"134 404 OFFCURVE",
"184 440 OFFCURVE",
"251 440 CURVE SMOOTH",
"314 440 OFFCURVE",
"359 416 OFFCURVE",
"381 350 CURVE",
"449 390 LINE",
"421 472 OFFCURVE",
"358 510 OFFCURVE",
"251 510 CURVE SMOOTH"
);
}
);
width = 494;
},
{
anchors = (
{
name = bottom;
position = "{270, 0}";
},
{
name = top;
position = "{282, 500}";
}
);
layerId = "99EB5860-B45A-4B60-BB0B-F826C8F71D42";
name = Bold;
paths = (
{
closed = 1;
nodes = (
"97 510 OFFCURVE",
"16 418 OFFCURVE",
"16 336 CURVE SMOOTH",
"16 164 OFFCURVE",
"298 188 OFFCURVE",
"298 143 CURVE SMOOTH",
"298 132 OFFCURVE",
"277 128 OFFCURVE",
"254 128 CURVE SMOOTH",
"195 128 OFFCURVE",
"143 154 OFFCURVE",
"107 186 CURVE",
"6 64 LINE",
"65 11 OFFCURVE",
"149 -10 OFFCURVE",
"271 -10 CURVE SMOOTH",
"454 -10 OFFCURVE",
"529 74 OFFCURVE",
"529 170 CURVE SMOOTH",
"529 353 OFFCURVE",
"247 320 OFFCURVE",
"247 354 CURVE SMOOTH",
"247 363 OFFCURVE",
"259 372 OFFCURVE",
"298 372 CURVE SMOOTH",
"346 372 OFFCURVE",
"397 363 OFFCURVE",
"431 323 CURVE",
"528 437 LINE",
"490 472 OFFCURVE",
"416 510 OFFCURVE",
"287 510 CURVE SMOOTH"
);
}
);
width = 537;
},
{
anchors = (
{
name = bottom;
position = "{240, 0}";
},
{
name = top;
position = "{227, 500}";
}
);
layerId = "1C7CD022-87C7-4E11-B656-E47B18819458";
name = Light;
paths = (
{
closed = 1;
nodes = (
"125 510 OFFCURVE",
"47 451 OFFCURVE",
"47 374 CURVE SMOOTH",
"47 186 OFFCURVE",
"404 290 OFFCURVE",
"404 124 CURVE SMOOTH",
"404 51 OFFCURVE",
"337 4 OFFCURVE",
"231 4 CURVE SMOOTH",
"130 4 OFFCURVE",
"57 43 OFFCURVE",
"40 118 CURVE",
"25 111 LINE",
"44 31 OFFCURVE",
"124 -10 OFFCURVE",
"228 -10 CURVE SMOOTH",
"346 -10 OFFCURVE",
"420 41 OFFCURVE",
"420 124 CURVE SMOOTH",
"420 310 OFFCURVE",
"63 199 OFFCURVE",
"63 378 CURVE SMOOTH",
"63 445 OFFCURVE",
"134 496 OFFCURVE",
"232 496 CURVE SMOOTH",
"326 496 OFFCURVE",
"386 459 OFFCURVE",
"403 377 CURVE",
"417 385 LINE",
"398 472 OFFCURVE",
"334 510 OFFCURVE",
"232 510 CURVE SMOOTH"
);
}
);
width = 453;
},
{
anchors = (
{
name = bottom;
position = "{268, 0}";
},
{
name = top;
position = "{263, 500}";
}
);
associatedMasterId = "4A17B37A-CBFD-40E5-9E02-2080A0E1F76C";
background = {
anchors = (
{
name = top;
position = "{263, 500}";
},
{
name = bottom;
position = "{268, 0}";
}
);
paths = (
{
closed = 1;
nodes = (
"117 510 OFFCURVE",
"40 432 OFFCURVE",
"40 351 CURVE SMOOTH",
"40 165 OFFCURVE",
"348 226 OFFCURVE",
"348 137 CURVE SMOOTH",
"348 108 OFFCURVE",
"316 86 OFFCURVE",
"257 86 CURVE SMOOTH",
"189 86 OFFCURVE",
"131 112 OFFCURVE",
"103 162 CURVE",
"24 88 LINE",
"70 20 OFFCURVE",
"155 -10 OFFCURVE",
"258 -10 CURVE SMOOTH",
"407 -10 OFFCURVE",
"486 60 OFFCURVE",
"486 150 CURVE SMOOTH",
"486 342 OFFCURVE",
"177 271 OFFCURVE",
"177 362 CURVE SMOOTH",
"177 388 OFFCURVE",
"213 414 OFFCURVE",
"269 414 CURVE SMOOTH",
"326 414 OFFCURVE",
"373 396 OFFCURVE",
"400 340 CURVE",
"479 408 LINE",
"447 472 OFFCURVE",
"380 510 OFFCURVE",
"265 510 CURVE SMOOTH"
);
}
);
};
layerId = "7A5DE7F6-4D37-482E-B2C9-7DAF0435345E";
name = "Regular {137,5}";
paths = (
{
closed = 1;
nodes = (
"117 510 OFFCURVE",
"40 430 OFFCURVE",
"40 349 CURVE SMOOTH",
"40 160 OFFCURVE",
"348 211 OFFCURVE",
"348 135 CURVE SMOOTH",
"348 108 OFFCURVE",
"315 90 OFFCURVE",
"256 90 CURVE SMOOTH",
"188 90 OFFCURVE",
"134 108 OFFCURVE",
"106 168 CURVE",
"26 86 LINE",
"72 18 OFFCURVE",
"155 -10 OFFCURVE",
"258 -10 CURVE SMOOTH",
"407 -10 OFFCURVE",
"486 55 OFFCURVE",
"486 145 CURVE SMOOTH",
"486 332 OFFCURVE",
"177 273 OFFCURVE",
"177 362 CURVE SMOOTH",
"177 388 OFFCURVE",
"211 410 OFFCURVE",
"267 410 CURVE SMOOTH",
"334 410 OFFCURVE",
"374 383 OFFCURVE",
"398 327 CURVE",
"488 404 LINE",
"442 476 OFFCURVE",
"380 510 OFFCURVE",
"265 510 CURVE SMOOTH"
);
}
);
width = 510;
}
);
leftKerningGroup = s;
rightKerningGroup = s;
unicode = 0073;
},
{
glyphname = germandbls;
lastChange = "2014-11-03 12:32:31 +0000";
layers = (
{
hints = (
{
place = "{257.299790, 0.000000}";
},
{
place = "{257.299790, 0.000000}";
}
);
layerId = "4A17B37A-CBFD-40E5-9E02-2080A0E1F76C";
leftMetricsKey = "=n";
name = Regular;
paths = (
{
closed = 1;
nodes = (
"149 735 OFFCURVE",
"94 634 OFFCURVE",
"94 497 CURVE SMOOTH",
"94 0 LINE",
"174 0 LINE",
"174 473 LINE SMOOTH",
"174 596 OFFCURVE",
"207 660 OFFCURVE",
"319 660 CURVE SMOOTH",
"406 660 OFFCURVE",
"453 623 OFFCURVE",
"453 544 CURVE SMOOTH",
"453 474 OFFCURVE",
"400 422 OFFCURVE",
"310 422 CURVE SMOOTH",
"271 422 LINE",
"271 392 LINE",
"374 392 LINE SMOOTH",
"476 392 OFFCURVE",
"535 469 OFFCURVE",
"535 549 CURVE SMOOTH",
"535 631 OFFCURVE",
"481 735 OFFCURVE",
"327 735 CURVE SMOOTH"
);
},
{
closed = 1;
nodes = (
"271 392 LINE",
"271 347 LINE",
"310 347 LINE SMOOTH",
"422 347 OFFCURVE",
"484 299 OFFCURVE",
"484 206 CURVE SMOOTH",
"484 123 OFFCURVE",
"435 63 OFFCURVE",
"344 63 CURVE SMOOTH",
"306 63 OFFCURVE",
"278 72 OFFCURVE",
"258 88 CURVE",
"235 23 LINE",
"253 6 OFFCURVE",
"295 -10 OFFCURVE",
"340 -10 CURVE SMOOTH",
"488 -10 OFFCURVE",
"561 91 OFFCURVE",
"561 197 CURVE SMOOTH",
"561 286 OFFCURVE",
"510 392 OFFCURVE",
"374 392 CURVE SMOOTH"
);
}
);
width = 600;
},
{
layerId = "99EB5860-B45A-4B60-BB0B-F826C8F71D42";
leftMetricsKey = "=n";
name = Bold;
paths = (
{
closed = 1;
nodes = (
"130 705 OFFCURVE",
"39 610 OFFCURVE",
"39 437 CURVE SMOOTH",
"39 0 LINE",
"269 0 LINE",
"269 431 LINE SMOOTH",
"269 518 OFFCURVE",
"292 550 OFFCURVE",
"355 550 CURVE SMOOTH",
"391 550 OFFCURVE",
"417 526 OFFCURVE",
"417 486 CURVE SMOOTH",
"417 444 OFFCURVE",
"398 418 OFFCURVE",
"364 417 CURVE SMOOTH",
"338 417 LINE",
"325 346 LINE",
"472 346 LINE SMOOTH",
"565 346 OFFCURVE",
"638 413 OFFCURVE",
"638 507 CURVE SMOOTH",
"638 628 OFFCURVE",
"537 705 OFFCURVE",
"356 705 CURVE SMOOTH"
);
},
{
closed = 1;
nodes = (
"325 346 LINE",
"310 265 LINE",
"365 265 LINE SMOOTH",
"406 265 OFFCURVE",
"428 245 OFFCURVE",
"428 208 CURVE SMOOTH",
"428 168 OFFCURVE",
"407 145 OFFCURVE",
"376 145 CURVE SMOOTH",
"349 145 OFFCURVE",
"337 152 OFFCURVE",
"323 167 CURVE",
"293 22 LINE",
"325 1 OFFCURVE",
"371 -10 OFFCURVE",
"429 -10 CURVE SMOOTH",
"583 -10 OFFCURVE",
"649 78 OFFCURVE",
"649 175 CURVE SMOOTH",
"649 282 OFFCURVE",
"572 346 OFFCURVE",
"472 346 CURVE SMOOTH"
);
}
);
width = 666;
},
{
hints = (
{
place = "{102.919918, 0.000000}";
},
{
place = "{102.919918, 0.000000}";
}
);
layerId = "1C7CD022-87C7-4E11-B656-E47B18819458";
name = Light;
paths = (
{
closed = 1;
nodes = (
"158 735 OFFCURVE",
"86 660 OFFCURVE",
"86 516 CURVE SMOOTH",
"86 0 LINE",
"101 0 LINE",
"101 505 LINE SMOOTH",
"101 647 OFFCURVE",
"168 721 OFFCURVE",
"294 721 CURVE SMOOTH",
"398 721 OFFCURVE",
"462 662 OFFCURVE",
"462 563 CURVE SMOOTH",
"462 449 OFFCURVE",
"391 384 OFFCURVE",
"293 384 CURVE SMOOTH",
"249 384 LINE",
"249 376 LINE",
"302 376 LINE SMOOTH",
"404 376 OFFCURVE",
"478 445 OFFCURVE",
"478 563 CURVE SMOOTH",
"478 671 OFFCURVE",
"408 735 OFFCURVE",
"294 735 CURVE SMOOTH"
);
},
{
closed = 1;
nodes = (
"249 379 LINE",
"249 370 LINE",
"293 370 LINE SMOOTH",
"409 370 OFFCURVE",
"491 310 OFFCURVE",
"491 182 CURVE SMOOTH",
"491 73 OFFCURVE",
"423 3 OFFCURVE",
"321 3 CURVE SMOOTH",
"280 3 OFFCURVE",
"250 15 OFFCURVE",
"225 44 CURVE",
"216 34 LINE",
"239 5 OFFCURVE",
"277 -10 OFFCURVE",
"321 -10 CURVE SMOOTH",
"432 -10 OFFCURVE",
"507 65 OFFCURVE",
"507 182 CURVE SMOOTH",
"507 315 OFFCURVE",
"423 379 OFFCURVE",
"302 379 CURVE SMOOTH"
);
}
);
width = 545;
}
);
leftKerningGroup = l.ss02;
leftMetricsKey = n;
rightKerningGroup = B;
unicode = 00DF;
},
{
glyphname = t;
lastChange = "2014-11-03 12:32:31 +0000";
layers = (
{
anchors = (
{
name = bottom;
position = "{252, 0}";
},
{
name = center;
position = "{160, 250}";
},
{
name = topright;
position = "{288, 767}";
}
);
layerId = "4A17B37A-CBFD-40E5-9E02-2080A0E1F76C";
name = Regular;
paths = (
{
closed = 1;
nodes = (
"120 620 LINE",
"120 124 LINE SMOOTH",
"121 27 OFFCURVE",
"185 -10 OFFCURVE",
"259 -10 CURVE SMOOTH",
"314 -10 OFFCURVE",
"357 7 OFFCURVE",
"388 35 CURVE",
"360 102 LINE",
"337 79 OFFCURVE",
"311 65 OFFCURVE",
"275 65 CURVE SMOOTH",
"231 65 OFFCURVE",
"200 89 OFFCURVE",
"200 138 CURVE SMOOTH",
"200 642 LINE"
);
},
{
closed = 1;
nodes = (
"20 500 LINE",
"20 431 LINE",
"375 431 LINE",
"375 500 LINE"
);
}
);
width = 423;
},
{
anchors = (
{
name = bottom;
position = "{251, 0}";
},
{
name = center;
position = "{156, 250}";
},
{
name = topright;
position = "{367, 767}";
}
);
layerId = "99EB5860-B45A-4B60-BB0B-F826C8F71D42";
name = Bold;
paths = (
{
closed = 1;
nodes = (
"78 606 LINE",
"78 168 LINE SMOOTH",
"78 38 OFFCURVE",
"152 -10 OFFCURVE",
"292 -10 CURVE SMOOTH",
"342 -10 OFFCURVE",
"407 3 OFFCURVE",
"441 24 CURVE",
"431 154 LINE",
"413 145 OFFCURVE",
"395 141 OFFCURVE",
"368 141 CURVE SMOOTH",
"327 141 OFFCURVE",
"308 158 OFFCURVE",
"308 204 CURVE SMOOTH",
"308 670 LINE"
);
},
{
closed = 1;
nodes = (
"1 500 LINE",
"1 345 LINE",
"434 345 LINE",
"434 500 LINE"
);
}
);
width = 445;
},
{
anchors = (
{
name = bottom;
position = "{225, 0}";
},
{
name = center;
position = "{124, 281}";
},
{
name = topright;
position = "{252, 767}";
}
);
layerId = "1C7CD022-87C7-4E11-B656-E47B18819458";
name = Light;
paths = (
{
closed = 1;
nodes = (
"116 630 LINE",
"117 126 LINE SMOOTH",
"117 37 OFFCURVE",
"155 -10 OFFCURVE",
"236 -10 CURVE SMOOTH",
"276 -10 OFFCURVE",
"312 7 OFFCURVE",
"332 28 CURVE",
"324 41 LINE",
"300 15 OFFCURVE",
"271 4 OFFCURVE",
"236 4 CURVE SMOOTH",
"164 4 OFFCURVE",
"132 46 OFFCURVE",
"132 126 CURVE SMOOTH",
"132 635 LINE"
);
},
{
closed = 1;
nodes = (
"16 500 LINE",
"16 486 LINE",
"325 486 LINE",
"325 500 LINE"
);
}
);
width = 339;
}
);
leftKerningGroup = t;
rightKerningGroup = t;
unicode = 0074;
},
{
glyphname = u;
lastChange = "2014-11-03 12:32:28 +0000";
layers = (
{
anchors = (
{
name = ogonek;
position = "{526, 0}";
},
{
name = top;
position = "{308, 500}";
}
);
layerId = "4A17B37A-CBFD-40E5-9E02-2080A0E1F76C";
leftMetricsKey = "=|n";
rightMetricsKey = "=|n";
name = Regular;
paths = (
{
closed = 1;
nodes = (
"88 500 LINE",
"88 173 LINE SMOOTH",
"88 41 OFFCURVE",
"173 -10 OFFCURVE",
"272 -10 CURVE SMOOTH",
"396 -10 OFFCURVE",
"482 53 OFFCURVE",
"482 208 CURVE",
"446 228 LINE",
"446 110 OFFCURVE",
"371 60 OFFCURVE",
"286 60 CURVE SMOOTH",
"214 60 OFFCURVE",
"168 91 OFFCURVE",
"168 194 CURVE SMOOTH",
"168 500 LINE"
);
},
{
closed = 1;
nodes = (
"446 500 LINE",
"446 123 LINE",
"449 117 LINE",
"456 0 LINE",
"526 0 LINE",
"526 117 LINE",
"526 500 LINE"
);
}
);
width = 620;
},
{
anchors = (
{
name = ogonek;
position = "{581, 0}";
},
{
name = top;
position = "{304, 500}";
}
);
layerId = "99EB5860-B45A-4B60-BB0B-F826C8F71D42";
leftMetricsKey = "=|n";
rightMetricsKey = "=|n";
name = Bold;
paths = (
{
closed = 1;
nodes = (
"38 500 LINE",
"38 162 LINE SMOOTH",
"38 40 OFFCURVE",
"96 -10 OFFCURVE",
"200 -10 CURVE SMOOTH",
"321 -10 OFFCURVE",
"389 73 OFFCURVE",
"389 239 CURVE",
"351 239 LINE",
"351 185 OFFCURVE",
"336 160 OFFCURVE",
"305 160 CURVE SMOOTH",
"279 160 OFFCURVE",
"268 174 OFFCURVE",
"268 219 CURVE SMOOTH",
"268 500 LINE"
);
},
{
closed = 1;
nodes = (
"351 500 LINE",
"351 219 LINE",
"366 162 LINE",
"374 0 LINE",
"581 0 LINE",
"581 152 LINE",
"581 500 LINE"
);
}
);
width = 620;
},
{
anchors = (
{
name = ogonek;
position = "{482, 0}";
},
{
name = top;
position = "{283, 500}";
}
);
layerId = "1C7CD022-87C7-4E11-B656-E47B18819458";
name = Light;
paths = (
{
closed = 1;
nodes = (
"82 500 LINE",
"82 167 LINE SMOOTH",
"82 54 OFFCURVE",
"146 -10 OFFCURVE",
"257 -10 CURVE SMOOTH",
"384 -10 OFFCURVE",
"473 77 OFFCURVE",
"473 183 CURVE",
"466 196 LINE",
"466 122 OFFCURVE",
"404 4 OFFCURVE",
"260 4 CURVE SMOOTH",
"157 4 OFFCURVE",
"98 64 OFFCURVE",
"98 169 CURVE SMOOTH",
"98 500 LINE"
);
},
{
closed = 1;
nodes = (
"466 500 LINE",
"466 199 LINE",
"466 165 LINE",
"466 0 LINE",
"482 0 LINE",
"482 199 LINE",
"482 500 LINE"
);
}
);
width = 568;
}
);
leftKerningGroup = u;
leftMetricsKey = "=|n";
rightKerningGroup = u;
rightMetricsKey = "=|n";
unicode = 0075;
},
{
glyphname = uni0123;
lastChange = "2014-11-03 12:32:22 +0000";
layers = (
{
components = (
{
name = g;
transform = "{1, 0, 0, 1, 0, 0}";
}
);
layerId = "4A17B37A-CBFD-40E5-9E02-2080A0E1F76C";
rightMetricsKey = "=g";
name = Regular;
paths = (
{
closed = 1;
nodes = (
"305 778 LINE",
"235 587 LINE",
"323 587 LINE",
"365 778 LINE"
);
}
);
width = 555;
},
{
components = (
{
name = g;
transform = "{1, 0, 0, 1, 0, 0}";
}
);
layerId = "99EB5860-B45A-4B60-BB0B-F826C8F71D42";
name = Bold;
paths = (
{
closed = 1;
nodes = (
"262 768 LINE",
"191 547 LINE",
"369 547 LINE",
"401 768 LINE"
);
}
);
width = 593;
},
{
components = (
{
name = g;
transform = "{1, 0, 0, 1, 0, 0}";
}
);
layerId = "1C7CD022-87C7-4E11-B656-E47B18819458";
name = Light;
paths = (
{
closed = 1;
nodes = (
"312 778 LINE",
"252 587 LINE",
"270 587 LINE",
"325 778 LINE"
);
}
);
width = 491;
}
);
leftKerningGroup = g;
leftMetricsKey = g;
rightKerningGroup = g;
rightMetricsKey = g;
unicode = 0123;
},
{
glyphname = uni0163;
lastChange = "2014-11-03 12:32:27 +0000";
layers = (
{
components = (
{
name = t;
transform = "{1, 0, 0, 1, 0, 0}";
}
);
layerId = "4A17B37A-CBFD-40E5-9E02-2080A0E1F76C";
name = Regular;
paths = (
{
closed = 1;
nodes = (
"264 -32 OFFCURVE",
"285 -55 OFFCURVE",
"285 -97 CURVE SMOOTH",
"285 -132 OFFCURVE",
"260 -155 OFFCURVE",
"228 -155 CURVE SMOOTH",
"200 -155 OFFCURVE",
"175 -142 OFFCURVE",
"159 -125 CURVE",
"129 -180 LINE",
"157 -205 OFFCURVE",
"192 -215 OFFCURVE",
"239 -215 CURVE SMOOTH",
"313 -215 OFFCURVE",
"355 -164 OFFCURVE",
"355 -108 CURVE SMOOTH",
"355 -54 OFFCURVE",
"315 6 OFFCURVE",
"227 28 CURVE",
"186 7 LINE"
);
}
);
width = 423;
},
{
components = (
{
name = t;
transform = "{1, 0, 0, 1, 0, 0}";
}
);
layerId = "99EB5860-B45A-4B60-BB0B-F826C8F71D42";
name = Bold;
paths = (
{
closed = 1;
nodes = (
"252 -8 OFFCURVE",
"275 -25 OFFCURVE",
"275 -59 CURVE SMOOTH",
"275 -89 OFFCURVE",
"254 -104 OFFCURVE",
"217 -104 CURVE SMOOTH",
"186 -104 OFFCURVE",
"163 -92 OFFCURVE",
"148 -76 CURVE",
"102 -172 LINE",
"126 -195 OFFCURVE",
"163 -215 OFFCURVE",
"236 -215 CURVE SMOOTH",
"324 -215 OFFCURVE",
"397 -184 OFFCURVE",
"397 -90 CURVE SMOOTH",
"397 -19 OFFCURVE",
"330 25 OFFCURVE",
"211 52 CURVE",
"179 5 LINE"
);
}
);
width = 445;
},
{
components = (
{
name = t;
transform = "{1, 0, 0, 1, 0, 0}";
}
);
layerId = "1C7CD022-87C7-4E11-B656-E47B18819458";
name = Light;
paths = (
{
closed = 1;
nodes = (
"258 -45 OFFCURVE",
"280 -77 OFFCURVE",
"280 -119 CURVE SMOOTH",
"280 -161 OFFCURVE",
"252 -189 OFFCURVE",
"209 -189 CURVE SMOOTH",
"169 -189 OFFCURVE",
"146 -178 OFFCURVE",
"121 -148 CURVE",
"113 -160 LINE",
"137 -190 OFFCURVE",
"163 -202 OFFCURVE",
"209 -202 CURVE SMOOTH",
"261 -202 OFFCURVE",
"295 -168 OFFCURVE",
"295 -118 CURVE SMOOTH",
"295 -71 OFFCURVE",
"267 -36 OFFCURVE",
"185 8 CURVE",
"168 8 LINE"
);
}
);
width = 339;
}
);
leftKerningGroup = t;
leftMetricsKey = t;
rightKerningGroup = t;
rightMetricsKey = t;
unicode = 0163;
},
{
glyphname = uogonek;
lastChange = "2014-11-03 12:32:24 +0000";
layers = (
{
anchors = (
{
name = ogonek;
position = "{526, 0}";
},
{
name = top;
position = "{308, 500}";
}
);
layerId = "4A17B37A-CBFD-40E5-9E02-2080A0E1F76C";
leftMetricsKey = "=u";
name = Regular;
paths = (
{
closed = 1;
nodes = (
"88 500 LINE",
"88 173 LINE SMOOTH",
"88 41 OFFCURVE",
"173 -10 OFFCURVE",
"272 -10 CURVE SMOOTH",
"376 -10 OFFCURVE",
"482 73 OFFCURVE",
"482 208 CURVE",
"446 236 LINE",
"446 125 OFFCURVE",
"366 60 OFFCURVE",
"281 60 CURVE SMOOTH",
"214 60 OFFCURVE",
"168 91 OFFCURVE",
"168 194 CURVE SMOOTH",
"168 500 LINE"
);
},
{
closed = 1;
nodes = (
"412 -72 OFFCURVE",
"443 -44 OFFCURVE",
"526 0 CURVE",
"474 17 LINE",
"389 -23 OFFCURVE",
"350 -60 OFFCURVE",
"350 -122 CURVE SMOOTH",
"350 -177 OFFCURVE",
"384 -215 OFFCURVE",
"456 -215 CURVE SMOOTH",
"485 -215 OFFCURVE",
"518 -207 OFFCURVE",
"537 -195 CURVE",
"521 -145 LINE",
"505 -155 OFFCURVE",
"483 -158 OFFCURVE",
"466 -158 CURVE SMOOTH",
"432 -158 OFFCURVE",
"412 -143 OFFCURVE",
"412 -110 CURVE SMOOTH"
);
},
{
closed = 1;
nodes = (
"446 500 LINE",
"446 161 LINE",
"446 117 LINE",
"461 0 LINE",
"526 0 LINE",
"526 117 LINE",
"526 500 LINE"
);
}
);
width = 620;
},
{
anchors = (
{
name = ogonek;
position = "{581, 0}";
},
{
name = top;
position = "{304, 500}";
}
);
layerId = "99EB5860-B45A-4B60-BB0B-F826C8F71D42";
leftMetricsKey = "=|n";
rightMetricsKey = "=|n-3";
name = Bold;
paths = (
{
closed = 1;
nodes = (
"38 500 LINE",
"38 162 LINE SMOOTH",
"38 40 OFFCURVE",
"96 -10 OFFCURVE",
"200 -10 CURVE SMOOTH",
"321 -10 OFFCURVE",
"389 73 OFFCURVE",
"389 239 CURVE",
"351 239 LINE",
"351 185 OFFCURVE",
"336 160 OFFCURVE",
"305 160 CURVE SMOOTH",
"279 160 OFFCURVE",
"268 174 OFFCURVE",
"268 219 CURVE SMOOTH",
"268 500 LINE"
);
},
{
closed = 1;
nodes = (
"468 -25 OFFCURVE",
"511 0 OFFCURVE",
"581 0 CURVE",
"489 32 LINE",
"387 26 OFFCURVE",
"314 -17 OFFCURVE",
"314 -96 CURVE SMOOTH",
"314 -180 OFFCURVE",
"383 -215 OFFCURVE",
"466 -215 CURVE SMOOTH",
"516 -215 OFFCURVE",
"552 -209 OFFCURVE",
"584 -189 CURVE",
"557 -86 LINE",
"547 -92 OFFCURVE",
"532 -94 OFFCURVE",
"517 -94 CURVE SMOOTH",
"486 -94 OFFCURVE",
"468 -80 OFFCURVE",
"468 -56 CURVE SMOOTH"
);
},
{
closed = 1;
nodes = (
"351 500 LINE",
"351 219 LINE",
"366 162 LINE",
"374 0 LINE",
"581 0 LINE",
"581 152 LINE",
"581 500 LINE"
);
}
);
width = 620;
},
{
anchors = (
{
name = ogonek;
position = "{482, 0}";
},
{
name = top;
position = "{277, 500}";
}
);
layerId = "1C7CD022-87C7-4E11-B656-E47B18819458";
name = Light;
paths = (
{
closed = 1;
nodes = (
"82 500 LINE",
"82 167 LINE SMOOTH",
"82 54 OFFCURVE",
"155 -10 OFFCURVE",
"257 -10 CURVE SMOOTH",
"384 -10 OFFCURVE",
"473 77 OFFCURVE",
"473 183 CURVE",
"466 199 LINE",
"466 95 OFFCURVE",
"379 4 OFFCURVE",
"260 4 CURVE SMOOTH",
"165 4 OFFCURVE",
"98 63 OFFCURVE",
"98 169 CURVE SMOOTH",
"98 500 LINE"
);
},
{
closed = 1;
nodes = (
"360 -78 OFFCURVE",
"394 -52 OFFCURVE",
"482 0 CURVE",
"470 9 LINE",
"379 -44 OFFCURVE",
"345 -75 OFFCURVE",
"345 -128 CURVE SMOOTH",
"345 -176 OFFCURVE",
"383 -202 OFFCURVE",
"433 -202 CURVE SMOOTH",
"469 -202 OFFCURVE",
"490 -191 OFFCURVE",
"506 -178 CURVE",
"498 -168 LINE",
"484 -181 OFFCURVE",
"467 -188 OFFCURVE",
"433 -188 CURVE SMOOTH",
"391 -188 OFFCURVE",
"360 -167 OFFCURVE",
"360 -128 CURVE SMOOTH"
);
},
{
closed = 1;
nodes = (
"466 500 LINE",
"466 199 LINE",
"466 155 LINE",
"466 0 LINE",
"482 0 LINE",
"482 199 LINE",
"482 500 LINE"
);
}
);
width = 568;
}
);
leftKerningGroup = u;
leftMetricsKey = u;
rightKerningGroup = u;
unicode = 0173;
},
{
color = 11;
glyphname = v;
lastChange = "2014-11-03 12:32:25 +0000";
layers = (
{
layerId = "4A17B37A-CBFD-40E5-9E02-2080A0E1F76C";
name = Regular;
paths = (
{
closed = 1;
nodes = (
"420 500 LINE",
"226 0 LINE",
"296 0 LINE",
"504 500 LINE"
);
},
{
closed = 1;
nodes = (
"8 500 LINE",
"216 0 LINE",
"288 0 LINE",
"99 500 LINE"
);
}
);
width = 512;
},
{
guideLines = (
{
position = "{165, 286}";
}
);
layerId = "99EB5860-B45A-4B60-BB0B-F826C8F71D42";
name = Bold;
paths = (
{
closed = 1;
nodes = (
"360 500 LINE",
"267 0 LINE",
"437 0 LINE",
"598 500 LINE"
);
},
{
closed = 1;
nodes = (
"-10 500 LINE",
"151 0 LINE",
"321 0 LINE",
"228 500 LINE"
);
}
);
width = 588;
},
{
associatedMasterId = "99EB5860-B45A-4B60-BB0B-F826C8F71D42";
background = {
paths = (
{
closed = 1;
nodes = (
"374 500 LINE",
"331 266 LINE",
"304 110 LINE",
"301 110 LINE",
"273 266 LINE",
"230 500 LINE",
"-8 500 LINE",
"151 0 LINE",
"453 0 LINE",
"612 500 LINE"
);
}
);
};
layerId = "E75C944A-E6E1-4EFE-BCC6-FB67E6EA7943";
name = "Bold [229]";
paths = (
{
closed = 1;
nodes = (
"360 500 LINE",
"314 255 LINE",
"296 135 LINE",
"292 135 LINE",
"274 254 LINE",
"228 500 LINE",
"-10 500 LINE",
"151 0 LINE",
"437 0 LINE",
"598 500 LINE"
);
}
);
width = 588;
},
{
layerId = "1C7CD022-87C7-4E11-B656-E47B18819458";
name = Light;
paths = (
{
closed = 1;
nodes = (
"426 500 LINE",
"217 0 LINE",
"234 0 LINE",
"444 500 LINE"
);
},
{
closed = 1;
nodes = (
"7 500 LINE",
"217 0 LINE",
"234 0 LINE",
"25 500 LINE"
);
}
);
width = 451;
}
);
leftKerningGroup = v;
rightKerningGroup = v;
unicode = 0076;
},
{
color = 11;
glyphname = w;
lastChange = "2014-11-03 12:32:26 +0000";
layers = (
{
layerId = "4A17B37A-CBFD-40E5-9E02-2080A0E1F76C";
name = Regular;
paths = (
{
closed = 1;
nodes = (
"370 500 LINE",
"547 0 LINE",
"617 0 LINE",
"450 500 LINE"
);
},
{
closed = 1;
nodes = (
"19 500 LINE",
"193 0 LINE",
"263 0 LINE",
"108 500 LINE"
);
},
{
closed = 1;
nodes = (
"370 500 LINE",
"203 0 LINE",
"273 0 LINE",
"440 500 LINE"
);
},
{
closed = 1;
nodes = (
"712 500 LINE",
"557 0 LINE",
"627 0 LINE",
"801 500 LINE"
);
}
);
width = 820;
},
{
associatedMasterId = "99EB5860-B45A-4B60-BB0B-F826C8F71D42";
background = {
paths = (
{
closed = 1;
nodes = (
"344 500 LINE",
"521 0 LINE",
"601 0 LINE",
"424 500 LINE"
);
},
{
closed = 1;
nodes = (
"-7 500 LINE",
"167 0 LINE",
"247 0 LINE",
"82 500 LINE"
);
},
{
closed = 1;
nodes = (
"344 500 LINE",
"177 0 LINE",
"247 0 LINE",
"414 500 LINE"
);
},
{
closed = 1;
nodes = (
"686 500 LINE",
"531 0 LINE",
"601 0 LINE",
"775 500 LINE"
);
}
);
};
layerId = "99888AC1-1C69-408D-8F1B-3B63389CE42B";
name = "Bold [229]";
paths = (
{
closed = 1;
nodes = (
"713 500 LINE",
"673 260 LINE",
"658 148 LINE",
"654 148 LINE",
"635 259 LINE",
"584 500 LINE",
"358 500 LINE",
"308 262 LINE",
"288 148 LINE",
"284 148 LINE",
"269 261 LINE",
"229 500 LINE",
"-9 500 LINE",
"127 0 LINE",
"413 0 LINE",
"450 155 LINE",
"469 276 LINE",
"473 276 LINE",
"493 154 LINE",
"529 0 LINE",
"815 0 LINE",
"951 500 LINE"
);
}
);
width = 942;
},
{
layerId = "99EB5860-B45A-4B60-BB0B-F826C8F71D42";
name = Bold;
paths = (
{
closed = 1;
nodes = (
"411 500 LINE",
"529 0 LINE",
"689 0 LINE",
"584 500 LINE"
);
},
{
closed = 1;
nodes = (
"-9 500 LINE",
"127 0 LINE",
"312 0 LINE",
"229 500 LINE"
);
},
{
closed = 1;
nodes = (
"358 500 LINE",
"253 0 LINE",
"413 0 LINE",
"531 500 LINE"
);
},
{
closed = 1;
nodes = (
"713 500 LINE",
"630 0 LINE",
"815 0 LINE",
"951 500 LINE"
);
}
);
width = 942;
},
{
layerId = "1C7CD022-87C7-4E11-B656-E47B18819458";
name = Light;
paths = (
{
closed = 1;
nodes = (
"366 500 LINE",
"553 0 LINE",
"569 0 LINE",
"383 500 LINE"
);
},
{
closed = 1;
nodes = (
"14 500 LINE",
"180 0 LINE",
"196 0 LINE",
"31 500 LINE"
);
},
{
closed = 1;
nodes = (
"366 500 LINE",
"180 0 LINE",
"196 0 LINE",
"383 500 LINE"
);
},
{
closed = 1;
nodes = (
"718 500 LINE",
"553 0 LINE",
"569 0 LINE",
"735 500 LINE"
);
}
);
width = 749;
}
);
leftKerningGroup = w;
rightKerningGroup = w;
unicode = 0077;
},
{
glyphname = x;
lastChange = "2014-11-03 12:32:25 +0000";
layers = (
{
layerId = "4A17B37A-CBFD-40E5-9E02-2080A0E1F76C";
name = Regular;
paths = (
{
closed = 1;
nodes = (
"19 500 LINE",
"216 228 LINE",
"225 217 LINE",
"380 0 LINE",
"478 0 LINE",
"273 284 LINE",
"268 291 LINE",
"119 500 LINE"
);
},
{
closed = 1;
nodes = (
"381 500 LINE",
"231 287 LINE",
"225 287 LINE",
"7 0 LINE",
"100 0 LINE",
"272 233 LINE",
"277 233 LINE",
"475 500 LINE"
);
}
);
width = 483;
},
{
layerId = "99EB5860-B45A-4B60-BB0B-F826C8F71D42";
name = Bold;
paths = (
{
closed = 1;
nodes = (
"-7 500 LINE",
"180 228 LINE",
"272 235 LINE",
"384 0 LINE",
"638 0 LINE",
"446 278 LINE",
"356 265 LINE",
"247 500 LINE"
);
},
{
closed = 1;
nodes = (
"383 500 LINE",
"271 265 LINE",
"178 278 LINE",
"-11 0 LINE",
"240 0 LINE",
"349 235 LINE",
"450 228 LINE",
"634 500 LINE"
);
}
);
width = 627;
},
{
layerId = "1C7CD022-87C7-4E11-B656-E47B18819458";
name = Light;
paths = (
{
closed = 1;
nodes = (
"31 500 LINE",
"232 256 LINE",
"236 251 LINE",
"443 0 LINE",
"467 0 LINE",
"246 268 LINE",
"242 273 LINE",
"55 500 LINE"
);
},
{
closed = 1;
nodes = (
"416 500 LINE",
"235 269 LINE",
"232 265 LINE",
"24 0 LINE",
"46 0 LINE",
"242 250 LINE",
"249 259 LINE",
"438 500 LINE"
);
}
);
width = 482;
}
);
leftKerningGroup = x;
rightKerningGroup = x;
unicode = 0078;
},
{
glyphname = y;
lastChange = "2014-11-03 12:32:30 +0000";
layers = (
{
anchors = (
{
name = top;
position = "{256, 500}";
}
);
layerId = "4A17B37A-CBFD-40E5-9E02-2080A0E1F76C";
rightMetricsKey = "=v";
name = Regular;
paths = (
{
closed = 1;
nodes = (
"415 500 LINE",
"298 184 LINE",
"262 85 LINE",
"231 174 LINE",
"106 500 LINE",
"15 500 LINE",
"174 120 LINE",
"224 1 LINE",
"198 -64 LINE SMOOTH",
"173 -130 OFFCURVE",
"142 -145 OFFCURVE",
"107 -145 CURVE SMOOTH",
"79 -145 OFFCURVE",
"49 -137 OFFCURVE",
"26 -105 CURVE",
"-2 -173 LINE",
"26 -203 OFFCURVE",
"58 -215 OFFCURVE",
"108 -215 CURVE SMOOTH",
"182 -215 OFFCURVE",
"227 -182 OFFCURVE",
"266 -84 CURVE SMOOTH",
"501 500 LINE"
);
}
);
width = 509;
},
{
anchors = (
{
name = top;
position = "{323, 500}";
}
);
layerId = "99EB5860-B45A-4B60-BB0B-F826C8F71D42";
rightMetricsKey = "=v";
name = Bold;
paths = (
{
closed = 1;
nodes = (
"379 500 LINE",
"329 243 LINE",
"307 125 LINE",
"288 242 LINE",
"243 500 LINE",
"-8 500 LINE",
"135 128 LINE",
"198 -19 LINE",
"195 -27 LINE SMOOTH",
"187 -47 OFFCURVE",
"169 -54 OFFCURVE",
"126 -54 CURVE SMOOTH",
"78 -54 OFFCURVE",
"58 -49 OFFCURVE",
"37 -37 CURVE",
"-5 -182 LINE",
"32 -202 OFFCURVE",
"85 -215 OFFCURVE",
"149 -215 CURVE SMOOTH",
"311 -215 OFFCURVE",
"391 -143 OFFCURVE",
"457 56 CURVE SMOOTH",
"604 500 LINE"
);
}
);
width = 594;
},
{
anchors = (
{
name = top;
position = "{235, 500}";
}
);
layerId = "1C7CD022-87C7-4E11-B656-E47B18819458";
name = Light;
paths = (
{
closed = 1;
nodes = (
"432 500 LINE",
"251 61 LINE",
"234 18 LINE",
"216 60 LINE",
"31 500 LINE",
"13 500 LINE",
"171 128 LINE",
"226 -1 LINE",
"186 -98 LINE SMOOTH",
"153 -178 OFFCURVE",
"118 -201 OFFCURVE",
"66 -201 CURVE SMOOTH",
"38 -201 OFFCURVE",
"11 -193 OFFCURVE",
"-4 -170 CURVE",
"-13 -183 LINE",
"1 -204 OFFCURVE",
"30 -215 OFFCURVE",
"65 -215 CURVE SMOOTH",
"127 -215 OFFCURVE",
"165 -188 OFFCURVE",
"201 -101 CURVE SMOOTH",
"450 500 LINE"
);
}
);
width = 457;
}
);
leftKerningGroup = y;
rightKerningGroup = v;
rightMetricsKey = v;
unicode = 0079;
},
{
glyphname = z;
lastChange = "2014-11-03 12:32:21 +0000";
layers = (
{
anchors = (
{
name = top;
position = "{241, 500}";
}
);
guideLines = (
{
angle = 90;
position = "{49, 410}";
},
{
angle = 90;
position = "{468, 114}";
}
);
layerId = "4A17B37A-CBFD-40E5-9E02-2080A0E1F76C";
name = Regular;
paths = (
{
closed = 1;
nodes = (
"315 383 LINE",
"46 64 LINE",
"97 19 LINE",
"204 132 LINE",
"460 436 LINE",
"409 481 LINE"
);
},
{
closed = 1;
nodes = (
"298 69 LINE",
"239 69 LINE",
"46 64 LINE",
"46 0 LINE",
"239 0 LINE",
"468 0 LINE",
"468 69 LINE"
);
},
{
closed = 1;
nodes = (
"276 500 LINE",
"49 500 LINE",
"49 431 LINE",
"220 431 LINE",
"276 431 LINE",
"460 436 LINE",
"460 500 LINE"
);
}
);
width = 500;
},
{
anchors = (
{
name = top;
position = "{252, 500}";
}
);
layerId = "99EB5860-B45A-4B60-BB0B-F826C8F71D42";
name = Bold;
paths = (
{
closed = 1;
nodes = (
"178 304 LINE",
"22 132 LINE",
"167 49 LINE",
"326 198 LINE",
"479 368 LINE",
"323 448 LINE"
);
},
{
closed = 1;
nodes = (
"359 152 LINE",
"184 147 LINE",
"22 132 LINE",
"22 0 LINE",
"309 0 LINE",
"489 0 LINE",
"489 152 LINE"
);
},
{
closed = 1;
nodes = (
"172 500 LINE",
"22 500 LINE",
"22 348 LINE",
"152 348 LINE",
"317 353 LINE",
"479 368 LINE",
"479 500 LINE"
);
}
);
width = 502;
},
{
anchors = (
{
name = top;
position = "{233, 500}";
}
);
layerId = "1C7CD022-87C7-4E11-B656-E47B18819458";
name = Light;
paths = (
{
closed = 1;
nodes = (
"366 437 LINE",
"35 14 LINE",
"48 5 LINE",
"113 83 LINE",
"425 486 LINE",
"412 493 LINE"
);
},
{
closed = 1;
nodes = (
"71 14 LINE",
"46 14 LINE",
"35 14 LINE",
"35 0 LINE",
"46 0 LINE",
"441 0 LINE",
"441 14 LINE"
);
},
{
closed = 1;
nodes = (
"415 500 LINE",
"27 500 LINE",
"27 486 LINE",
"392 486 LINE",
"415 486 LINE",
"425 486 LINE",
"425 500 LINE"
);
}
);
width = 460;
}
);
leftKerningGroup = z;
rightKerningGroup = z;
unicode = 007A;
},
{
glyphname = g.ss01;
lastChange = "2014-11-03 12:32:23 +0000";
layers = (
{
anchors = (
{
name = top;
position = "{270, 500}";
}
);
layerId = "4A17B37A-CBFD-40E5-9E02-2080A0E1F76C";
name = Regular;
paths = (
{
closed = 1;
nodes = (
"454 500 LINE",
"439 383 LINE",
"439 362 LINE",
"439 21 LINE SMOOTH",
"439 -77 OFFCURVE",
"372 -145 OFFCURVE",
"278 -145 CURVE SMOOTH",
"193 -145 OFFCURVE",
"149 -116 OFFCURVE",
"137 -59 CURVE",
"61 -92 LINE",
"79 -177 OFFCURVE",
"164 -215 OFFCURVE",
"266 -215 CURVE SMOOTH",
"433 -215 OFFCURVE",
"520 -132 OFFCURVE",
"520 40 CURVE SMOOTH",
"520 383 LINE",
"520 500 LINE"
);
},
{
closed = 1;
nodes = (
"134 510 OFFCURVE",
"45 415 OFFCURVE",
"45 255 CURVE SMOOTH",
"45 95 OFFCURVE",
"134 0 OFFCURVE",
"273 0 CURVE SMOOTH",
"390 0 OFFCURVE",
"468 77 OFFCURVE",
"468 170 CURVE",
"439 249 LINE",
"439 139 OFFCURVE",
"377 70 OFFCURVE",
"282 70 CURVE SMOOTH",
"184 70 OFFCURVE",
"125 142 OFFCURVE",
"125 255 CURVE SMOOTH",
"125 368 OFFCURVE",
"184 440 OFFCURVE",
"282 440 CURVE SMOOTH",
"377 440 OFFCURVE",
"439 371 OFFCURVE",
"439 261 CURVE",
"468 340 LINE",
"468 434 OFFCURVE",
"390 510 OFFCURVE",
"273 510 CURVE SMOOTH"
);
}
);
width = 614;
},
{
anchors = (
{
name = top;
position = "{325, 500}";
}
);
layerId = "99EB5860-B45A-4B60-BB0B-F826C8F71D42";
leftMetricsKey = "=o+5";
rightMetricsKey = "=|n";
name = Bold;
paths = (
{
closed = 1;
nodes = (
"380 500 LINE",
"377 374 LINE",
"358 365 LINE",
"358 -15 LINE SMOOTH",
"358 -65 OFFCURVE",
"341 -83 OFFCURVE",
"310 -83 CURVE SMOOTH",
"275 -83 OFFCURVE",
"258 -58 OFFCURVE",
"260 -4 CURVE",
"39 -54 LINE",
"57 -186 OFFCURVE",
"159 -215 OFFCURVE",
"290 -215 CURVE SMOOTH",
"462 -215 OFFCURVE",
"588 -154 OFFCURVE",
"588 40 CURVE SMOOTH",
"588 383 LINE",
"588 500 LINE"
);
},
{
closed = 1;
nodes = (
"95 510 OFFCURVE",
"25 420 OFFCURVE",
"25 264 CURVE SMOOTH",
"25 111 OFFCURVE",
"93 23 OFFCURVE",
"216 23 CURVE SMOOTH",
"332 23 OFFCURVE",
"396 118 OFFCURVE",
"396 238 CURVE",
"358 263 LINE",
"358 205 OFFCURVE",
"340 184 OFFCURVE",
"309 184 CURVE SMOOTH",
"277 184 OFFCURVE",
"257 200 OFFCURVE",
"257 266 CURVE SMOOTH",
"257 332 OFFCURVE",
"277 348 OFFCURVE",
"309 348 CURVE SMOOTH",
"343 348 OFFCURVE",
"358 323 OFFCURVE",
"358 270 CURVE",
"382 295 LINE",
"382 416 OFFCURVE",
"333 510 OFFCURVE",
"217 510 CURVE SMOOTH"
);
}
);
width = 627;
},
{
anchors = (
{
name = top;
position = "{283, 500}";
}
);
layerId = "1C7CD022-87C7-4E11-B656-E47B18819458";
name = Light;
paths = (
{
closed = 1;
nodes = (
"485 499 LINE",
"485 328 LINE",
"485 324 LINE",
"485 7 LINE SMOOTH",
"485 -123 OFFCURVE",
"406 -201 OFFCURVE",
"272 -201 CURVE SMOOTH",
"167 -201 OFFCURVE",
"97 -157 OFFCURVE",
"84 -83 CURVE",
"68 -90 LINE",
"84 -168 OFFCURVE",
"161 -215 OFFCURVE",
"272 -215 CURVE SMOOTH",
"416 -215 OFFCURVE",
"501 -132 OFFCURVE",
"501 8 CURVE SMOOTH",
"501 397 LINE",
"501 499 LINE"
);
},
{
closed = 1;
nodes = (
"138 510 OFFCURVE",
"52 413 OFFCURVE",
"52 250 CURVE SMOOTH",
"52 87 OFFCURVE",
"138 -10 OFFCURVE",
"281 -10 CURVE SMOOTH",
"411 -10 OFFCURVE",
"495 79 OFFCURVE",
"494 230 CURVE",
"485 246 LINE",
"485 95 OFFCURVE",
"405 4 OFFCURVE",
"284 4 CURVE SMOOTH",
"149 4 OFFCURVE",
"69 95 OFFCURVE",
"69 250 CURVE SMOOTH",
"69 405 OFFCURVE",
"149 496 OFFCURVE",
"284 496 CURVE SMOOTH",
"406 496 OFFCURVE",
"486 404 OFFCURVE",
"485 253 CURVE",
"495 267 LINE",
"495 420 OFFCURVE",
"410 510 OFFCURVE",
"281 510 CURVE SMOOTH"
);
}
);
width = 587;
}
);
leftKerningGroup = g.ss01;
rightKerningGroup = g.ss01;
rightMetricsKey = "=|n";
},
{
glyphname = uni0123.ss01;
lastChange = "2014-11-03 12:32:28 +0000";
layers = (
{
components = (
{
name = g.ss01;
transform = "{1, 0, 0, 1, 0, 0}";
}
);
layerId = "4A17B37A-CBFD-40E5-9E02-2080A0E1F76C";
name = Regular;
paths = (
{
closed = 1;
nodes = (
"323 778 LINE",
"253 587 LINE",
"341 587 LINE",
"383 778 LINE"
);
}
);
width = 621;
},
{
components = (
{
name = g.ss01;
transform = "{1, 0, 0, 1, 0, 0}";
}
);
layerId = "99EB5860-B45A-4B60-BB0B-F826C8F71D42";
name = Bold;
paths = (
{
closed = 1;
nodes = (
"309 768 LINE",
"238 547 LINE",
"416 547 LINE",
"448 768 LINE"
);
}
);
width = 635;
},
{
components = (
{
name = g.ss01;
transform = "{1, 0, 0, 1, 0, 0}";
}
);
layerId = "1C7CD022-87C7-4E11-B656-E47B18819458";
name = Light;
paths = (
{
closed = 1;
nodes = (
"335 778 LINE",
"275 587 LINE",
"293 587 LINE",
"348 778 LINE"
);
}
);
width = 582;
}
);
leftKerningGroup = g.ss01;
rightKerningGroup = g.ss01;
},
{
glyphname = l.ss02;
lastChange = "2014-11-03 12:32:20 +0000";
layers = (
{
anchors = (
{
name = bottom;
position = "{134, 0}";
},
{
name = top;
position = "{142, 730}";
},
{
name = topright;
position = "{254, 730}";
}
);
layerId = "4A17B37A-CBFD-40E5-9E02-2080A0E1F76C";
leftMetricsKey = "=n";
name = Regular;
paths = (
{
closed = 1;
nodes = (
"94 730 LINE",
"94 0 LINE",
"174 0 LINE",
"174 730 LINE"
);
}
);
width = 268;
},
{
anchors = (
{
name = bottom;
position = "{154, 0}";
},
{
name = top;
position = "{152, 700}";
},
{
name = topright;
position = "{320, 700}";
}
);
layerId = "99EB5860-B45A-4B60-BB0B-F826C8F71D42";
leftMetricsKey = "=n";
name = Bold;
paths = (
{
closed = 1;
nodes = (
"39 700 LINE",
"39 0 LINE",
"269 0 LINE",
"269 700 LINE"
);
}
);
width = 308;
},
{
anchors = (
{
name = bottom;
position = "{94, 0}";
},
{
name = top;
position = "{94, 730}";
},
{
name = topright;
position = "{209, 730}";
}
);
layerId = "1C7CD022-87C7-4E11-B656-E47B18819458";
name = Light;
paths = (
{
closed = 1;
nodes = (
"86 730 LINE",
"86 0 LINE",
"102 0 LINE",
"102 730 LINE"
);
}
);
width = 188;
}
);
leftKerningGroup = l.ss02;
leftMetricsKey = n;
rightKerningGroup = l.ss02;
rightMetricsKey = "=|n";
},
